<?xml version="1.0" encoding="utf-8"?>
<Project name="October 2018 journaling overview" themeId="0" version="65540" templateID="SimpleProjectTemplate">
  <MediaItems>
    <MediaItem id="1" filePath="C:\Users\sean walla walla\Desktop\My Life Story\My life story (Modern Journaling folder)\Milestone 2\daily articles\2018\10 October 2018\! Overview\Pictures\All together\1PAIR.PNG" arWidth="641" arHeight="241" duration="0" songTitle="" songArtist="" songAlbum="" songCopyrightUrl="" songArtistUrl="" songAudioFileUrl="" stabilizationMode="0" mediaItemType="2" />
    <MediaItem id="2" filePath="C:\Users\sean walla walla\Desktop\My Life Story\My life story (Modern Journaling folder)\Milestone 2\daily articles\2018\10 October 2018\! Overview\Pictures\All together\20MIN.PNG" arWidth="655" arHeight="389" duration="0" songTitle="" songArtist="" songAlbum="" songCopyrightUrl="" songArtistUrl="" songAudioFileUrl="" stabilizationMode="0" mediaItemType="2" />
    <MediaItem id="3" filePath="C:\Users\sean walla walla\Desktop\My Life Story\My life story (Modern Journaling folder)\Milestone 2\daily articles\2018\10 October 2018\! Overview\Pictures\All together\20181006_191757.jpg" arWidth="3024" arHeight="4032" duration="0" songTitle="" songArtist="" songAlbum="" songCopyrightUrl="" songArtistUrl="" songAudioFileUrl="" stabilizationMode="0" mediaItemType="2" />
    <MediaItem id="4" filePath="C:\Users\sean walla walla\Desktop\My Life Story\My life story (Modern Journaling folder)\Milestone 2\daily articles\2018\10 October 2018\! Overview\Pictures\All together\20181006_191806.jpg" arWidth="3024" arHeight="4032" duration="0" songTitle="" songArtist="" songAlbum="" songCopyrightUrl="" songArtistUrl="" songAudioFileUrl="" stabilizationMode="0" mediaItemType="2" />
    <MediaItem id="5" filePath="C:\Users\sean walla walla\Desktop\My Life Story\My life story (Modern Journaling folder)\Milestone 2\daily articles\2018\10 October 2018\! Overview\Pictures\All together\20181012135012_1.jpg" arWidth="1280" arHeight="600" duration="0" songTitle="" songArtist="" songAlbum="" songCopyrightUrl="" songArtistUrl="" songAudioFileUrl="" stabilizationMode="0" mediaItemType="2" />
    <MediaItem id="6" filePath="C:\Users\sean walla walla\Desktop\My Life Story\My life story (Modern Journaling folder)\Milestone 2\daily articles\2018\10 October 2018\! Overview\Pictures\All together\20181012135224_1.jpg" arWidth="1280" arHeight="600" duration="0" songTitle="" songArtist="" songAlbum="" songCopyrightUrl="" songArtistUrl="" songAudioFileUrl="" stabilizationMode="0" mediaItemType="2" />
    <MediaItem id="7" filePath="C:\Users\sean walla walla\Desktop\My Life Story\My life story (Modern Journaling folder)\Milestone 2\daily articles\2018\10 October 2018\! Overview\Pictures\All together\20181012135319_1.jpg" arWidth="1280" arHeight="600" duration="0" songTitle="" songArtist="" songAlbum="" songCopyrightUrl="" songArtistUrl="" songAudioFileUrl="" stabilizationMode="0" mediaItemType="2" />
    <MediaItem id="8" filePath="C:\Users\sean walla walla\Desktop\My Life Story\My life story (Modern Journaling folder)\Milestone 2\daily articles\2018\10 October 2018\! Overview\Pictures\All together\20181012135417_1.jpg" arWidth="1280" arHeight="600" duration="0" songTitle="" songArtist="" songAlbum="" songCopyrightUrl="" songArtistUrl="" songAudioFileUrl="" stabilizationMode="0" mediaItemType="2" />
    <MediaItem id="9" filePath="C:\Users\sean walla walla\Desktop\My Life Story\My life story (Modern Journaling folder)\Milestone 2\daily articles\2018\10 October 2018\! Overview\Pictures\All together\20181012135523_1.jpg" arWidth="1280" arHeight="600" duration="0" songTitle="" songArtist="" songAlbum="" songCopyrightUrl="" songArtistUrl="" songAudioFileUrl="" stabilizationMode="0" mediaItemType="2" />
    <MediaItem id="10" filePath="C:\Users\sean walla walla\Desktop\My Life Story\My life story (Modern Journaling folder)\Milestone 2\daily articles\2018\10 October 2018\! Overview\Pictures\All together\20181012135806_1.jpg" arWidth="1280" arHeight="600" duration="0" songTitle="" songArtist="" songAlbum="" songCopyrightUrl="" songArtistUrl="" songAudioFileUrl="" stabilizationMode="0" mediaItemType="2" />
    <MediaItem id="11" filePath="C:\Users\sean walla walla\Desktop\My Life Story\My life story (Modern Journaling folder)\Milestone 2\daily articles\2018\10 October 2018\! Overview\Pictures\All together\20181012135924_1.jpg" arWidth="1280" arHeight="600" duration="0" songTitle="" songArtist="" songAlbum="" songCopyrightUrl="" songArtistUrl="" songAudioFileUrl="" stabilizationMode="0" mediaItemType="2" />
    <MediaItem id="12" filePath="C:\Users\sean walla walla\Desktop\My Life Story\My life story (Modern Journaling folder)\Milestone 2\daily articles\2018\10 October 2018\! Overview\Pictures\All together\20181012140025_1.jpg" arWidth="96" arHeight="45" duration="0" songTitle="" songArtist="" songAlbum="" songCopyrightUrl="" songArtistUrl="" songAudioFileUrl="" stabilizationMode="0" mediaItemType="2" />
    <MediaItem id="13" filePath="C:\Users\sean walla walla\Desktop\My Life Story\My life story (Modern Journaling folder)\Milestone 2\daily articles\2018\10 October 2018\! Overview\Pictures\All together\20181012140137_1.jpg" arWidth="96" arHeight="45" duration="0" songTitle="" songArtist="" songAlbum="" songCopyrightUrl="" songArtistUrl="" songAudioFileUrl="" stabilizationMode="0" mediaItemType="2" />
    <MediaItem id="14" filePath="C:\Users\sean walla walla\Desktop\My Life Story\My life story (Modern Journaling folder)\Milestone 2\daily articles\2018\10 October 2018\! Overview\Pictures\All together\20181012140226_1.jpg" arWidth="96" arHeight="45" duration="0" songTitle="" songArtist="" songAlbum="" songCopyrightUrl="" songArtistUrl="" songAudioFileUrl="" stabilizationMode="0" mediaItemType="2" />
    <MediaItem id="15" filePath="C:\Users\sean walla walla\Desktop\My Life Story\My life story (Modern Journaling folder)\Milestone 2\daily articles\2018\10 October 2018\! Overview\Pictures\All together\20181012140325_1.jpg" arWidth="96" arHeight="45" duration="0" songTitle="" songArtist="" songAlbum="" songCopyrightUrl="" songArtistUrl="" songAudioFileUrl="" stabilizationMode="0" mediaItemType="2" />
    <MediaItem id="16" filePath="C:\Users\sean walla walla\Desktop\My Life Story\My life story (Modern Journaling folder)\Milestone 2\daily articles\2018\10 October 2018\! Overview\Pictures\All together\20181012140507_1.jpg" arWidth="1280" arHeight="600" duration="0" songTitle="" songArtist="" songAlbum="" songCopyrightUrl="" songArtistUrl="" songAudioFileUrl="" stabilizationMode="0" mediaItemType="2" />
    <MediaItem id="17" filePath="C:\Users\sean walla walla\Desktop\My Life Story\My life story (Modern Journaling folder)\Milestone 2\daily articles\2018\10 October 2018\! Overview\Pictures\All together\20181012140624_1.jpg" arWidth="1280" arHeight="600" duration="0" songTitle="" songArtist="" songAlbum="" songCopyrightUrl="" songArtistUrl="" songAudioFileUrl="" stabilizationMode="0" mediaItemType="2" />
    <MediaItem id="18" filePath="C:\Users\sean walla walla\Desktop\My Life Story\My life story (Modern Journaling folder)\Milestone 2\daily articles\2018\10 October 2018\! Overview\Pictures\All together\20181012140648_1.jpg" arWidth="1280" arHeight="600" duration="0" songTitle="" songArtist="" songAlbum="" songCopyrightUrl="" songArtistUrl="" songAudioFileUrl="" stabilizationMode="0" mediaItemType="2" />
    <MediaItem id="19" filePath="C:\Users\sean walla walla\Desktop\My Life Story\My life story (Modern Journaling folder)\Milestone 2\daily articles\2018\10 October 2018\! Overview\Pictures\All together\20181012140815_1.jpg" arWidth="1280" arHeight="600" duration="0" songTitle="" songArtist="" songAlbum="" songCopyrightUrl="" songArtistUrl="" songAudioFileUrl="" stabilizationMode="0" mediaItemType="2" />
    <MediaItem id="20" filePath="C:\Users\sean walla walla\Desktop\My Life Story\My life story (Modern Journaling folder)\Milestone 2\daily articles\2018\10 October 2018\! Overview\Pictures\All together\20181012140909_1.jpg" arWidth="1280" arHeight="600" duration="0" songTitle="" songArtist="" songAlbum="" songCopyrightUrl="" songArtistUrl="" songAudioFileUrl="" stabilizationMode="0" mediaItemType="2" />
    <MediaItem id="21" filePath="C:\Users\sean walla walla\Desktop\My Life Story\My life story (Modern Journaling folder)\Milestone 2\daily articles\2018\10 October 2018\! Overview\Pictures\All together\20181012141048_1.jpg" arWidth="1280" arHeight="600" duration="0" songTitle="" songArtist="" songAlbum="" songCopyrightUrl="" songArtistUrl="" songAudioFileUrl="" stabilizationMode="0" mediaItemType="2" />
    <MediaItem id="22" filePath="C:\Users\sean walla walla\Desktop\My Life Story\My life story (Modern Journaling folder)\Milestone 2\daily articles\2018\10 October 2018\! Overview\Pictures\All together\20181012141055_1.jpg" arWidth="1280" arHeight="600" duration="0" songTitle="" songArtist="" songAlbum="" songCopyrightUrl="" songArtistUrl="" songAudioFileUrl="" stabilizationMode="0" mediaItemType="2" />
    <MediaItem id="23" filePath="C:\Users\sean walla walla\Desktop\My Life Story\My life story (Modern Journaling folder)\Milestone 2\daily articles\2018\10 October 2018\! Overview\Pictures\All together\20181012141058_1.jpg" arWidth="1280" arHeight="600" duration="0" songTitle="" songArtist="" songAlbum="" songCopyrightUrl="" songArtistUrl="" songAudioFileUrl="" stabilizationMode="0" mediaItemType="2" />
    <MediaItem id="24" filePath="C:\Users\sean walla walla\Desktop\My Life Story\My life story (Modern Journaling folder)\Milestone 2\daily articles\2018\10 October 2018\! Overview\Pictures\All together\20181013152618_1.jpg" arWidth="1280" arHeight="600" duration="0" songTitle="" songArtist="" songAlbum="" songCopyrightUrl="" songArtistUrl="" songAudioFileUrl="" stabilizationMode="0" mediaItemType="2" />
    <MediaItem id="25" filePath="C:\Users\sean walla walla\Desktop\My Life Story\My life story (Modern Journaling folder)\Milestone 2\daily articles\2018\10 October 2018\! Overview\Pictures\All together\20181013152707_1.jpg" arWidth="1280" arHeight="600" duration="0" songTitle="" songArtist="" songAlbum="" songCopyrightUrl="" songArtistUrl="" songAudioFileUrl="" stabilizationMode="0" mediaItemType="2" />
    <MediaItem id="26" filePath="C:\Users\sean walla walla\Desktop\My Life Story\My life story (Modern Journaling folder)\Milestone 2\daily articles\2018\10 October 2018\! Overview\Pictures\All together\20181013152711_1.jpg" arWidth="1280" arHeight="600" duration="0" songTitle="" songArtist="" songAlbum="" songCopyrightUrl="" songArtistUrl="" songAudioFileUrl="" stabilizationMode="0" mediaItemType="2" />
    <MediaItem id="27" filePath="C:\Users\sean walla walla\Desktop\My Life Story\My life story (Modern Journaling folder)\Milestone 2\daily articles\2018\10 October 2018\! Overview\Pictures\All together\20181013152954_1.jpg" arWidth="1280" arHeight="600" duration="0" songTitle="" songArtist="" songAlbum="" songCopyrightUrl="" songArtistUrl="" songAudioFileUrl="" stabilizationMode="0" mediaItemType="2" />
    <MediaItem id="28" filePath="C:\Users\sean walla walla\Desktop\My Life Story\My life story (Modern Journaling folder)\Milestone 2\daily articles\2018\10 October 2018\! Overview\Pictures\All together\20181013153133_1.jpg" arWidth="1280" arHeight="600" duration="0" songTitle="" songArtist="" songAlbum="" songCopyrightUrl="" songArtistUrl="" songAudioFileUrl="" stabilizationMode="0" mediaItemType="2" />
    <MediaItem id="29" filePath="C:\Users\sean walla walla\Desktop\My Life Story\My life story (Modern Journaling folder)\Milestone 2\daily articles\2018\10 October 2018\! Overview\Pictures\All together\20181013153236_1.jpg" arWidth="1280" arHeight="600" duration="0" songTitle="" songArtist="" songAlbum="" songCopyrightUrl="" songArtistUrl="" songAudioFileUrl="" stabilizationMode="0" mediaItemType="2" />
    <MediaItem id="30" filePath="C:\Users\sean walla walla\Desktop\My Life Story\My life story (Modern Journaling folder)\Milestone 2\daily articles\2018\10 October 2018\! Overview\Pictures\All together\20181013153247_1.jpg" arWidth="1280" arHeight="600" duration="0" songTitle="" songArtist="" songAlbum="" songCopyrightUrl="" songArtistUrl="" songAudioFileUrl="" stabilizationMode="0" mediaItemType="2" />
    <MediaItem id="31" filePath="C:\Users\sean walla walla\Desktop\My Life Story\My life story (Modern Journaling folder)\Milestone 2\daily articles\2018\10 October 2018\! Overview\Pictures\All together\20181013153312_1.jpg" arWidth="1280" arHeight="600" duration="0" songTitle="" songArtist="" songAlbum="" songCopyrightUrl="" songArtistUrl="" songAudioFileUrl="" stabilizationMode="0" mediaItemType="2" />
    <MediaItem id="32" filePath="C:\Users\sean walla walla\Desktop\My Life Story\My life story (Modern Journaling folder)\Milestone 2\daily articles\2018\10 October 2018\! Overview\Pictures\All together\20181013153435_1.jpg" arWidth="1280" arHeight="600" duration="0" songTitle="" songArtist="" songAlbum="" songCopyrightUrl="" songArtistUrl="" songAudioFileUrl="" stabilizationMode="0" mediaItemType="2" />
    <MediaItem id="33" filePath="C:\Users\sean walla walla\Desktop\My Life Story\My life story (Modern Journaling folder)\Milestone 2\daily articles\2018\10 October 2018\! Overview\Pictures\All together\20181013153440_1.jpg" arWidth="1280" arHeight="600" duration="0" songTitle="" songArtist="" songAlbum="" songCopyrightUrl="" songArtistUrl="" songAudioFileUrl="" stabilizationMode="0" mediaItemType="2" />
    <MediaItem id="34" filePath="C:\Users\sean walla walla\Desktop\My Life Story\My life story (Modern Journaling folder)\Milestone 2\daily articles\2018\10 October 2018\! Overview\Pictures\All together\20181013153611_1.jpg" arWidth="1280" arHeight="600" duration="0" songTitle="" songArtist="" songAlbum="" songCopyrightUrl="" songArtistUrl="" songAudioFileUrl="" stabilizationMode="0" mediaItemType="2" />
    <MediaItem id="35" filePath="C:\Users\sean walla walla\Desktop\My Life Story\My life story (Modern Journaling folder)\Milestone 2\daily articles\2018\10 October 2018\! Overview\Pictures\All together\20181013153619_1.jpg" arWidth="1280" arHeight="600" duration="0" songTitle="" songArtist="" songAlbum="" songCopyrightUrl="" songArtistUrl="" songAudioFileUrl="" stabilizationMode="0" mediaItemType="2" />
    <MediaItem id="36" filePath="C:\Users\sean walla walla\Desktop\My Life Story\My life story (Modern Journaling folder)\Milestone 2\daily articles\2018\10 October 2018\! Overview\Pictures\All together\20181013153701_1.jpg" arWidth="1280" arHeight="600" duration="0" songTitle="" songArtist="" songAlbum="" songCopyrightUrl="" songArtistUrl="" songAudioFileUrl="" stabilizationMode="0" mediaItemType="2" />
    <MediaItem id="37" filePath="C:\Users\sean walla walla\Desktop\My Life Story\My life story (Modern Journaling folder)\Milestone 2\daily articles\2018\10 October 2018\! Overview\Pictures\All together\20181013153930_1.jpg" arWidth="1280" arHeight="600" duration="0" songTitle="" songArtist="" songAlbum="" songCopyrightUrl="" songArtistUrl="" songAudioFileUrl="" stabilizationMode="0" mediaItemType="2" />
    <MediaItem id="38" filePath="C:\Users\sean walla walla\Desktop\My Life Story\My life story (Modern Journaling folder)\Milestone 2\daily articles\2018\10 October 2018\! Overview\Pictures\All together\20181013153942_1.jpg" arWidth="1280" arHeight="600" duration="0" songTitle="" songArtist="" songAlbum="" songCopyrightUrl="" songArtistUrl="" songAudioFileUrl="" stabilizationMode="0" mediaItemType="2" />
    <MediaItem id="39" filePath="C:\Users\sean walla walla\Desktop\My Life Story\My life story (Modern Journaling folder)\Milestone 2\daily articles\2018\10 October 2018\! Overview\Pictures\All together\20181013154049_1.jpg" arWidth="1280" arHeight="600" duration="0" songTitle="" songArtist="" songAlbum="" songCopyrightUrl="" songArtistUrl="" songAudioFileUrl="" stabilizationMode="0" mediaItemType="2" />
    <MediaItem id="40" filePath="C:\Users\sean walla walla\Desktop\My Life Story\My life story (Modern Journaling folder)\Milestone 2\daily articles\2018\10 October 2018\! Overview\Pictures\All together\20181013154056_1.jpg" arWidth="1280" arHeight="600" duration="0" songTitle="" songArtist="" songAlbum="" songCopyrightUrl="" songArtistUrl="" songAudioFileUrl="" stabilizationMode="0" mediaItemType="2" />
    <MediaItem id="41" filePath="C:\Users\sean walla walla\Desktop\My Life Story\My life story (Modern Journaling folder)\Milestone 2\daily articles\2018\10 October 2018\! Overview\Pictures\All together\20181013154229_1.jpg" arWidth="1280" arHeight="600" duration="0" songTitle="" songArtist="" songAlbum="" songCopyrightUrl="" songArtistUrl="" songAudioFileUrl="" stabilizationMode="0" mediaItemType="2" />
    <MediaItem id="42" filePath="C:\Users\sean walla walla\Desktop\My Life Story\My life story (Modern Journaling folder)\Milestone 2\daily articles\2018\10 October 2018\! Overview\Pictures\All together\20181013154301_1.jpg" arWidth="1280" arHeight="600" duration="0" songTitle="" songArtist="" songAlbum="" songCopyrightUrl="" songArtistUrl="" songAudioFileUrl="" stabilizationMode="0" mediaItemType="2" />
    <MediaItem id="43" filePath="C:\Users\sean walla walla\Desktop\My Life Story\My life story (Modern Journaling folder)\Milestone 2\daily articles\2018\10 October 2018\! Overview\Pictures\All together\20181013154303_1.jpg" arWidth="1280" arHeight="600" duration="0" songTitle="" songArtist="" songAlbum="" songCopyrightUrl="" songArtistUrl="" songAudioFileUrl="" stabilizationMode="0" mediaItemType="2" />
    <MediaItem id="44" filePath="C:\Users\sean walla walla\Desktop\My Life Story\My life story (Modern Journaling folder)\Milestone 2\daily articles\2018\10 October 2018\! Overview\Pictures\All together\20181013154424_1.jpg" arWidth="1280" arHeight="600" duration="0" songTitle="" songArtist="" songAlbum="" songCopyrightUrl="" songArtistUrl="" songAudioFileUrl="" stabilizationMode="0" mediaItemType="2" />
    <MediaItem id="45" filePath="C:\Users\sean walla walla\Desktop\My Life Story\My life story (Modern Journaling folder)\Milestone 2\daily articles\2018\10 October 2018\! Overview\Pictures\All together\20181013154449_1.jpg" arWidth="1280" arHeight="600" duration="0" songTitle="" songArtist="" songAlbum="" songCopyrightUrl="" songArtistUrl="" songAudioFileUrl="" stabilizationMode="0" mediaItemType="2" />
    <MediaItem id="46" filePath="C:\Users\sean walla walla\Desktop\My Life Story\My life story (Modern Journaling folder)\Milestone 2\daily articles\2018\10 October 2018\! Overview\Pictures\All together\20181013154630_1.jpg" arWidth="1280" arHeight="600" duration="0" songTitle="" songArtist="" songAlbum="" songCopyrightUrl="" songArtistUrl="" songAudioFileUrl="" stabilizationMode="0" mediaItemType="2" />
    <MediaItem id="47" filePath="C:\Users\sean walla walla\Desktop\My Life Story\My life story (Modern Journaling folder)\Milestone 2\daily articles\2018\10 October 2018\! Overview\Pictures\All together\20181013154808_1.jpg" arWidth="1280" arHeight="600" duration="0" songTitle="" songArtist="" songAlbum="" songCopyrightUrl="" songArtistUrl="" songAudioFileUrl="" stabilizationMode="0" mediaItemType="2" />
    <MediaItem id="48" filePath="C:\Users\sean walla walla\Desktop\My Life Story\My life story (Modern Journaling folder)\Milestone 2\daily articles\2018\10 October 2018\! Overview\Pictures\All together\20181013154945_1.jpg" arWidth="1280" arHeight="600" duration="0" songTitle="" songArtist="" songAlbum="" songCopyrightUrl="" songArtistUrl="" songAudioFileUrl="" stabilizationMode="0" mediaItemType="2" />
    <MediaItem id="49" filePath="C:\Users\sean walla walla\Desktop\My Life Story\My life story (Modern Journaling folder)\Milestone 2\daily articles\2018\10 October 2018\! Overview\Pictures\All together\20181013155001_1.jpg" arWidth="1280" arHeight="600" duration="0" songTitle="" songArtist="" songAlbum="" songCopyrightUrl="" songArtistUrl="" songAudioFileUrl="" stabilizationMode="0" mediaItemType="2" />
    <MediaItem id="50" filePath="C:\Users\sean walla walla\Desktop\My Life Story\My life story (Modern Journaling folder)\Milestone 2\daily articles\2018\10 October 2018\! Overview\Pictures\All together\20181013155009_1.jpg" arWidth="1280" arHeight="600" duration="0" songTitle="" songArtist="" songAlbum="" songCopyrightUrl="" songArtistUrl="" songAudioFileUrl="" stabilizationMode="0" mediaItemType="2" />
    <MediaItem id="51" filePath="C:\Users\sean walla walla\Desktop\My Life Story\My life story (Modern Journaling folder)\Milestone 2\daily articles\2018\10 October 2018\! Overview\Pictures\All together\20181013155050_1.jpg" arWidth="1280" arHeight="600" duration="0" songTitle="" songArtist="" songAlbum="" songCopyrightUrl="" songArtistUrl="" songAudioFileUrl="" stabilizationMode="0" mediaItemType="2" />
    <MediaItem id="52" filePath="C:\Users\sean walla walla\Desktop\My Life Story\My life story (Modern Journaling folder)\Milestone 2\daily articles\2018\10 October 2018\! Overview\Pictures\All together\20181013155053_1.jpg" arWidth="1280" arHeight="600" duration="0" songTitle="" songArtist="" songAlbum="" songCopyrightUrl="" songArtistUrl="" songAudioFileUrl="" stabilizationMode="0" mediaItemType="2" />
    <MediaItem id="53" filePath="C:\Users\sean walla walla\Desktop\My Life Story\My life story (Modern Journaling folder)\Milestone 2\daily articles\2018\10 October 2018\! Overview\Pictures\All together\20181013155124_1.jpg" arWidth="1280" arHeight="600" duration="0" songTitle="" songArtist="" songAlbum="" songCopyrightUrl="" songArtistUrl="" songAudioFileUrl="" stabilizationMode="0" mediaItemType="2" />
    <MediaItem id="54" filePath="C:\Users\sean walla walla\Desktop\My Life Story\My life story (Modern Journaling folder)\Milestone 2\daily articles\2018\10 October 2018\! Overview\Pictures\All together\20181013155504_1.jpg" arWidth="1280" arHeight="600" duration="0" songTitle="" songArtist="" songAlbum="" songCopyrightUrl="" songArtistUrl="" songAudioFileUrl="" stabilizationMode="0" mediaItemType="2" />
    <MediaItem id="55" filePath="C:\Users\sean walla walla\Desktop\My Life Story\My life story (Modern Journaling folder)\Milestone 2\daily articles\2018\10 October 2018\! Overview\Pictures\All together\20181013155627_1.jpg" arWidth="1280" arHeight="600" duration="0" songTitle="" songArtist="" songAlbum="" songCopyrightUrl="" songArtistUrl="" songAudioFileUrl="" stabilizationMode="0" mediaItemType="2" />
    <MediaItem id="56" filePath="C:\Users\sean walla walla\Desktop\My Life Story\My life story (Modern Journaling folder)\Milestone 2\daily articles\2018\10 October 2018\! Overview\Pictures\All together\20181013155629_1.jpg" arWidth="1280" arHeight="600" duration="0" songTitle="" songArtist="" songAlbum="" songCopyrightUrl="" songArtistUrl="" songAudioFileUrl="" stabilizationMode="0" mediaItemType="2" />
    <MediaItem id="57" filePath="C:\Users\sean walla walla\Desktop\My Life Story\My life story (Modern Journaling folder)\Milestone 2\daily articles\2018\10 October 2018\! Overview\Pictures\All together\20181013155747_1.jpg" arWidth="1280" arHeight="600" duration="0" songTitle="" songArtist="" songAlbum="" songCopyrightUrl="" songArtistUrl="" songAudioFileUrl="" stabilizationMode="0" mediaItemType="2" />
    <MediaItem id="58" filePath="C:\Users\sean walla walla\Desktop\My Life Story\My life story (Modern Journaling folder)\Milestone 2\daily articles\2018\10 October 2018\! Overview\Pictures\All together\20181013155908_1.jpg" arWidth="1280" arHeight="600" duration="0" songTitle="" songArtist="" songAlbum="" songCopyrightUrl="" songArtistUrl="" songAudioFileUrl="" stabilizationMode="0" mediaItemType="2" />
    <MediaItem id="59" filePath="C:\Users\sean walla walla\Desktop\My Life Story\My life story (Modern Journaling folder)\Milestone 2\daily articles\2018\10 October 2018\! Overview\Pictures\All together\20181013160158_1.jpg" arWidth="1280" arHeight="600" duration="0" songTitle="" songArtist="" songAlbum="" songCopyrightUrl="" songArtistUrl="" songAudioFileUrl="" stabilizationMode="0" mediaItemType="2" />
    <MediaItem id="60" filePath="C:\Users\sean walla walla\Desktop\My Life Story\My life story (Modern Journaling folder)\Milestone 2\daily articles\2018\10 October 2018\! Overview\Pictures\All together\20181013160200_1.jpg" arWidth="1280" arHeight="600" duration="0" songTitle="" songArtist="" songAlbum="" songCopyrightUrl="" songArtistUrl="" songAudioFileUrl="" stabilizationMode="0" mediaItemType="2" />
    <MediaItem id="61" filePath="C:\Users\sean walla walla\Desktop\My Life Story\My life story (Modern Journaling folder)\Milestone 2\daily articles\2018\10 October 2018\! Overview\Pictures\All together\20181013160322_1.jpg" arWidth="1280" arHeight="600" duration="0" songTitle="" songArtist="" songAlbum="" songCopyrightUrl="" songArtistUrl="" songAudioFileUrl="" stabilizationMode="0" mediaItemType="2" />
    <MediaItem id="62" filePath="C:\Users\sean walla walla\Desktop\My Life Story\My life story (Modern Journaling folder)\Milestone 2\daily articles\2018\10 October 2018\! Overview\Pictures\All together\20181013160415_1.jpg" arWidth="1280" arHeight="600" duration="0" songTitle="" songArtist="" songAlbum="" songCopyrightUrl="" songArtistUrl="" songAudioFileUrl="" stabilizationMode="0" mediaItemType="2" />
    <MediaItem id="63" filePath="C:\Users\sean walla walla\Desktop\My Life Story\My life story (Modern Journaling folder)\Milestone 2\daily articles\2018\10 October 2018\! Overview\Pictures\All together\20181013160500_1.jpg" arWidth="1280" arHeight="600" duration="0" songTitle="" songArtist="" songAlbum="" songCopyrightUrl="" songArtistUrl="" songAudioFileUrl="" stabilizationMode="0" mediaItemType="2" />
    <MediaItem id="64" filePath="C:\Users\sean walla walla\Desktop\My Life Story\My life story (Modern Journaling folder)\Milestone 2\daily articles\2018\10 October 2018\! Overview\Pictures\All together\20181013160632_1.jpg" arWidth="1280" arHeight="600" duration="0" songTitle="" songArtist="" songAlbum="" songCopyrightUrl="" songArtistUrl="" songAudioFileUrl="" stabilizationMode="0" mediaItemType="2" />
    <MediaItem id="65" filePath="C:\Users\sean walla walla\Desktop\My Life Story\My life story (Modern Journaling folder)\Milestone 2\daily articles\2018\10 October 2018\! Overview\Pictures\All together\20181013160818_1.jpg" arWidth="1280" arHeight="600" duration="0" songTitle="" songArtist="" songAlbum="" songCopyrightUrl="" songArtistUrl="" songAudioFileUrl="" stabilizationMode="0" mediaItemType="2" />
    <MediaItem id="66" filePath="C:\Users\sean walla walla\Desktop\My Life Story\My life story (Modern Journaling folder)\Milestone 2\daily articles\2018\10 October 2018\! Overview\Pictures\All together\20181013160827_1.jpg" arWidth="1280" arHeight="600" duration="0" songTitle="" songArtist="" songAlbum="" songCopyrightUrl="" songArtistUrl="" songAudioFileUrl="" stabilizationMode="0" mediaItemType="2" />
    <MediaItem id="67" filePath="C:\Users\sean walla walla\Desktop\My Life Story\My life story (Modern Journaling folder)\Milestone 2\daily articles\2018\10 October 2018\! Overview\Pictures\All together\20181013161011_1.jpg" arWidth="1280" arHeight="600" duration="0" songTitle="" songArtist="" songAlbum="" songCopyrightUrl="" songArtistUrl="" songAudioFileUrl="" stabilizationMode="0" mediaItemType="2" />
    <MediaItem id="68" filePath="C:\Users\sean walla walla\Desktop\My Life Story\My life story (Modern Journaling folder)\Milestone 2\daily articles\2018\10 October 2018\! Overview\Pictures\All together\20181013161101_1.jpg" arWidth="1280" arHeight="600" duration="0" songTitle="" songArtist="" songAlbum="" songCopyrightUrl="" songArtistUrl="" songAudioFileUrl="" stabilizationMode="0" mediaItemType="2" />
    <MediaItem id="69" filePath="C:\Users\sean walla walla\Desktop\My Life Story\My life story (Modern Journaling folder)\Milestone 2\daily articles\2018\10 October 2018\! Overview\Pictures\All together\20181013161303_1.jpg" arWidth="1280" arHeight="600" duration="0" songTitle="" songArtist="" songAlbum="" songCopyrightUrl="" songArtistUrl="" songAudioFileUrl="" stabilizationMode="0" mediaItemType="2" />
    <MediaItem id="70" filePath="C:\Users\sean walla walla\Desktop\My Life Story\My life story (Modern Journaling folder)\Milestone 2\daily articles\2018\10 October 2018\! Overview\Pictures\All together\20181013161305_1.jpg" arWidth="1280" arHeight="600" duration="0" songTitle="" songArtist="" songAlbum="" songCopyrightUrl="" songArtistUrl="" songAudioFileUrl="" stabilizationMode="0" mediaItemType="2" />
    <MediaItem id="71" filePath="C:\Users\sean walla walla\Desktop\My Life Story\My life story (Modern Journaling folder)\Milestone 2\daily articles\2018\10 October 2018\! Overview\Pictures\All together\20181013161506_1.jpg" arWidth="1280" arHeight="600" duration="0" songTitle="" songArtist="" songAlbum="" songCopyrightUrl="" songArtistUrl="" songAudioFileUrl="" stabilizationMode="0" mediaItemType="2" />
    <MediaItem id="72" filePath="C:\Users\sean walla walla\Desktop\My Life Story\My life story (Modern Journaling folder)\Milestone 2\daily articles\2018\10 October 2018\! Overview\Pictures\All together\20181013161507_1.jpg" arWidth="1280" arHeight="600" duration="0" songTitle="" songArtist="" songAlbum="" songCopyrightUrl="" songArtistUrl="" songAudioFileUrl="" stabilizationMode="0" mediaItemType="2" />
    <MediaItem id="73" filePath="C:\Users\sean walla walla\Desktop\My Life Story\My life story (Modern Journaling folder)\Milestone 2\daily articles\2018\10 October 2018\! Overview\Pictures\All together\20181013161517_1.jpg" arWidth="1280" arHeight="600" duration="0" songTitle="" songArtist="" songAlbum="" songCopyrightUrl="" songArtistUrl="" songAudioFileUrl="" stabilizationMode="0" mediaItemType="2" />
    <MediaItem id="74" filePath="C:\Users\sean walla walla\Desktop\My Life Story\My life story (Modern Journaling folder)\Milestone 2\daily articles\2018\10 October 2018\! Overview\Pictures\All together\20181013161542_1.jpg" arWidth="1280" arHeight="600" duration="0" songTitle="" songArtist="" songAlbum="" songCopyrightUrl="" songArtistUrl="" songAudioFileUrl="" stabilizationMode="0" mediaItemType="2" />
    <MediaItem id="75" filePath="C:\Users\sean walla walla\Desktop\My Life Story\My life story (Modern Journaling folder)\Milestone 2\daily articles\2018\10 October 2018\! Overview\Pictures\All together\20181013161603_1.jpg" arWidth="1280" arHeight="600" duration="0" songTitle="" songArtist="" songAlbum="" songCopyrightUrl="" songArtistUrl="" songAudioFileUrl="" stabilizationMode="0" mediaItemType="2" />
    <MediaItem id="76" filePath="C:\Users\sean walla walla\Desktop\My Life Story\My life story (Modern Journaling folder)\Milestone 2\daily articles\2018\10 October 2018\! Overview\Pictures\All together\20181013161623_1.jpg" arWidth="1280" arHeight="600" duration="0" songTitle="" songArtist="" songAlbum="" songCopyrightUrl="" songArtistUrl="" songAudioFileUrl="" stabilizationMode="0" mediaItemType="2" />
    <MediaItem id="77" filePath="C:\Users\sean walla walla\Desktop\My Life Story\My life story (Modern Journaling folder)\Milestone 2\daily articles\2018\10 October 2018\! Overview\Pictures\All together\20181013161625_1.jpg" arWidth="1280" arHeight="600" duration="0" songTitle="" songArtist="" songAlbum="" songCopyrightUrl="" songArtistUrl="" songAudioFileUrl="" stabilizationMode="0" mediaItemType="2" />
    <MediaItem id="78" filePath="C:\Users\sean walla walla\Desktop\My Life Story\My life story (Modern Journaling folder)\Milestone 2\daily articles\2018\10 October 2018\! Overview\Pictures\All together\20181013161627_1.jpg" arWidth="1280" arHeight="600" duration="0" songTitle="" songArtist="" songAlbum="" songCopyrightUrl="" songArtistUrl="" songAudioFileUrl="" stabilizationMode="0" mediaItemType="2" />
    <MediaItem id="79" filePath="C:\Users\sean walla walla\Desktop\My Life Story\My life story (Modern Journaling folder)\Milestone 2\daily articles\2018\10 October 2018\! Overview\Pictures\All together\20181013161629_1.jpg" arWidth="1280" arHeight="600" duration="0" songTitle="" songArtist="" songAlbum="" songCopyrightUrl="" songArtistUrl="" songAudioFileUrl="" stabilizationMode="0" mediaItemType="2" />
    <MediaItem id="80" filePath="C:\Users\sean walla walla\Desktop\My Life Story\My life story (Modern Journaling folder)\Milestone 2\daily articles\2018\10 October 2018\! Overview\Pictures\All together\20181013161632_1.jpg" arWidth="1280" arHeight="600" duration="0" songTitle="" songArtist="" songAlbum="" songCopyrightUrl="" songArtistUrl="" songAudioFileUrl="" stabilizationMode="0" mediaItemType="2" />
    <MediaItem id="81" filePath="C:\Users\sean walla walla\Desktop\My Life Story\My life story (Modern Journaling folder)\Milestone 2\daily articles\2018\10 October 2018\! Overview\Pictures\All together\20181013161633_1.jpg" arWidth="1280" arHeight="600" duration="0" songTitle="" songArtist="" songAlbum="" songCopyrightUrl="" songArtistUrl="" songAudioFileUrl="" stabilizationMode="0" mediaItemType="2" />
    <MediaItem id="82" filePath="C:\Users\sean walla walla\Desktop\My Life Story\My life story (Modern Journaling folder)\Milestone 2\daily articles\2018\10 October 2018\! Overview\Pictures\All together\20181027190405_1.jpg" arWidth="1280" arHeight="600" duration="0" songTitle="" songArtist="" songAlbum="" songCopyrightUrl="" songArtistUrl="" songAudioFileUrl="" stabilizationMode="0" mediaItemType="2" />
    <MediaItem id="83" filePath="C:\Users\sean walla walla\Desktop\My Life Story\My life story (Modern Journaling folder)\Milestone 2\daily articles\2018\10 October 2018\! Overview\Pictures\All together\20181027190408_1.jpg" arWidth="1280" arHeight="600" duration="0" songTitle="" songArtist="" songAlbum="" songCopyrightUrl="" songArtistUrl="" songAudioFileUrl="" stabilizationMode="0" mediaItemType="2" />
    <MediaItem id="84" filePath="C:\Users\sean walla walla\Desktop\My Life Story\My life story (Modern Journaling folder)\Milestone 2\daily articles\2018\10 October 2018\! Overview\Pictures\All together\20181027190936_1.jpg" arWidth="1280" arHeight="600" duration="0" songTitle="" songArtist="" songAlbum="" songCopyrightUrl="" songArtistUrl="" songAudioFileUrl="" stabilizationMode="0" mediaItemType="2" />
    <MediaItem id="85" filePath="C:\Users\sean walla walla\Desktop\My Life Story\My life story (Modern Journaling folder)\Milestone 2\daily articles\2018\10 October 2018\! Overview\Pictures\All together\20181027191107_1.jpg" arWidth="1280" arHeight="600" duration="0" songTitle="" songArtist="" songAlbum="" songCopyrightUrl="" songArtistUrl="" songAudioFileUrl="" stabilizationMode="0" mediaItemType="2" />
    <MediaItem id="86" filePath="C:\Users\sean walla walla\Desktop\My Life Story\My life story (Modern Journaling folder)\Milestone 2\daily articles\2018\10 October 2018\! Overview\Pictures\All together\20181027191153_1.jpg" arWidth="1280" arHeight="600" duration="0" songTitle="" songArtist="" songAlbum="" songCopyrightUrl="" songArtistUrl="" songAudioFileUrl="" stabilizationMode="0" mediaItemType="2" />
    <MediaItem id="87" filePath="C:\Users\sean walla walla\Desktop\My Life Story\My life story (Modern Journaling folder)\Milestone 2\daily articles\2018\10 October 2018\! Overview\Pictures\All together\20181027191156_1.jpg" arWidth="1280" arHeight="600" duration="0" songTitle="" songArtist="" songAlbum="" songCopyrightUrl="" songArtistUrl="" songAudioFileUrl="" stabilizationMode="0" mediaItemType="2" />
    <MediaItem id="88" filePath="C:\Users\sean walla walla\Desktop\My Life Story\My life story (Modern Journaling folder)\Milestone 2\daily articles\2018\10 October 2018\! Overview\Pictures\All together\20181027191254_1.jpg" arWidth="1280" arHeight="600" duration="0" songTitle="" songArtist="" songAlbum="" songCopyrightUrl="" songArtistUrl="" songAudioFileUrl="" stabilizationMode="0" mediaItemType="2" />
    <MediaItem id="89" filePath="C:\Users\sean walla walla\Desktop\My Life Story\My life story (Modern Journaling folder)\Milestone 2\daily articles\2018\10 October 2018\! Overview\Pictures\All together\20181027191445_1.jpg" arWidth="1280" arHeight="600" duration="0" songTitle="" songArtist="" songAlbum="" songCopyrightUrl="" songArtistUrl="" songAudioFileUrl="" stabilizationMode="0" mediaItemType="2" />
    <MediaItem id="90" filePath="C:\Users\sean walla walla\Desktop\My Life Story\My life story (Modern Journaling folder)\Milestone 2\daily articles\2018\10 October 2018\! Overview\Pictures\All together\20181027191503_1.jpg" arWidth="1280" arHeight="600" duration="0" songTitle="" songArtist="" songAlbum="" songCopyrightUrl="" songArtistUrl="" songAudioFileUrl="" stabilizationMode="0" mediaItemType="2" />
    <MediaItem id="91" filePath="C:\Users\sean walla walla\Desktop\My Life Story\My life story (Modern Journaling folder)\Milestone 2\daily articles\2018\10 October 2018\! Overview\Pictures\All together\20181027191920_1.jpg" arWidth="1280" arHeight="600" duration="0" songTitle="" songArtist="" songAlbum="" songCopyrightUrl="" songArtistUrl="" songAudioFileUrl="" stabilizationMode="0" mediaItemType="2" />
    <MediaItem id="92" filePath="C:\Users\sean walla walla\Desktop\My Life Story\My life story (Modern Journaling folder)\Milestone 2\daily articles\2018\10 October 2018\! Overview\Pictures\All together\20181027192000_1.jpg" arWidth="1280" arHeight="600" duration="0" songTitle="" songArtist="" songAlbum="" songCopyrightUrl="" songArtistUrl="" songAudioFileUrl="" stabilizationMode="0" mediaItemType="2" />
    <MediaItem id="93" filePath="C:\Users\sean walla walla\Desktop\My Life Story\My life story (Modern Journaling folder)\Milestone 2\daily articles\2018\10 October 2018\! Overview\Pictures\All together\20181027192120_1.jpg" arWidth="1280" arHeight="600" duration="0" songTitle="" songArtist="" songAlbum="" songCopyrightUrl="" songArtistUrl="" songAudioFileUrl="" stabilizationMode="0" mediaItemType="2" />
    <MediaItem id="94" filePath="C:\Users\sean walla walla\Desktop\My Life Story\My life story (Modern Journaling folder)\Milestone 2\daily articles\2018\10 October 2018\! Overview\Pictures\All together\20181027192232_1.jpg" arWidth="1280" arHeight="600" duration="0" songTitle="" songArtist="" songAlbum="" songCopyrightUrl="" songArtistUrl="" songAudioFileUrl="" stabilizationMode="0" mediaItemType="2" />
    <MediaItem id="95" filePath="C:\Users\sean walla walla\Desktop\My Life Story\My life story (Modern Journaling folder)\Milestone 2\daily articles\2018\10 October 2018\! Overview\Pictures\All together\20181027192242_1.jpg" arWidth="1280" arHeight="600" duration="0" songTitle="" songArtist="" songAlbum="" songCopyrightUrl="" songArtistUrl="" songAudioFileUrl="" stabilizationMode="0" mediaItemType="2" />
    <MediaItem id="96" filePath="C:\Users\sean walla walla\Desktop\My Life Story\My life story (Modern Journaling folder)\Milestone 2\daily articles\2018\10 October 2018\! Overview\Pictures\All together\20181027192354_1.jpg" arWidth="1280" arHeight="600" duration="0" songTitle="" songArtist="" songAlbum="" songCopyrightUrl="" songArtistUrl="" songAudioFileUrl="" stabilizationMode="0" mediaItemType="2" />
    <MediaItem id="97" filePath="C:\Users\sean walla walla\Desktop\My Life Story\My life story (Modern Journaling folder)\Milestone 2\daily articles\2018\10 October 2018\! Overview\Pictures\All together\20181027192506_1.jpg" arWidth="1280" arHeight="600" duration="0" songTitle="" songArtist="" songAlbum="" songCopyrightUrl="" songArtistUrl="" songAudioFileUrl="" stabilizationMode="0" mediaItemType="2" />
    <MediaItem id="98" filePath="C:\Users\sean walla walla\Desktop\My Life Story\My life story (Modern Journaling folder)\Milestone 2\daily articles\2018\10 October 2018\! Overview\Pictures\All together\20181027192646_1.jpg" arWidth="1280" arHeight="600" duration="0" songTitle="" songArtist="" songAlbum="" songCopyrightUrl="" songArtistUrl="" songAudioFileUrl="" stabilizationMode="0" mediaItemType="2" />
    <MediaItem id="99" filePath="C:\Users\sean walla walla\Desktop\My Life Story\My life story (Modern Journaling folder)\Milestone 2\daily articles\2018\10 October 2018\! Overview\Pictures\All together\20181027192836_1.jpg" arWidth="1280" arHeight="600" duration="0" songTitle="" songArtist="" songAlbum="" songCopyrightUrl="" songArtistUrl="" songAudioFileUrl="" stabilizationMode="0" mediaItemType="2" />
    <MediaItem id="100" filePath="C:\Users\sean walla walla\Desktop\My Life Story\My life story (Modern Journaling folder)\Milestone 2\daily articles\2018\10 October 2018\! Overview\Pictures\All together\20181027192930_1.jpg" arWidth="1280" arHeight="600" duration="0" songTitle="" songArtist="" songAlbum="" songCopyrightUrl="" songArtistUrl="" songAudioFileUrl="" stabilizationMode="0" mediaItemType="2" />
    <MediaItem id="101" filePath="C:\Users\sean walla walla\Desktop\My Life Story\My life story (Modern Journaling folder)\Milestone 2\daily articles\2018\10 October 2018\! Overview\Pictures\All together\20181027192934_1.jpg" arWidth="1280" arHeight="600" duration="0" songTitle="" songArtist="" songAlbum="" songCopyrightUrl="" songArtistUrl="" songAudioFileUrl="" stabilizationMode="0" mediaItemType="2" />
    <MediaItem id="102" filePath="C:\Users\sean walla walla\Desktop\My Life Story\My life story (Modern Journaling folder)\Milestone 2\daily articles\2018\10 October 2018\! Overview\Pictures\All together\20181027193205_1.jpg" arWidth="1280" arHeight="600" duration="0" songTitle="" songArtist="" songAlbum="" songCopyrightUrl="" songArtistUrl="" songAudioFileUrl="" stabilizationMode="0" mediaItemType="2" />
    <MediaItem id="103" filePath="C:\Users\sean walla walla\Desktop\My Life Story\My life story (Modern Journaling folder)\Milestone 2\daily articles\2018\10 October 2018\! Overview\Pictures\All together\20181027193353_1.jpg" arWidth="1280" arHeight="600" duration="0" songTitle="" songArtist="" songAlbum="" songCopyrightUrl="" songArtistUrl="" songAudioFileUrl="" stabilizationMode="0" mediaItemType="2" />
    <MediaItem id="104" filePath="C:\Users\sean walla walla\Desktop\My Life Story\My life story (Modern Journaling folder)\Milestone 2\daily articles\2018\10 October 2018\! Overview\Pictures\All together\20181027193408_1.jpg" arWidth="1280" arHeight="600" duration="0" songTitle="" songArtist="" songAlbum="" songCopyrightUrl="" songArtistUrl="" songAudioFileUrl="" stabilizationMode="0" mediaItemType="2" />
    <MediaItem id="105" filePath="C:\Users\sean walla walla\Desktop\My Life Story\My life story (Modern Journaling folder)\Milestone 2\daily articles\2018\10 October 2018\! Overview\Pictures\All together\20181027193443_1.jpg" arWidth="1280" arHeight="600" duration="0" songTitle="" songArtist="" songAlbum="" songCopyrightUrl="" songArtistUrl="" songAudioFileUrl="" stabilizationMode="0" mediaItemType="2" />
    <MediaItem id="106" filePath="C:\Users\sean walla walla\Desktop\My Life Story\My life story (Modern Journaling folder)\Milestone 2\daily articles\2018\10 October 2018\! Overview\Pictures\All together\20181027193448_1.jpg" arWidth="1280" arHeight="600" duration="0" songTitle="" songArtist="" songAlbum="" songCopyrightUrl="" songArtistUrl="" songAudioFileUrl="" stabilizationMode="0" mediaItemType="2" />
    <MediaItem id="107" filePath="C:\Users\sean walla walla\Desktop\My Life Story\My life story (Modern Journaling folder)\Milestone 2\daily articles\2018\10 October 2018\! Overview\Pictures\All together\20181027193535_1.jpg" arWidth="1280" arHeight="600" duration="0" songTitle="" songArtist="" songAlbum="" songCopyrightUrl="" songArtistUrl="" songAudioFileUrl="" stabilizationMode="0" mediaItemType="2" />
    <MediaItem id="108" filePath="C:\Users\sean walla walla\Desktop\My Life Story\My life story (Modern Journaling folder)\Milestone 2\daily articles\2018\10 October 2018\! Overview\Pictures\All together\20181027193706_1.jpg" arWidth="1280" arHeight="600" duration="0" songTitle="" songArtist="" songAlbum="" songCopyrightUrl="" songArtistUrl="" songAudioFileUrl="" stabilizationMode="0" mediaItemType="2" />
    <MediaItem id="109" filePath="C:\Users\sean walla walla\Desktop\My Life Story\My life story (Modern Journaling folder)\Milestone 2\daily articles\2018\10 October 2018\! Overview\Pictures\All together\20181027193816_1.jpg" arWidth="1280" arHeight="600" duration="0" songTitle="" songArtist="" songAlbum="" songCopyrightUrl="" songArtistUrl="" songAudioFileUrl="" stabilizationMode="0" mediaItemType="2" />
    <MediaItem id="110" filePath="C:\Users\sean walla walla\Desktop\My Life Story\My life story (Modern Journaling folder)\Milestone 2\daily articles\2018\10 October 2018\! Overview\Pictures\All together\20181027193839_1.jpg" arWidth="1280" arHeight="600" duration="0" songTitle="" songArtist="" songAlbum="" songCopyrightUrl="" songArtistUrl="" songAudioFileUrl="" stabilizationMode="0" mediaItemType="2" />
    <MediaItem id="111" filePath="C:\Users\sean walla walla\Desktop\My Life Story\My life story (Modern Journaling folder)\Milestone 2\daily articles\2018\10 October 2018\! Overview\Pictures\All together\20181027193958_1.jpg" arWidth="1280" arHeight="600" duration="0" songTitle="" songArtist="" songAlbum="" songCopyrightUrl="" songArtistUrl="" songAudioFileUrl="" stabilizationMode="0" mediaItemType="2" />
    <MediaItem id="112" filePath="C:\Users\sean walla walla\Desktop\My Life Story\My life story (Modern Journaling folder)\Milestone 2\daily articles\2018\10 October 2018\! Overview\Pictures\All together\20181027194238_1.jpg" arWidth="1280" arHeight="600" duration="0" songTitle="" songArtist="" songAlbum="" songCopyrightUrl="" songArtistUrl="" songAudioFileUrl="" stabilizationMode="0" mediaItemType="2" />
    <MediaItem id="113" filePath="C:\Users\sean walla walla\Desktop\My Life Story\My life story (Modern Journaling folder)\Milestone 2\daily articles\2018\10 October 2018\! Overview\Pictures\All together\20181027194544_1.jpg" arWidth="1280" arHeight="600" duration="0" songTitle="" songArtist="" songAlbum="" songCopyrightUrl="" songArtistUrl="" songAudioFileUrl="" stabilizationMode="0" mediaItemType="2" />
    <MediaItem id="114" filePath="C:\Users\sean walla walla\Desktop\My Life Story\My life story (Modern Journaling folder)\Milestone 2\daily articles\2018\10 October 2018\! Overview\Pictures\All together\20181027194636_1.jpg" arWidth="1280" arHeight="600" duration="0" songTitle="" songArtist="" songAlbum="" songCopyrightUrl="" songArtistUrl="" songAudioFileUrl="" stabilizationMode="0" mediaItemType="2" />
    <MediaItem id="115" filePath="C:\Users\sean walla walla\Desktop\My Life Story\My life story (Modern Journaling folder)\Milestone 2\daily articles\2018\10 October 2018\! Overview\Pictures\All together\20181027194645_1.jpg" arWidth="1280" arHeight="600" duration="0" songTitle="" songArtist="" songAlbum="" songCopyrightUrl="" songArtistUrl="" songAudioFileUrl="" stabilizationMode="0" mediaItemType="2" />
    <MediaItem id="116" filePath="C:\Users\sean walla walla\Desktop\My Life Story\My life story (Modern Journaling folder)\Milestone 2\daily articles\2018\10 October 2018\! Overview\Pictures\All together\20181027194846_1.jpg" arWidth="1280" arHeight="600" duration="0" songTitle="" songArtist="" songAlbum="" songCopyrightUrl="" songArtistUrl="" songAudioFileUrl="" stabilizationMode="0" mediaItemType="2" />
    <MediaItem id="117" filePath="C:\Users\sean walla walla\Desktop\My Life Story\My life story (Modern Journaling folder)\Milestone 2\daily articles\2018\10 October 2018\! Overview\Pictures\All together\20181027194849_1.jpg" arWidth="1280" arHeight="600" duration="0" songTitle="" songArtist="" songAlbum="" songCopyrightUrl="" songArtistUrl="" songAudioFileUrl="" stabilizationMode="0" mediaItemType="2" />
    <MediaItem id="118" filePath="C:\Users\sean walla walla\Desktop\My Life Story\My life story (Modern Journaling folder)\Milestone 2\daily articles\2018\10 October 2018\! Overview\Pictures\All together\20181027195036_1.jpg" arWidth="1280" arHeight="600" duration="0" songTitle="" songArtist="" songAlbum="" songCopyrightUrl="" songArtistUrl="" songAudioFileUrl="" stabilizationMode="0" mediaItemType="2" />
    <MediaItem id="119" filePath="C:\Users\sean walla walla\Desktop\My Life Story\My life story (Modern Journaling folder)\Milestone 2\daily articles\2018\10 October 2018\! Overview\Pictures\All together\20181027195039_1.jpg" arWidth="1280" arHeight="600" duration="0" songTitle="" songArtist="" songAlbum="" songCopyrightUrl="" songArtistUrl="" songAudioFileUrl="" stabilizationMode="0" mediaItemType="2" />
    <MediaItem id="120" filePath="C:\Users\sean walla walla\Desktop\My Life Story\My life story (Modern Journaling folder)\Milestone 2\daily articles\2018\10 October 2018\! Overview\Pictures\All together\20181027195042_1.jpg" arWidth="1280" arHeight="600" duration="0" songTitle="" songArtist="" songAlbum="" songCopyrightUrl="" songArtistUrl="" songAudioFileUrl="" stabilizationMode="0" mediaItemType="2" />
    <MediaItem id="121" filePath="C:\Users\sean walla walla\Desktop\My Life Story\My life story (Modern Journaling folder)\Milestone 2\daily articles\2018\10 October 2018\! Overview\Pictures\All together\20181027195120_1.jpg" arWidth="1280" arHeight="600" duration="0" songTitle="" songArtist="" songAlbum="" songCopyrightUrl="" songArtistUrl="" songAudioFileUrl="" stabilizationMode="0" mediaItemType="2" />
    <MediaItem id="122" filePath="C:\Users\sean walla walla\Desktop\My Life Story\My life story (Modern Journaling folder)\Milestone 2\daily articles\2018\10 October 2018\! Overview\Pictures\All together\20181027195310_1.jpg" arWidth="1280" arHeight="600" duration="0" songTitle="" songArtist="" songAlbum="" songCopyrightUrl="" songArtistUrl="" songAudioFileUrl="" stabilizationMode="0" mediaItemType="2" />
    <MediaItem id="123" filePath="C:\Users\sean walla walla\Desktop\My Life Story\My life story (Modern Journaling folder)\Milestone 2\daily articles\2018\10 October 2018\! Overview\Pictures\All together\AugustAndSeptemberPart2OutroCollection.png" arWidth="261" arHeight="217" duration="0" songTitle="" songArtist="" songAlbum="" songCopyrightUrl="" songArtistUrl="" songAudioFileUrl="" stabilizationMode="0" mediaItemType="2" />
    <MediaItem id="124" filePath="C:\Users\sean walla walla\Desktop\My Life Story\My life story (Modern Journaling folder)\Milestone 2\daily articles\2018\10 October 2018\! Overview\Pictures\All together\AugustAndSeptemberPart2OutroCollectionProperties.png" arWidth="365" arHeight="516" duration="0" songTitle="" songArtist="" songAlbum="" songCopyrightUrl="" songArtistUrl="" songAudioFileUrl="" stabilizationMode="0" mediaItemType="2" />
    <MediaItem id="125" filePath="C:\Users\sean walla walla\Desktop\My Life Story\My life story (Modern Journaling folder)\Milestone 2\daily articles\2018\10 October 2018\! Overview\Pictures\All together\cropopps.PNG" arWidth="661" arHeight="543" duration="0" songTitle="" songArtist="" songAlbum="" songCopyrightUrl="" songArtistUrl="" songAudioFileUrl="" stabilizationMode="0" mediaItemType="2" />
    <MediaItem id="126" filePath="C:\Users\sean walla walla\Desktop\My Life Story\My life story (Modern Journaling folder)\Milestone 2\daily articles\2018\10 October 2018\! Overview\Pictures\All together\daily desktop screenshot 168 October 1st 2018.PNG" arWidth="1366" arHeight="768" duration="0" songTitle="" songArtist="" songAlbum="" songCopyrightUrl="" songArtistUrl="" songAudioFileUrl="" stabilizationMode="0" mediaItemType="2" />
    <MediaItem id="127" filePath="C:\Users\sean walla walla\Desktop\My Life Story\My life story (Modern Journaling folder)\Milestone 2\daily articles\2018\10 October 2018\! Overview\Pictures\All together\daily desktop screenshot 169 October 2nd 2018.PNG" arWidth="1366" arHeight="768" duration="0" songTitle="" songArtist="" songAlbum="" songCopyrightUrl="" songArtistUrl="" songAudioFileUrl="" stabilizationMode="0" mediaItemType="2" />
    <MediaItem id="128" filePath="C:\Users\sean walla walla\Desktop\My Life Story\My life story (Modern Journaling folder)\Milestone 2\daily articles\2018\10 October 2018\! Overview\Pictures\All together\daily desktop screenshot 170 October 3rd 2018.PNG" arWidth="1366" arHeight="768" duration="0" songTitle="" songArtist="" songAlbum="" songCopyrightUrl="" songArtistUrl="" songAudioFileUrl="" stabilizationMode="0" mediaItemType="2" />
    <MediaItem id="129" filePath="C:\Users\sean walla walla\Desktop\My Life Story\My life story (Modern Journaling folder)\Milestone 2\daily articles\2018\10 October 2018\! Overview\Pictures\All together\daily desktop screenshot 171 October 4th 2018.PNG" arWidth="1366" arHeight="768" duration="0" songTitle="" songArtist="" songAlbum="" songCopyrightUrl="" songArtistUrl="" songAudioFileUrl="" stabilizationMode="0" mediaItemType="2" />
    <MediaItem id="130" filePath="C:\Users\sean walla walla\Desktop\My Life Story\My life story (Modern Journaling folder)\Milestone 2\daily articles\2018\10 October 2018\! Overview\Pictures\All together\daily desktop screenshot 172 October 5th 2018.PNG" arWidth="1366" arHeight="768" duration="0" songTitle="" songArtist="" songAlbum="" songCopyrightUrl="" songArtistUrl="" songAudioFileUrl="" stabilizationMode="0" mediaItemType="2" />
    <MediaItem id="131" filePath="C:\Users\sean walla walla\Desktop\My Life Story\My life story (Modern Journaling folder)\Milestone 2\daily articles\2018\10 October 2018\! Overview\Pictures\All together\daily desktop screenshot 173 October 6th 2018.PNG" arWidth="1366" arHeight="768" duration="0" songTitle="" songArtist="" songAlbum="" songCopyrightUrl="" songArtistUrl="" songAudioFileUrl="" stabilizationMode="0" mediaItemType="2" />
    <MediaItem id="132" filePath="C:\Users\sean walla walla\Desktop\My Life Story\My life story (Modern Journaling folder)\Milestone 2\daily articles\2018\10 October 2018\! Overview\Pictures\All together\daily desktop screenshot 174 October 7th 2018.PNG" arWidth="1366" arHeight="768" duration="0" songTitle="" songArtist="" songAlbum="" songCopyrightUrl="" songArtistUrl="" songAudioFileUrl="" stabilizationMode="0" mediaItemType="2" />
    <MediaItem id="133" filePath="C:\Users\sean walla walla\Desktop\My Life Story\My life story (Modern Journaling folder)\Milestone 2\daily articles\2018\10 October 2018\! Overview\Pictures\All together\daily desktop screenshot 175 October 8th 2018.PNG" arWidth="1366" arHeight="768" duration="0" songTitle="" songArtist="" songAlbum="" songCopyrightUrl="" songArtistUrl="" songAudioFileUrl="" stabilizationMode="0" mediaItemType="2" />
    <MediaItem id="134" filePath="C:\Users\sean walla walla\Desktop\My Life Story\My life story (Modern Journaling folder)\Milestone 2\daily articles\2018\10 October 2018\! Overview\Pictures\All together\daily desktop screenshot 176 October 9th 2018.PNG" arWidth="1366" arHeight="767" duration="0" songTitle="" songArtist="" songAlbum="" songCopyrightUrl="" songArtistUrl="" songAudioFileUrl="" stabilizationMode="0" mediaItemType="2" />
    <MediaItem id="135" filePath="C:\Users\sean walla walla\Desktop\My Life Story\My life story (Modern Journaling folder)\Milestone 2\daily articles\2018\10 October 2018\! Overview\Pictures\All together\daily desktop screenshot 177 October 10th 2018.PNG" arWidth="1366" arHeight="768" duration="0" songTitle="" songArtist="" songAlbum="" songCopyrightUrl="" songArtistUrl="" songAudioFileUrl="" stabilizationMode="0" mediaItemType="2" />
    <MediaItem id="136" filePath="C:\Users\sean walla walla\Desktop\My Life Story\My life story (Modern Journaling folder)\Milestone 2\daily articles\2018\10 October 2018\! Overview\Pictures\All together\daily desktop screenshot 178 October 11th 2018.PNG" arWidth="1366" arHeight="768" duration="0" songTitle="" songArtist="" songAlbum="" songCopyrightUrl="" songArtistUrl="" songAudioFileUrl="" stabilizationMode="0" mediaItemType="2" />
    <MediaItem id="137" filePath="C:\Users\sean walla walla\Desktop\My Life Story\My life story (Modern Journaling folder)\Milestone 2\daily articles\2018\10 October 2018\! Overview\Pictures\All together\daily desktop screenshot 179 October 12th 2018.PNG" arWidth="1366" arHeight="768" duration="0" songTitle="" songArtist="" songAlbum="" songCopyrightUrl="" songArtistUrl="" songAudioFileUrl="" stabilizationMode="0" mediaItemType="2" />
    <MediaItem id="138" filePath="C:\Users\sean walla walla\Desktop\My Life Story\My life story (Modern Journaling folder)\Milestone 2\daily articles\2018\10 October 2018\! Overview\Pictures\All together\daily desktop screenshot 180 October 13th 2018.PNG" arWidth="1366" arHeight="768" duration="0" songTitle="" songArtist="" songAlbum="" songCopyrightUrl="" songArtistUrl="" songAudioFileUrl="" stabilizationMode="0" mediaItemType="2" />
    <MediaItem id="139" filePath="C:\Users\sean walla walla\Desktop\My Life Story\My life story (Modern Journaling folder)\Milestone 2\daily articles\2018\10 October 2018\! Overview\Pictures\All together\daily desktop screenshot 181 October 14th 2018.PNG" arWidth="1366" arHeight="768" duration="0" songTitle="" songArtist="" songAlbum="" songCopyrightUrl="" songArtistUrl="" songAudioFileUrl="" stabilizationMode="0" mediaItemType="2" />
    <MediaItem id="140" filePath="C:\Users\sean walla walla\Desktop\My Life Story\My life story (Modern Journaling folder)\Milestone 2\daily articles\2018\10 October 2018\! Overview\Pictures\All together\daily desktop screenshot 182 October 15th 2018.PNG" arWidth="1366" arHeight="768" duration="0" songTitle="" songArtist="" songAlbum="" songCopyrightUrl="" songArtistUrl="" songAudioFileUrl="" stabilizationMode="0" mediaItemType="2" />
    <MediaItem id="141" filePath="C:\Users\sean walla walla\Desktop\My Life Story\My life story (Modern Journaling folder)\Milestone 2\daily articles\2018\10 October 2018\! Overview\Pictures\All together\daily desktop screenshot 183 October 16th 2018.PNG" arWidth="1366" arHeight="768" duration="0" songTitle="" songArtist="" songAlbum="" songCopyrightUrl="" songArtistUrl="" songAudioFileUrl="" stabilizationMode="0" mediaItemType="2" />
    <MediaItem id="142" filePath="C:\Users\sean walla walla\Desktop\My Life Story\My life story (Modern Journaling folder)\Milestone 2\daily articles\2018\10 October 2018\! Overview\Pictures\All together\daily desktop screenshot 184 October 17th 2018.PNG" arWidth="1365" arHeight="768" duration="0" songTitle="" songArtist="" songAlbum="" songCopyrightUrl="" songArtistUrl="" songAudioFileUrl="" stabilizationMode="0" mediaItemType="2" />
    <MediaItem id="143" filePath="C:\Users\sean walla walla\Desktop\My Life Story\My life story (Modern Journaling folder)\Milestone 2\daily articles\2018\10 October 2018\! Overview\Pictures\All together\daily desktop screenshot 185 October 18th 2018.PNG" arWidth="1366" arHeight="770" duration="0" songTitle="" songArtist="" songAlbum="" songCopyrightUrl="" songArtistUrl="" songAudioFileUrl="" stabilizationMode="0" mediaItemType="2" />
    <MediaItem id="144" filePath="C:\Users\sean walla walla\Desktop\My Life Story\My life story (Modern Journaling folder)\Milestone 2\daily articles\2018\10 October 2018\! Overview\Pictures\All together\daily desktop screenshot 186 October 19th 2018.PNG" arWidth="1366" arHeight="768" duration="0" songTitle="" songArtist="" songAlbum="" songCopyrightUrl="" songArtistUrl="" songAudioFileUrl="" stabilizationMode="0" mediaItemType="2" />
    <MediaItem id="145" filePath="C:\Users\sean walla walla\Desktop\My Life Story\My life story (Modern Journaling folder)\Milestone 2\daily articles\2018\10 October 2018\! Overview\Pictures\All together\daily desktop screenshot 187 October 20th 2018.PNG" arWidth="1366" arHeight="768" duration="0" songTitle="" songArtist="" songAlbum="" songCopyrightUrl="" songArtistUrl="" songAudioFileUrl="" stabilizationMode="0" mediaItemType="2" />
    <MediaItem id="146" filePath="C:\Users\sean walla walla\Desktop\My Life Story\My life story (Modern Journaling folder)\Milestone 2\daily articles\2018\10 October 2018\! Overview\Pictures\All together\daily desktop screenshot 188 October 21st 2018.PNG" arWidth="1366" arHeight="768" duration="0" songTitle="" songArtist="" songAlbum="" songCopyrightUrl="" songArtistUrl="" songAudioFileUrl="" stabilizationMode="0" mediaItemType="2" />
    <MediaItem id="147" filePath="C:\Users\sean walla walla\Desktop\My Life Story\My life story (Modern Journaling folder)\Milestone 2\daily articles\2018\10 October 2018\! Overview\Pictures\All together\daily desktop screenshot 189 October 22nd 2018.PNG" arWidth="1366" arHeight="768" duration="0" songTitle="" songArtist="" songAlbum="" songCopyrightUrl="" songArtistUrl="" songAudioFileUrl="" stabilizationMode="0" mediaItemType="2" />
    <MediaItem id="148" filePath="C:\Users\sean walla walla\Desktop\My Life Story\My life story (Modern Journaling folder)\Milestone 2\daily articles\2018\10 October 2018\! Overview\Pictures\All together\daily desktop screenshot 190 October 23rd 2018.PNG" arWidth="1366" arHeight="768" duration="0" songTitle="" songArtist="" songAlbum="" songCopyrightUrl="" songArtistUrl="" songAudioFileUrl="" stabilizationMode="0" mediaItemType="2" />
    <MediaItem id="149" filePath="C:\Users\sean walla walla\Desktop\My Life Story\My life story (Modern Journaling folder)\Milestone 2\daily articles\2018\10 October 2018\! Overview\Pictures\All together\daily desktop screenshot 191 October 24th 2018.PNG" arWidth="1366" arHeight="768" duration="0" songTitle="" songArtist="" songAlbum="" songCopyrightUrl="" songArtistUrl="" songAudioFileUrl="" stabilizationMode="0" mediaItemType="2" />
    <MediaItem id="150" filePath="C:\Users\sean walla walla\Desktop\My Life Story\My life story (Modern Journaling folder)\Milestone 2\daily articles\2018\10 October 2018\! Overview\Pictures\All together\daily desktop screenshot 192 October 25th 2018.PNG" arWidth="1366" arHeight="768" duration="0" songTitle="" songArtist="" songAlbum="" songCopyrightUrl="" songArtistUrl="" songAudioFileUrl="" stabilizationMode="0" mediaItemType="2" />
    <MediaItem id="151" filePath="C:\Users\sean walla walla\Desktop\My Life Story\My life story (Modern Journaling folder)\Milestone 2\daily articles\2018\10 October 2018\! Overview\Pictures\All together\daily desktop screenshot 193 October 26th 2018.PNG" arWidth="1366" arHeight="768" duration="0" songTitle="" songArtist="" songAlbum="" songCopyrightUrl="" songArtistUrl="" songAudioFileUrl="" stabilizationMode="0" mediaItemType="2" />
    <MediaItem id="152" filePath="C:\Users\sean walla walla\Desktop\My Life Story\My life story (Modern Journaling folder)\Milestone 2\daily articles\2018\10 October 2018\! Overview\Pictures\All together\daily desktop screenshot 194 October 27th 2018.PNG" arWidth="1366" arHeight="768" duration="0" songTitle="" songArtist="" songAlbum="" songCopyrightUrl="" songArtistUrl="" songAudioFileUrl="" stabilizationMode="0" mediaItemType="2" />
    <MediaItem id="153" filePath="C:\Users\sean walla walla\Desktop\My Life Story\My life story (Modern Journaling folder)\Milestone 2\daily articles\2018\10 October 2018\! Overview\Pictures\All together\daily desktop screenshot 195 October 28th 2018.PNG" arWidth="1366" arHeight="768" duration="0" songTitle="" songArtist="" songAlbum="" songCopyrightUrl="" songArtistUrl="" songAudioFileUrl="" stabilizationMode="0" mediaItemType="2" />
    <MediaItem id="154" filePath="C:\Users\sean walla walla\Desktop\My Life Story\My life story (Modern Journaling folder)\Milestone 2\daily articles\2018\10 October 2018\! Overview\Pictures\All together\daily desktop screenshot 196 October 29th 2018.PNG" arWidth="1366" arHeight="768" duration="0" songTitle="" songArtist="" songAlbum="" songCopyrightUrl="" songArtistUrl="" songAudioFileUrl="" stabilizationMode="0" mediaItemType="2" />
    <MediaItem id="155" filePath="C:\Users\sean walla walla\Desktop\My Life Story\My life story (Modern Journaling folder)\Milestone 2\daily articles\2018\10 October 2018\! Overview\Pictures\All together\daily desktop screenshot 197 October 30th 2018.PNG" arWidth="1366" arHeight="768" duration="0" songTitle="" songArtist="" songAlbum="" songCopyrightUrl="" songArtistUrl="" songAudioFileUrl="" stabilizationMode="0" mediaItemType="2" />
    <MediaItem id="156" filePath="C:\Users\sean walla walla\Desktop\My Life Story\My life story (Modern Journaling folder)\Milestone 2\daily articles\2018\10 October 2018\! Overview\Pictures\All together\daily desktop screenshot 198 October 31st 2018.PNG" arWidth="1366" arHeight="768" duration="0" songTitle="" songArtist="" songAlbum="" songCopyrightUrl="" songArtistUrl="" songAudioFileUrl="" stabilizationMode="0" mediaItemType="2" />
    <MediaItem id="157" filePath="C:\Users\sean walla walla\Desktop\My Life Story\My life story (Modern Journaling folder)\Milestone 2\daily articles\2018\10 October 2018\! Overview\Pictures\All together\download (7).jpg" arWidth="1280" arHeight="720" duration="0" songTitle="" songArtist="" songAlbum="" songCopyrightUrl="" songArtistUrl="" songAudioFileUrl="" stabilizationMode="0" mediaItemType="2" />
    <MediaItem id="158" filePath="C:\Users\sean walla walla\Desktop\My Life Story\My life story (Modern Journaling folder)\Milestone 2\daily articles\2018\10 October 2018\! Overview\Pictures\All together\existentialcrisis.PNG" arWidth="683" arHeight="518" duration="0" songTitle="" songArtist="" songAlbum="" songCopyrightUrl="" songArtistUrl="" songAudioFileUrl="" stabilizationMode="0" mediaItemType="2" />
    <MediaItem id="159" filePath="C:\Users\sean walla walla\Desktop\My Life Story\My life story (Modern Journaling folder)\Milestone 2\daily articles\2018\10 October 2018\! Overview\Pictures\All together\intro (2).png" arWidth="1920" arHeight="1080" duration="0" songTitle="" songArtist="" songAlbum="" songCopyrightUrl="" songArtistUrl="" songAudioFileUrl="" stabilizationMode="0" mediaItemType="2" />
    <MediaItem id="160" filePath="C:\Users\sean walla walla\Desktop\My Life Story\My life story (Modern Journaling folder)\Milestone 2\daily articles\2018\10 October 2018\! Overview\Pictures\All together\intro (3).png" arWidth="1920" arHeight="1080" duration="0" songTitle="" songArtist="" songAlbum="" songCopyrightUrl="" songArtistUrl="" songAudioFileUrl="" stabilizationMode="0" mediaItemType="2" />
    <MediaItem id="161" filePath="C:\Users\sean walla walla\Desktop\My Life Story\My life story (Modern Journaling folder)\Milestone 2\daily articles\2018\10 October 2018\! Overview\Pictures\All together\intro.png" arWidth="1920" arHeight="1080" duration="0" songTitle="" songArtist="" songAlbum="" songCopyrightUrl="" songArtistUrl="" songAudioFileUrl="" stabilizationMode="0" mediaItemType="2" />
    <MediaItem id="162" filePath="C:\Users\sean walla walla\Desktop\My Life Story\My life story (Modern Journaling folder)\Milestone 2\daily articles\2018\10 October 2018\! Overview\Pictures\All together\Itprettymuchgivesyoutheanswer.PNG" arWidth="646" arHeight="390" duration="0" songTitle="" songArtist="" songAlbum="" songCopyrightUrl="" songArtistUrl="" songAudioFileUrl="" stabilizationMode="0" mediaItemType="2" />
    <MediaItem id="163" filePath="C:\Users\sean walla walla\Desktop\My Life Story\My life story (Modern Journaling folder)\Milestone 2\daily articles\2018\10 October 2018\! Overview\Pictures\All together\Lord hell.png" arWidth="704" arHeight="224" duration="0" songTitle="" songArtist="" songAlbum="" songCopyrightUrl="" songArtistUrl="" songAudioFileUrl="" stabilizationMode="0" mediaItemType="2" />
    <MediaItem id="164" filePath="C:\Users\sean walla walla\Desktop\My Life Story\My life story (Modern Journaling folder)\Milestone 2\daily articles\2018\10 October 2018\! Overview\Pictures\All together\october2018journalingpart1properties.PNG" arWidth="364" arHeight="517" duration="0" songTitle="" songArtist="" songAlbum="" songCopyrightUrl="" songArtistUrl="" songAudioFileUrl="" stabilizationMode="0" mediaItemType="2" />
    <MediaItem id="165" filePath="C:\Users\sean walla walla\Desktop\My Life Story\My life story (Modern Journaling folder)\Milestone 2\daily articles\2018\10 October 2018\! Overview\Pictures\All together\october2018journalingpart1stats.PNG" arWidth="259" arHeight="220" duration="0" songTitle="" songArtist="" songAlbum="" songCopyrightUrl="" songArtistUrl="" songAudioFileUrl="" stabilizationMode="0" mediaItemType="2" />
    <MediaItem id="166" filePath="C:\Users\sean walla walla\Desktop\My Life Story\My life story (Modern Journaling folder)\Milestone 2\daily articles\2018\10 October 2018\! Overview\Pictures\All together\october2018outropart1properties.PNG" arWidth="367" arHeight="513" duration="0" songTitle="" songArtist="" songAlbum="" songCopyrightUrl="" songArtistUrl="" songAudioFileUrl="" stabilizationMode="0" mediaItemType="2" />
    <MediaItem id="167" filePath="C:\Users\sean walla walla\Desktop\My Life Story\My life story (Modern Journaling folder)\Milestone 2\daily articles\2018\10 October 2018\! Overview\Pictures\All together\october2018outropart1stats.PNG" arWidth="259" arHeight="217" duration="0" songTitle="" songArtist="" songAlbum="" songCopyrightUrl="" songArtistUrl="" songAudioFileUrl="" stabilizationMode="0" mediaItemType="2" />
    <MediaItem id="168" filePath="C:\Users\sean walla walla\Desktop\My Life Story\My life story (Modern Journaling folder)\Milestone 2\daily articles\2018\10 October 2018\! Overview\Pictures\All together\OneNote organization overview 10.1.2018.PNG" arWidth="1366" arHeight="710" duration="0" songTitle="" songArtist="" songAlbum="" songCopyrightUrl="" songArtistUrl="" songAudioFileUrl="" stabilizationMode="0" mediaItemType="2" />
    <MediaItem id="169" filePath="C:\Users\sean walla walla\Desktop\My Life Story\My life story (Modern Journaling folder)\Milestone 2\daily articles\2018\10 October 2018\! Overview\Pictures\All together\QUAD3POLYOTHER.png" arWidth="664" arHeight="231" duration="0" songTitle="" songArtist="" songAlbum="" songCopyrightUrl="" songArtistUrl="" songAudioFileUrl="" stabilizationMode="0" mediaItemType="2" />
    <MediaItem id="170" filePath="C:\Users\sean walla walla\Desktop\My Life Story\My life story (Modern Journaling folder)\Milestone 2\daily articles\2018\10 October 2018\! Overview\Pictures\All together\rectazoid.PNG" arWidth="677" arHeight="523" duration="0" songTitle="" songArtist="" songAlbum="" songCopyrightUrl="" songArtistUrl="" songAudioFileUrl="" stabilizationMode="0" mediaItemType="2" />
    <MediaItem id="171" filePath="C:\Users\sean walla walla\Desktop\My Life Story\My life story (Modern Journaling folder)\Milestone 2\daily articles\2018\10 October 2018\! Overview\Pictures\All together\Restartedfailure.PNG" arWidth="684" arHeight="513" duration="0" songTitle="" songArtist="" songAlbum="" songCopyrightUrl="" songArtistUrl="" songAudioFileUrl="" stabilizationMode="0" mediaItemType="2" />
    <MediaItem id="172" filePath="C:\Users\sean walla walla\Desktop\My Life Story\My life story (Modern Journaling folder)\Milestone 2\daily articles\2018\10 October 2018\! Overview\Pictures\All together\School Wi-Fi at home.png" arWidth="1366" arHeight="768" duration="0" songTitle="" songArtist="" songAlbum="" songCopyrightUrl="" songArtistUrl="" songAudioFileUrl="" stabilizationMode="0" mediaItemType="2" />
    <MediaItem id="173" filePath="C:\Users\sean walla walla\Desktop\My Life Story\My life story (Modern Journaling folder)\Milestone 2\daily articles\2018\10 October 2018\! Overview\Pictures\All together\Screenshot_20181001-041011_Plants Vs Zombies 2.jpg" arWidth="2560" arHeight="1440" duration="0" songTitle="" songArtist="" songAlbum="" songCopyrightUrl="" songArtistUrl="" songAudioFileUrl="" stabilizationMode="0" mediaItemType="2" />
    <MediaItem id="174" filePath="C:\Users\sean walla walla\Desktop\My Life Story\My life story (Modern Journaling folder)\Milestone 2\daily articles\2018\10 October 2018\! Overview\Pictures\All together\Screenshot_20181001-043034_Plants Vs Zombies 2.jpg" arWidth="2560" arHeight="1440" duration="0" songTitle="" songArtist="" songAlbum="" songCopyrightUrl="" songArtistUrl="" songAudioFileUrl="" stabilizationMode="0" mediaItemType="2" />
    <MediaItem id="175" filePath="C:\Users\sean walla walla\Desktop\My Life Story\My life story (Modern Journaling folder)\Milestone 2\daily articles\2018\10 October 2018\! Overview\Pictures\All together\Screenshot_20181001-043113_AdCap!.jpg" arWidth="2560" arHeight="1440" duration="0" songTitle="" songArtist="" songAlbum="" songCopyrightUrl="" songArtistUrl="" songAudioFileUrl="" stabilizationMode="0" mediaItemType="2" />
    <MediaItem id="176" filePath="C:\Users\sean walla walla\Desktop\My Life Story\My life story (Modern Journaling folder)\Milestone 2\daily articles\2018\10 October 2018\! Overview\Pictures\All together\Screenshot_20181001-043157_AdCap!.jpg" arWidth="2560" arHeight="1440" duration="0" songTitle="" songArtist="" songAlbum="" songCopyrightUrl="" songArtistUrl="" songAudioFileUrl="" stabilizationMode="0" mediaItemType="2" />
    <MediaItem id="177" filePath="C:\Users\sean walla walla\Desktop\My Life Story\My life story (Modern Journaling folder)\Milestone 2\daily articles\2018\10 October 2018\! Overview\Pictures\All together\Screenshot_20181001-043254_AdCap!.jpg" arWidth="2560" arHeight="1440" duration="0" songTitle="" songArtist="" songAlbum="" songCopyrightUrl="" songArtistUrl="" songAudioFileUrl="" stabilizationMode="0" mediaItemType="2" />
    <MediaItem id="178" filePath="C:\Users\sean walla walla\Desktop\My Life Story\My life story (Modern Journaling folder)\Milestone 2\daily articles\2018\10 October 2018\! Overview\Pictures\All together\Screenshot_20181001-043302_AdCap!.jpg" arWidth="2560" arHeight="1440" duration="0" songTitle="" songArtist="" songAlbum="" songCopyrightUrl="" songArtistUrl="" songAudioFileUrl="" stabilizationMode="0" mediaItemType="2" />
    <MediaItem id="179" filePath="C:\Users\sean walla walla\Desktop\My Life Story\My life story (Modern Journaling folder)\Milestone 2\daily articles\2018\10 October 2018\! Overview\Pictures\All together\Screenshot_20181001-043307_AdCap!.jpg" arWidth="2560" arHeight="1440" duration="0" songTitle="" songArtist="" songAlbum="" songCopyrightUrl="" songArtistUrl="" songAudioFileUrl="" stabilizationMode="0" mediaItemType="2" />
    <MediaItem id="180" filePath="C:\Users\sean walla walla\Desktop\My Life Story\My life story (Modern Journaling folder)\Milestone 2\daily articles\2018\10 October 2018\! Overview\Pictures\All together\Screenshot_20181001-043824_AdCap!.jpg" arWidth="2560" arHeight="1440" duration="0" songTitle="" songArtist="" songAlbum="" songCopyrightUrl="" songArtistUrl="" songAudioFileUrl="" stabilizationMode="0" mediaItemType="2" />
    <MediaItem id="181" filePath="C:\Users\sean walla walla\Desktop\My Life Story\My life story (Modern Journaling folder)\Milestone 2\daily articles\2018\10 October 2018\! Overview\Pictures\All together\Screenshot_20181001-043851_Merge Plane.jpg" arWidth="1440" arHeight="2560" duration="0" songTitle="" songArtist="" songAlbum="" songCopyrightUrl="" songArtistUrl="" songAudioFileUrl="" stabilizationMode="0" mediaItemType="2" />
    <MediaItem id="182" filePath="C:\Users\sean walla walla\Desktop\My Life Story\My life story (Modern Journaling folder)\Milestone 2\daily articles\2018\10 October 2018\! Overview\Pictures\All together\Screenshot_20181001-043931_Merge Plane.jpg" arWidth="1440" arHeight="2560" duration="0" songTitle="" songArtist="" songAlbum="" songCopyrightUrl="" songArtistUrl="" songAudioFileUrl="" stabilizationMode="0" mediaItemType="2" />
    <MediaItem id="183" filePath="C:\Users\sean walla walla\Desktop\My Life Story\My life story (Modern Journaling folder)\Milestone 2\daily articles\2018\10 October 2018\! Overview\Pictures\All together\Screenshot_20181001-050146_Merge Plane.jpg" arWidth="1440" arHeight="2560" duration="0" songTitle="" songArtist="" songAlbum="" songCopyrightUrl="" songArtistUrl="" songAudioFileUrl="" stabilizationMode="0" mediaItemType="2" />
    <MediaItem id="184" filePath="C:\Users\sean walla walla\Desktop\My Life Story\My life story (Modern Journaling folder)\Milestone 2\daily articles\2018\10 October 2018\! Overview\Pictures\All together\Screenshot_20181001-050150_Merge Plane.jpg" arWidth="1440" arHeight="2560" duration="0" songTitle="" songArtist="" songAlbum="" songCopyrightUrl="" songArtistUrl="" songAudioFileUrl="" stabilizationMode="0" mediaItemType="2" />
    <MediaItem id="185" filePath="C:\Users\sean walla walla\Desktop\My Life Story\My life story (Modern Journaling folder)\Milestone 2\daily articles\2018\10 October 2018\! Overview\Pictures\All together\Screenshot_20181001-050154_Merge Plane.jpg" arWidth="1440" arHeight="2560" duration="0" songTitle="" songArtist="" songAlbum="" songCopyrightUrl="" songArtistUrl="" songAudioFileUrl="" stabilizationMode="0" mediaItemType="2" />
    <MediaItem id="186" filePath="C:\Users\sean walla walla\Desktop\My Life Story\My life story (Modern Journaling folder)\Milestone 2\daily articles\2018\10 October 2018\! Overview\Pictures\All together\Screenshot_20181001-050200_Merge Plane.jpg" arWidth="1440" arHeight="2560" duration="0" songTitle="" songArtist="" songAlbum="" songCopyrightUrl="" songArtistUrl="" songAudioFileUrl="" stabilizationMode="0" mediaItemType="2" />
    <MediaItem id="187" filePath="C:\Users\sean walla walla\Desktop\My Life Story\My life story (Modern Journaling folder)\Milestone 2\daily articles\2018\10 October 2018\! Overview\Pictures\All together\Screenshot_20181001-141315_Merge Plane.jpg" arWidth="1440" arHeight="2560" duration="0" songTitle="" songArtist="" songAlbum="" songCopyrightUrl="" songArtistUrl="" songAudioFileUrl="" stabilizationMode="0" mediaItemType="2" />
    <MediaItem id="188" filePath="C:\Users\sean walla walla\Desktop\My Life Story\My life story (Modern Journaling folder)\Milestone 2\daily articles\2018\10 October 2018\! Overview\Pictures\All together\Screenshot_20181001-141323_Merge Plane.jpg" arWidth="1440" arHeight="2560" duration="0" songTitle="" songArtist="" songAlbum="" songCopyrightUrl="" songArtistUrl="" songAudioFileUrl="" stabilizationMode="0" mediaItemType="2" />
    <MediaItem id="189" filePath="C:\Users\sean walla walla\Desktop\My Life Story\My life story (Modern Journaling folder)\Milestone 2\daily articles\2018\10 October 2018\! Overview\Pictures\All together\Screenshot_20181001-144221_Merge Plane.jpg" arWidth="1440" arHeight="2560" duration="0" songTitle="" songArtist="" songAlbum="" songCopyrightUrl="" songArtistUrl="" songAudioFileUrl="" stabilizationMode="0" mediaItemType="2" />
    <MediaItem id="190" filePath="C:\Users\sean walla walla\Desktop\My Life Story\My life story (Modern Journaling folder)\Milestone 2\daily articles\2018\10 October 2018\! Overview\Pictures\All together\Screenshot_20181001-144227_Merge Plane.jpg" arWidth="1440" arHeight="2560" duration="0" songTitle="" songArtist="" songAlbum="" songCopyrightUrl="" songArtistUrl="" songAudioFileUrl="" stabilizationMode="0" mediaItemType="2" />
    <MediaItem id="191" filePath="C:\Users\sean walla walla\Desktop\My Life Story\My life story (Modern Journaling folder)\Milestone 2\daily articles\2018\10 October 2018\! Overview\Pictures\All together\Screenshot_20181001-144231_Merge Plane.jpg" arWidth="1440" arHeight="2560" duration="0" songTitle="" songArtist="" songAlbum="" songCopyrightUrl="" songArtistUrl="" songAudioFileUrl="" stabilizationMode="0" mediaItemType="2" />
    <MediaItem id="192" filePath="C:\Users\sean walla walla\Desktop\My Life Story\My life story (Modern Journaling folder)\Milestone 2\daily articles\2018\10 October 2018\! Overview\Pictures\All together\Screenshot_20181001-144238_Merge Plane.jpg" arWidth="1440" arHeight="2560" duration="0" songTitle="" songArtist="" songAlbum="" songCopyrightUrl="" songArtistUrl="" songAudioFileUrl="" stabilizationMode="0" mediaItemType="2" />
    <MediaItem id="193" filePath="C:\Users\sean walla walla\Desktop\My Life Story\My life story (Modern Journaling folder)\Milestone 2\daily articles\2018\10 October 2018\! Overview\Pictures\All together\Screenshot_20181002-040752_Plants Vs Zombies 2.jpg" arWidth="2560" arHeight="1440" duration="0" songTitle="" songArtist="" songAlbum="" songCopyrightUrl="" songArtistUrl="" songAudioFileUrl="" stabilizationMode="0" mediaItemType="2" />
    <MediaItem id="194" filePath="C:\Users\sean walla walla\Desktop\My Life Story\My life story (Modern Journaling folder)\Milestone 2\daily articles\2018\10 October 2018\! Overview\Pictures\All together\Screenshot_20181002-043136_Plants Vs Zombies 2.jpg" arWidth="2560" arHeight="1440" duration="0" songTitle="" songArtist="" songAlbum="" songCopyrightUrl="" songArtistUrl="" songAudioFileUrl="" stabilizationMode="0" mediaItemType="2" />
    <MediaItem id="195" filePath="C:\Users\sean walla walla\Desktop\My Life Story\My life story (Modern Journaling folder)\Milestone 2\daily articles\2018\10 October 2018\! Overview\Pictures\All together\Screenshot_20181002-043216_AdCap!.jpg" arWidth="2560" arHeight="1440" duration="0" songTitle="" songArtist="" songAlbum="" songCopyrightUrl="" songArtistUrl="" songAudioFileUrl="" stabilizationMode="0" mediaItemType="2" />
    <MediaItem id="196" filePath="C:\Users\sean walla walla\Desktop\My Life Story\My life story (Modern Journaling folder)\Milestone 2\daily articles\2018\10 October 2018\! Overview\Pictures\All together\Screenshot_20181002-043307_AdCap!.jpg" arWidth="2560" arHeight="1440" duration="0" songTitle="" songArtist="" songAlbum="" songCopyrightUrl="" songArtistUrl="" songAudioFileUrl="" stabilizationMode="0" mediaItemType="2" />
    <MediaItem id="197" filePath="C:\Users\sean walla walla\Desktop\My Life Story\My life story (Modern Journaling folder)\Milestone 2\daily articles\2018\10 October 2018\! Overview\Pictures\All together\Screenshot_20181002-043329_AdCap!.jpg" arWidth="2560" arHeight="1440" duration="0" songTitle="" songArtist="" songAlbum="" songCopyrightUrl="" songArtistUrl="" songAudioFileUrl="" stabilizationMode="0" mediaItemType="2" />
    <MediaItem id="198" filePath="C:\Users\sean walla walla\Desktop\My Life Story\My life story (Modern Journaling folder)\Milestone 2\daily articles\2018\10 October 2018\! Overview\Pictures\All together\Screenshot_20181002-043339_AdCap!.jpg" arWidth="2560" arHeight="1440" duration="0" songTitle="" songArtist="" songAlbum="" songCopyrightUrl="" songArtistUrl="" songAudioFileUrl="" stabilizationMode="0" mediaItemType="2" />
    <MediaItem id="199" filePath="C:\Users\sean walla walla\Desktop\My Life Story\My life story (Modern Journaling folder)\Milestone 2\daily articles\2018\10 October 2018\! Overview\Pictures\All together\Screenshot_20181002-043343_AdCap!.jpg" arWidth="2560" arHeight="1440" duration="0" songTitle="" songArtist="" songAlbum="" songCopyrightUrl="" songArtistUrl="" songAudioFileUrl="" stabilizationMode="0" mediaItemType="2" />
    <MediaItem id="200" filePath="C:\Users\sean walla walla\Desktop\My Life Story\My life story (Modern Journaling folder)\Milestone 2\daily articles\2018\10 October 2018\! Overview\Pictures\All together\Screenshot_20181002-043353_AdCap!.jpg" arWidth="2560" arHeight="1440" duration="0" songTitle="" songArtist="" songAlbum="" songCopyrightUrl="" songArtistUrl="" songAudioFileUrl="" stabilizationMode="0" mediaItemType="2" />
    <MediaItem id="201" filePath="C:\Users\sean walla walla\Desktop\My Life Story\My life story (Modern Journaling folder)\Milestone 2\daily articles\2018\10 October 2018\! Overview\Pictures\All together\Screenshot_20181002-043418_Merge Plane.jpg" arWidth="1440" arHeight="2560" duration="0" songTitle="" songArtist="" songAlbum="" songCopyrightUrl="" songArtistUrl="" songAudioFileUrl="" stabilizationMode="0" mediaItemType="2" />
    <MediaItem id="202" filePath="C:\Users\sean walla walla\Desktop\My Life Story\My life story (Modern Journaling folder)\Milestone 2\daily articles\2018\10 October 2018\! Overview\Pictures\All together\Screenshot_20181002-043507_Merge Plane.jpg" arWidth="1440" arHeight="2560" duration="0" songTitle="" songArtist="" songAlbum="" songCopyrightUrl="" songArtistUrl="" songAudioFileUrl="" stabilizationMode="0" mediaItemType="2" />
    <MediaItem id="203" filePath="C:\Users\sean walla walla\Desktop\My Life Story\My life story (Modern Journaling folder)\Milestone 2\daily articles\2018\10 October 2018\! Overview\Pictures\All together\Screenshot_20181002-045853_Merge Plane.jpg" arWidth="1440" arHeight="2560" duration="0" songTitle="" songArtist="" songAlbum="" songCopyrightUrl="" songArtistUrl="" songAudioFileUrl="" stabilizationMode="0" mediaItemType="2" />
    <MediaItem id="204" filePath="C:\Users\sean walla walla\Desktop\My Life Story\My life story (Modern Journaling folder)\Milestone 2\daily articles\2018\10 October 2018\! Overview\Pictures\All together\Screenshot_20181002-045859_Merge Plane.jpg" arWidth="1440" arHeight="2560" duration="0" songTitle="" songArtist="" songAlbum="" songCopyrightUrl="" songArtistUrl="" songAudioFileUrl="" stabilizationMode="0" mediaItemType="2" />
    <MediaItem id="205" filePath="C:\Users\sean walla walla\Desktop\My Life Story\My life story (Modern Journaling folder)\Milestone 2\daily articles\2018\10 October 2018\! Overview\Pictures\All together\Screenshot_20181002-045903_Merge Plane.jpg" arWidth="1440" arHeight="2560" duration="0" songTitle="" songArtist="" songAlbum="" songCopyrightUrl="" songArtistUrl="" songAudioFileUrl="" stabilizationMode="0" mediaItemType="2" />
    <MediaItem id="206" filePath="C:\Users\sean walla walla\Desktop\My Life Story\My life story (Modern Journaling folder)\Milestone 2\daily articles\2018\10 October 2018\! Overview\Pictures\All together\Screenshot_20181002-045913_Merge Plane.jpg" arWidth="1440" arHeight="2560" duration="0" songTitle="" songArtist="" songAlbum="" songCopyrightUrl="" songArtistUrl="" songAudioFileUrl="" stabilizationMode="0" mediaItemType="2" />
    <MediaItem id="207" filePath="C:\Users\sean walla walla\Desktop\My Life Story\My life story (Modern Journaling folder)\Milestone 2\daily articles\2018\10 October 2018\! Overview\Pictures\All together\Screenshot_20181003-035544_Plants Vs Zombies 2.jpg" arWidth="2560" arHeight="1440" duration="0" songTitle="" songArtist="" songAlbum="" songCopyrightUrl="" songArtistUrl="" songAudioFileUrl="" stabilizationMode="0" mediaItemType="2" />
    <MediaItem id="208" filePath="C:\Users\sean walla walla\Desktop\My Life Story\My life story (Modern Journaling folder)\Milestone 2\daily articles\2018\10 October 2018\! Overview\Pictures\All together\Screenshot_20181003-035959_Plants Vs Zombies 2.jpg" arWidth="2560" arHeight="1440" duration="0" songTitle="" songArtist="" songAlbum="" songCopyrightUrl="" songArtistUrl="" songAudioFileUrl="" stabilizationMode="0" mediaItemType="2" />
    <MediaItem id="209" filePath="C:\Users\sean walla walla\Desktop\My Life Story\My life story (Modern Journaling folder)\Milestone 2\daily articles\2018\10 October 2018\! Overview\Pictures\All together\Screenshot_20181003-041740_Plants Vs Zombies 2.jpg" arWidth="2560" arHeight="1440" duration="0" songTitle="" songArtist="" songAlbum="" songCopyrightUrl="" songArtistUrl="" songAudioFileUrl="" stabilizationMode="0" mediaItemType="2" />
    <MediaItem id="210" filePath="C:\Users\sean walla walla\Desktop\My Life Story\My life story (Modern Journaling folder)\Milestone 2\daily articles\2018\10 October 2018\! Overview\Pictures\All together\Screenshot_20181004-041346_Plants Vs Zombies 2.jpg" arWidth="2560" arHeight="1440" duration="0" songTitle="" songArtist="" songAlbum="" songCopyrightUrl="" songArtistUrl="" songAudioFileUrl="" stabilizationMode="0" mediaItemType="2" />
    <MediaItem id="211" filePath="C:\Users\sean walla walla\Desktop\My Life Story\My life story (Modern Journaling folder)\Milestone 2\daily articles\2018\10 October 2018\! Overview\Pictures\All together\Screenshot_20181004-044233_Plants Vs Zombies 2.jpg" arWidth="2560" arHeight="1440" duration="0" songTitle="" songArtist="" songAlbum="" songCopyrightUrl="" songArtistUrl="" songAudioFileUrl="" stabilizationMode="0" mediaItemType="2" />
    <MediaItem id="212" filePath="C:\Users\sean walla walla\Desktop\My Life Story\My life story (Modern Journaling folder)\Milestone 2\daily articles\2018\10 October 2018\! Overview\Pictures\All together\Screenshot_20181005-085010_Plants Vs Zombies 2.jpg" arWidth="2560" arHeight="1440" duration="0" songTitle="" songArtist="" songAlbum="" songCopyrightUrl="" songArtistUrl="" songAudioFileUrl="" stabilizationMode="0" mediaItemType="2" />
    <MediaItem id="213" filePath="C:\Users\sean walla walla\Desktop\My Life Story\My life story (Modern Journaling folder)\Milestone 2\daily articles\2018\10 October 2018\! Overview\Pictures\All together\Screenshot_20181005-092853_Plants Vs Zombies 2.jpg" arWidth="2560" arHeight="1440" duration="0" songTitle="" songArtist="" songAlbum="" songCopyrightUrl="" songArtistUrl="" songAudioFileUrl="" stabilizationMode="0" mediaItemType="2" />
    <MediaItem id="214" filePath="C:\Users\sean walla walla\Desktop\My Life Story\My life story (Modern Journaling folder)\Milestone 2\daily articles\2018\10 October 2018\! Overview\Pictures\All together\Screenshot_20181005-093011_AdCap!.jpg" arWidth="2560" arHeight="1440" duration="0" songTitle="" songArtist="" songAlbum="" songCopyrightUrl="" songArtistUrl="" songAudioFileUrl="" stabilizationMode="0" mediaItemType="2" />
    <MediaItem id="215" filePath="C:\Users\sean walla walla\Desktop\My Life Story\My life story (Modern Journaling folder)\Milestone 2\daily articles\2018\10 October 2018\! Overview\Pictures\All together\Screenshot_20181005-093053_AdCap!.jpg" arWidth="2560" arHeight="1440" duration="0" songTitle="" songArtist="" songAlbum="" songCopyrightUrl="" songArtistUrl="" songAudioFileUrl="" stabilizationMode="0" mediaItemType="2" />
    <MediaItem id="216" filePath="C:\Users\sean walla walla\Desktop\My Life Story\My life story (Modern Journaling folder)\Milestone 2\daily articles\2018\10 October 2018\! Overview\Pictures\All together\Screenshot_20181005-093108_AdCap!.jpg" arWidth="2560" arHeight="1440" duration="0" songTitle="" songArtist="" songAlbum="" songCopyrightUrl="" songArtistUrl="" songAudioFileUrl="" stabilizationMode="0" mediaItemType="2" />
    <MediaItem id="217" filePath="C:\Users\sean walla walla\Desktop\My Life Story\My life story (Modern Journaling folder)\Milestone 2\daily articles\2018\10 October 2018\! Overview\Pictures\All together\Screenshot_20181005-093120_AdCap!.jpg" arWidth="2560" arHeight="1440" duration="0" songTitle="" songArtist="" songAlbum="" songCopyrightUrl="" songArtistUrl="" songAudioFileUrl="" stabilizationMode="0" mediaItemType="2" />
    <MediaItem id="218" filePath="C:\Users\sean walla walla\Desktop\My Life Story\My life story (Modern Journaling folder)\Milestone 2\daily articles\2018\10 October 2018\! Overview\Pictures\All together\Screenshot_20181005-093126_AdCap!.jpg" arWidth="2560" arHeight="1440" duration="0" songTitle="" songArtist="" songAlbum="" songCopyrightUrl="" songArtistUrl="" songAudioFileUrl="" stabilizationMode="0" mediaItemType="2" />
    <MediaItem id="219" filePath="C:\Users\sean walla walla\Desktop\My Life Story\My life story (Modern Journaling folder)\Milestone 2\daily articles\2018\10 October 2018\! Overview\Pictures\All together\Screenshot_20181005-093145_AdCap!.jpg" arWidth="2560" arHeight="1440" duration="0" songTitle="" songArtist="" songAlbum="" songCopyrightUrl="" songArtistUrl="" songAudioFileUrl="" stabilizationMode="0" mediaItemType="2" />
    <MediaItem id="220" filePath="C:\Users\sean walla walla\Desktop\My Life Story\My life story (Modern Journaling folder)\Milestone 2\daily articles\2018\10 October 2018\! Overview\Pictures\All together\Screenshot_20181005-114530_AdCap!.jpg" arWidth="2560" arHeight="1440" duration="0" songTitle="" songArtist="" songAlbum="" songCopyrightUrl="" songArtistUrl="" songAudioFileUrl="" stabilizationMode="0" mediaItemType="2" />
    <MediaItem id="221" filePath="C:\Users\sean walla walla\Desktop\My Life Story\My life story (Modern Journaling folder)\Milestone 2\daily articles\2018\10 October 2018\! Overview\Pictures\All together\Screenshot_20181005-114556_Merge Plane.jpg" arWidth="1440" arHeight="2560" duration="0" songTitle="" songArtist="" songAlbum="" songCopyrightUrl="" songArtistUrl="" songAudioFileUrl="" stabilizationMode="0" mediaItemType="2" />
    <MediaItem id="222" filePath="C:\Users\sean walla walla\Desktop\My Life Story\My life story (Modern Journaling folder)\Milestone 2\daily articles\2018\10 October 2018\! Overview\Pictures\All together\Screenshot_20181005-114605_Merge Plane.jpg" arWidth="1440" arHeight="2560" duration="0" songTitle="" songArtist="" songAlbum="" songCopyrightUrl="" songArtistUrl="" songAudioFileUrl="" stabilizationMode="0" mediaItemType="2" />
    <MediaItem id="223" filePath="C:\Users\sean walla walla\Desktop\My Life Story\My life story (Modern Journaling folder)\Milestone 2\daily articles\2018\10 October 2018\! Overview\Pictures\All together\Screenshot_20181005-123031_Merge Plane.jpg" arWidth="1440" arHeight="2560" duration="0" songTitle="" songArtist="" songAlbum="" songCopyrightUrl="" songArtistUrl="" songAudioFileUrl="" stabilizationMode="0" mediaItemType="2" />
    <MediaItem id="224" filePath="C:\Users\sean walla walla\Desktop\My Life Story\My life story (Modern Journaling folder)\Milestone 2\daily articles\2018\10 October 2018\! Overview\Pictures\All together\Screenshot_20181005-123037_Merge Plane.jpg" arWidth="1440" arHeight="2560" duration="0" songTitle="" songArtist="" songAlbum="" songCopyrightUrl="" songArtistUrl="" songAudioFileUrl="" stabilizationMode="0" mediaItemType="2" />
    <MediaItem id="225" filePath="C:\Users\sean walla walla\Desktop\My Life Story\My life story (Modern Journaling folder)\Milestone 2\daily articles\2018\10 October 2018\! Overview\Pictures\All together\Screenshot_20181005-123041_Merge Plane.jpg" arWidth="1440" arHeight="2560" duration="0" songTitle="" songArtist="" songAlbum="" songCopyrightUrl="" songArtistUrl="" songAudioFileUrl="" stabilizationMode="0" mediaItemType="2" />
    <MediaItem id="226" filePath="C:\Users\sean walla walla\Desktop\My Life Story\My life story (Modern Journaling folder)\Milestone 2\daily articles\2018\10 October 2018\! Overview\Pictures\All together\Screenshot_20181005-123052_Merge Plane.jpg" arWidth="1440" arHeight="2560" duration="0" songTitle="" songArtist="" songAlbum="" songCopyrightUrl="" songArtistUrl="" songAudioFileUrl="" stabilizationMode="0" mediaItemType="2" />
    <MediaItem id="227" filePath="C:\Users\sean walla walla\Desktop\My Life Story\My life story (Modern Journaling folder)\Milestone 2\daily articles\2018\10 October 2018\! Overview\Pictures\All together\Screenshot_20181006-080306_Plants Vs Zombies 2.jpg" arWidth="2560" arHeight="1440" duration="0" songTitle="" songArtist="" songAlbum="" songCopyrightUrl="" songArtistUrl="" songAudioFileUrl="" stabilizationMode="0" mediaItemType="2" />
    <MediaItem id="228" filePath="C:\Users\sean walla walla\Desktop\My Life Story\My life story (Modern Journaling folder)\Milestone 2\daily articles\2018\10 October 2018\! Overview\Pictures\All together\Screenshot_20181006-080314_Plants Vs Zombies 2.jpg" arWidth="2560" arHeight="1440" duration="0" songTitle="" songArtist="" songAlbum="" songCopyrightUrl="" songArtistUrl="" songAudioFileUrl="" stabilizationMode="0" mediaItemType="2" />
    <MediaItem id="229" filePath="C:\Users\sean walla walla\Desktop\My Life Story\My life story (Modern Journaling folder)\Milestone 2\daily articles\2018\10 October 2018\! Overview\Pictures\All together\Screenshot_20181006-083421_Plants Vs Zombies 2.jpg" arWidth="2560" arHeight="1440" duration="0" songTitle="" songArtist="" songAlbum="" songCopyrightUrl="" songArtistUrl="" songAudioFileUrl="" stabilizationMode="0" mediaItemType="2" />
    <MediaItem id="230" filePath="C:\Users\sean walla walla\Desktop\My Life Story\My life story (Modern Journaling folder)\Milestone 2\daily articles\2018\10 October 2018\! Overview\Pictures\All together\Screenshot_20181006-083503_AdCap!.jpg" arWidth="2560" arHeight="1440" duration="0" songTitle="" songArtist="" songAlbum="" songCopyrightUrl="" songArtistUrl="" songAudioFileUrl="" stabilizationMode="0" mediaItemType="2" />
    <MediaItem id="231" filePath="C:\Users\sean walla walla\Desktop\My Life Story\My life story (Modern Journaling folder)\Milestone 2\daily articles\2018\10 October 2018\! Overview\Pictures\All together\Screenshot_20181006-083509_AdCap!.jpg" arWidth="2560" arHeight="1440" duration="0" songTitle="" songArtist="" songAlbum="" songCopyrightUrl="" songArtistUrl="" songAudioFileUrl="" stabilizationMode="0" mediaItemType="2" />
    <MediaItem id="232" filePath="C:\Users\sean walla walla\Desktop\My Life Story\My life story (Modern Journaling folder)\Milestone 2\daily articles\2018\10 October 2018\! Overview\Pictures\All together\Screenshot_20181006-083531_AdCap!.jpg" arWidth="2560" arHeight="1440" duration="0" songTitle="" songArtist="" songAlbum="" songCopyrightUrl="" songArtistUrl="" songAudioFileUrl="" stabilizationMode="0" mediaItemType="2" />
    <MediaItem id="233" filePath="C:\Users\sean walla walla\Desktop\My Life Story\My life story (Modern Journaling folder)\Milestone 2\daily articles\2018\10 October 2018\! Overview\Pictures\All together\Screenshot_20181006-083634_AdCap!.jpg" arWidth="2560" arHeight="1440" duration="0" songTitle="" songArtist="" songAlbum="" songCopyrightUrl="" songArtistUrl="" songAudioFileUrl="" stabilizationMode="0" mediaItemType="2" />
    <MediaItem id="234" filePath="C:\Users\sean walla walla\Desktop\My Life Story\My life story (Modern Journaling folder)\Milestone 2\daily articles\2018\10 October 2018\! Overview\Pictures\All together\Screenshot_20181006-083641_AdCap!.jpg" arWidth="2560" arHeight="1440" duration="0" songTitle="" songArtist="" songAlbum="" songCopyrightUrl="" songArtistUrl="" songAudioFileUrl="" stabilizationMode="0" mediaItemType="2" />
    <MediaItem id="235" filePath="C:\Users\sean walla walla\Desktop\My Life Story\My life story (Modern Journaling folder)\Milestone 2\daily articles\2018\10 October 2018\! Overview\Pictures\All together\Screenshot_20181006-083659_AdCap!.jpg" arWidth="2560" arHeight="1440" duration="0" songTitle="" songArtist="" songAlbum="" songCopyrightUrl="" songArtistUrl="" songAudioFileUrl="" stabilizationMode="0" mediaItemType="2" />
    <MediaItem id="236" filePath="C:\Users\sean walla walla\Desktop\My Life Story\My life story (Modern Journaling folder)\Milestone 2\daily articles\2018\10 October 2018\! Overview\Pictures\All together\Screenshot_20181006-083707_AdCap!.jpg" arWidth="2560" arHeight="1440" duration="0" songTitle="" songArtist="" songAlbum="" songCopyrightUrl="" songArtistUrl="" songAudioFileUrl="" stabilizationMode="0" mediaItemType="2" />
    <MediaItem id="237" filePath="C:\Users\sean walla walla\Desktop\My Life Story\My life story (Modern Journaling folder)\Milestone 2\daily articles\2018\10 October 2018\! Overview\Pictures\All together\Screenshot_20181006-083712_AdCap!.jpg" arWidth="2560" arHeight="1440" duration="0" songTitle="" songArtist="" songAlbum="" songCopyrightUrl="" songArtistUrl="" songAudioFileUrl="" stabilizationMode="0" mediaItemType="2" />
    <MediaItem id="238" filePath="C:\Users\sean walla walla\Desktop\My Life Story\My life story (Modern Journaling folder)\Milestone 2\daily articles\2018\10 October 2018\! Overview\Pictures\All together\Screenshot_20181006-090518_AdCap!.jpg" arWidth="2560" arHeight="1440" duration="0" songTitle="" songArtist="" songAlbum="" songCopyrightUrl="" songArtistUrl="" songAudioFileUrl="" stabilizationMode="0" mediaItemType="2" />
    <MediaItem id="239" filePath="C:\Users\sean walla walla\Desktop\My Life Story\My life story (Modern Journaling folder)\Milestone 2\daily articles\2018\10 October 2018\! Overview\Pictures\All together\Screenshot_20181007-062114_Plants Vs Zombies 2.jpg" arWidth="2560" arHeight="1440" duration="0" songTitle="" songArtist="" songAlbum="" songCopyrightUrl="" songArtistUrl="" songAudioFileUrl="" stabilizationMode="0" mediaItemType="2" />
    <MediaItem id="240" filePath="C:\Users\sean walla walla\Desktop\My Life Story\My life story (Modern Journaling folder)\Milestone 2\daily articles\2018\10 October 2018\! Overview\Pictures\All together\Screenshot_20181007-062122_Plants Vs Zombies 2.jpg" arWidth="2560" arHeight="1440" duration="0" songTitle="" songArtist="" songAlbum="" songCopyrightUrl="" songArtistUrl="" songAudioFileUrl="" stabilizationMode="0" mediaItemType="2" />
    <MediaItem id="241" filePath="C:\Users\sean walla walla\Desktop\My Life Story\My life story (Modern Journaling folder)\Milestone 2\daily articles\2018\10 October 2018\! Overview\Pictures\All together\Screenshot_20181007-070736_Plants Vs Zombies 2.jpg" arWidth="2560" arHeight="1440" duration="0" songTitle="" songArtist="" songAlbum="" songCopyrightUrl="" songArtistUrl="" songAudioFileUrl="" stabilizationMode="0" mediaItemType="2" />
    <MediaItem id="242" filePath="C:\Users\sean walla walla\Desktop\My Life Story\My life story (Modern Journaling folder)\Milestone 2\daily articles\2018\10 October 2018\! Overview\Pictures\All together\Screenshot_20181007-070856_AdCap!.jpg" arWidth="2560" arHeight="1440" duration="0" songTitle="" songArtist="" songAlbum="" songCopyrightUrl="" songArtistUrl="" songAudioFileUrl="" stabilizationMode="0" mediaItemType="2" />
    <MediaItem id="243" filePath="C:\Users\sean walla walla\Desktop\My Life Story\My life story (Modern Journaling folder)\Milestone 2\daily articles\2018\10 October 2018\! Overview\Pictures\All together\Screenshot_20181007-070955_AdCap!.jpg" arWidth="2560" arHeight="1440" duration="0" songTitle="" songArtist="" songAlbum="" songCopyrightUrl="" songArtistUrl="" songAudioFileUrl="" stabilizationMode="0" mediaItemType="2" />
    <MediaItem id="244" filePath="C:\Users\sean walla walla\Desktop\My Life Story\My life story (Modern Journaling folder)\Milestone 2\daily articles\2018\10 October 2018\! Overview\Pictures\All together\Screenshot_20181007-071244_AdCap!.jpg" arWidth="2560" arHeight="1440" duration="0" songTitle="" songArtist="" songAlbum="" songCopyrightUrl="" songArtistUrl="" songAudioFileUrl="" stabilizationMode="0" mediaItemType="2" />
    <MediaItem id="245" filePath="C:\Users\sean walla walla\Desktop\My Life Story\My life story (Modern Journaling folder)\Milestone 2\daily articles\2018\10 October 2018\! Overview\Pictures\All together\Screenshot_20181007-071253_AdCap!.jpg" arWidth="2560" arHeight="1440" duration="0" songTitle="" songArtist="" songAlbum="" songCopyrightUrl="" songArtistUrl="" songAudioFileUrl="" stabilizationMode="0" mediaItemType="2" />
    <MediaItem id="246" filePath="C:\Users\sean walla walla\Desktop\My Life Story\My life story (Modern Journaling folder)\Milestone 2\daily articles\2018\10 October 2018\! Overview\Pictures\All together\Screenshot_20181007-071338_AdCap!.jpg" arWidth="2560" arHeight="1440" duration="0" songTitle="" songArtist="" songAlbum="" songCopyrightUrl="" songArtistUrl="" songAudioFileUrl="" stabilizationMode="0" mediaItemType="2" />
    <MediaItem id="247" filePath="C:\Users\sean walla walla\Desktop\My Life Story\My life story (Modern Journaling folder)\Milestone 2\daily articles\2018\10 October 2018\! Overview\Pictures\All together\Screenshot_20181007-071923_AdCap!.jpg" arWidth="2560" arHeight="1440" duration="0" songTitle="" songArtist="" songAlbum="" songCopyrightUrl="" songArtistUrl="" songAudioFileUrl="" stabilizationMode="0" mediaItemType="2" />
    <MediaItem id="248" filePath="C:\Users\sean walla walla\Desktop\My Life Story\My life story (Modern Journaling folder)\Milestone 2\daily articles\2018\10 October 2018\! Overview\Pictures\All together\Screenshot_20181007-071930_AdCap!.jpg" arWidth="2560" arHeight="1440" duration="0" songTitle="" songArtist="" songAlbum="" songCopyrightUrl="" songArtistUrl="" songAudioFileUrl="" stabilizationMode="0" mediaItemType="2" />
    <MediaItem id="249" filePath="C:\Users\sean walla walla\Desktop\My Life Story\My life story (Modern Journaling folder)\Milestone 2\daily articles\2018\10 October 2018\! Overview\Pictures\All together\Screenshot_20181007-071957_AdCap!.jpg" arWidth="2560" arHeight="1440" duration="0" songTitle="" songArtist="" songAlbum="" songCopyrightUrl="" songArtistUrl="" songAudioFileUrl="" stabilizationMode="0" mediaItemType="2" />
    <MediaItem id="250" filePath="C:\Users\sean walla walla\Desktop\My Life Story\My life story (Modern Journaling folder)\Milestone 2\daily articles\2018\10 October 2018\! Overview\Pictures\All together\Screenshot_20181007-072204_AdCap!.jpg" arWidth="2560" arHeight="1440" duration="0" songTitle="" songArtist="" songAlbum="" songCopyrightUrl="" songArtistUrl="" songAudioFileUrl="" stabilizationMode="0" mediaItemType="2" />
    <MediaItem id="251" filePath="C:\Users\sean walla walla\Desktop\My Life Story\My life story (Modern Journaling folder)\Milestone 2\daily articles\2018\10 October 2018\! Overview\Pictures\All together\Screenshot_20181007-072212_AdCap!.jpg" arWidth="2560" arHeight="1440" duration="0" songTitle="" songArtist="" songAlbum="" songCopyrightUrl="" songArtistUrl="" songAudioFileUrl="" stabilizationMode="0" mediaItemType="2" />
    <MediaItem id="252" filePath="C:\Users\sean walla walla\Desktop\My Life Story\My life story (Modern Journaling folder)\Milestone 2\daily articles\2018\10 October 2018\! Overview\Pictures\All together\Screenshot_20181007-072216_AdCap!.jpg" arWidth="2560" arHeight="1440" duration="0" songTitle="" songArtist="" songAlbum="" songCopyrightUrl="" songArtistUrl="" songAudioFileUrl="" stabilizationMode="0" mediaItemType="2" />
    <MediaItem id="253" filePath="C:\Users\sean walla walla\Desktop\My Life Story\My life story (Modern Journaling folder)\Milestone 2\daily articles\2018\10 October 2018\! Overview\Pictures\All together\Screenshot_20181007-072224_AdCap!.jpg" arWidth="2560" arHeight="1440" duration="0" songTitle="" songArtist="" songAlbum="" songCopyrightUrl="" songArtistUrl="" songAudioFileUrl="" stabilizationMode="0" mediaItemType="2" />
    <MediaItem id="254" filePath="C:\Users\sean walla walla\Desktop\My Life Story\My life story (Modern Journaling folder)\Milestone 2\daily articles\2018\10 October 2018\! Overview\Pictures\All together\Screenshot_20181007-072238_AdCap!.jpg" arWidth="2560" arHeight="1440" duration="0" songTitle="" songArtist="" songAlbum="" songCopyrightUrl="" songArtistUrl="" songAudioFileUrl="" stabilizationMode="0" mediaItemType="2" />
    <MediaItem id="255" filePath="C:\Users\sean walla walla\Desktop\My Life Story\My life story (Modern Journaling folder)\Milestone 2\daily articles\2018\10 October 2018\! Overview\Pictures\All together\Screenshot_20181007-072310_Merge Plane.jpg" arWidth="1440" arHeight="2560" duration="0" songTitle="" songArtist="" songAlbum="" songCopyrightUrl="" songArtistUrl="" songAudioFileUrl="" stabilizationMode="0" mediaItemType="2" />
    <MediaItem id="256" filePath="C:\Users\sean walla walla\Desktop\My Life Story\My life story (Modern Journaling folder)\Milestone 2\daily articles\2018\10 October 2018\! Overview\Pictures\All together\Screenshot_20181007-072316_Merge Plane.jpg" arWidth="1440" arHeight="2560" duration="0" songTitle="" songArtist="" songAlbum="" songCopyrightUrl="" songArtistUrl="" songAudioFileUrl="" stabilizationMode="0" mediaItemType="2" />
    <MediaItem id="257" filePath="C:\Users\sean walla walla\Desktop\My Life Story\My life story (Modern Journaling folder)\Milestone 2\daily articles\2018\10 October 2018\! Overview\Pictures\All together\Screenshot_20181007-090205_Merge Plane.jpg" arWidth="1440" arHeight="2560" duration="0" songTitle="" songArtist="" songAlbum="" songCopyrightUrl="" songArtistUrl="" songAudioFileUrl="" stabilizationMode="0" mediaItemType="2" />
    <MediaItem id="258" filePath="C:\Users\sean walla walla\Desktop\My Life Story\My life story (Modern Journaling folder)\Milestone 2\daily articles\2018\10 October 2018\! Overview\Pictures\All together\Screenshot_20181007-090211_Merge Plane.jpg" arWidth="1440" arHeight="2560" duration="0" songTitle="" songArtist="" songAlbum="" songCopyrightUrl="" songArtistUrl="" songAudioFileUrl="" stabilizationMode="0" mediaItemType="2" />
    <MediaItem id="259" filePath="C:\Users\sean walla walla\Desktop\My Life Story\My life story (Modern Journaling folder)\Milestone 2\daily articles\2018\10 October 2018\! Overview\Pictures\All together\Screenshot_20181007-090216_Merge Plane.jpg" arWidth="1440" arHeight="2560" duration="0" songTitle="" songArtist="" songAlbum="" songCopyrightUrl="" songArtistUrl="" songAudioFileUrl="" stabilizationMode="0" mediaItemType="2" />
    <MediaItem id="260" filePath="C:\Users\sean walla walla\Desktop\My Life Story\My life story (Modern Journaling folder)\Milestone 2\daily articles\2018\10 October 2018\! Overview\Pictures\All together\Screenshot_20181007-090226_Merge Plane.jpg" arWidth="1440" arHeight="2560" duration="0" songTitle="" songArtist="" songAlbum="" songCopyrightUrl="" songArtistUrl="" songAudioFileUrl="" stabilizationMode="0" mediaItemType="2" />
    <MediaItem id="261" filePath="C:\Users\sean walla walla\Desktop\My Life Story\My life story (Modern Journaling folder)\Milestone 2\daily articles\2018\10 October 2018\! Overview\Pictures\All together\Screenshot_20181007-090537_Settings.jpg" arWidth="1440" arHeight="2560" duration="0" songTitle="" songArtist="" songAlbum="" songCopyrightUrl="" songArtistUrl="" songAudioFileUrl="" stabilizationMode="0" mediaItemType="2" />
    <MediaItem id="262" filePath="C:\Users\sean walla walla\Desktop\My Life Story\My life story (Modern Journaling folder)\Milestone 2\daily articles\2018\10 October 2018\! Overview\Pictures\All together\Screenshot_20181007-090537_Settings_1.jpg" arWidth="0" arHeight="0" duration="0" songTitle="" songArtist="" songAlbum="" songCopyrightUrl="" songArtistUrl="" songAudioFileUrl="" stabilizationMode="0" mediaItemType="2" />
    <MediaItem id="263" filePath="C:\Users\sean walla walla\Desktop\My Life Story\My life story (Modern Journaling folder)\Milestone 2\daily articles\2018\10 October 2018\! Overview\Pictures\All together\Screenshot_20181008-041000_Plants Vs Zombies 2.jpg" arWidth="2560" arHeight="1440" duration="0" songTitle="" songArtist="" songAlbum="" songCopyrightUrl="" songArtistUrl="" songAudioFileUrl="" stabilizationMode="0" mediaItemType="2" />
    <MediaItem id="264" filePath="C:\Users\sean walla walla\Desktop\My Life Story\My life story (Modern Journaling folder)\Milestone 2\daily articles\2018\10 October 2018\! Overview\Pictures\All together\Screenshot_20181008-041009_Plants Vs Zombies 2.jpg" arWidth="2560" arHeight="1440" duration="0" songTitle="" songArtist="" songAlbum="" songCopyrightUrl="" songArtistUrl="" songAudioFileUrl="" stabilizationMode="0" mediaItemType="2" />
    <MediaItem id="265" filePath="C:\Users\sean walla walla\Desktop\My Life Story\My life story (Modern Journaling folder)\Milestone 2\daily articles\2018\10 October 2018\! Overview\Pictures\All together\Screenshot_20181008-044239_Plants Vs Zombies 2.jpg" arWidth="2560" arHeight="1440" duration="0" songTitle="" songArtist="" songAlbum="" songCopyrightUrl="" songArtistUrl="" songAudioFileUrl="" stabilizationMode="0" mediaItemType="2" />
    <MediaItem id="266" filePath="C:\Users\sean walla walla\Desktop\My Life Story\My life story (Modern Journaling folder)\Milestone 2\daily articles\2018\10 October 2018\! Overview\Pictures\All together\Screenshot_20181009-040836_Plants Vs Zombies 2.jpg" arWidth="2560" arHeight="1440" duration="0" songTitle="" songArtist="" songAlbum="" songCopyrightUrl="" songArtistUrl="" songAudioFileUrl="" stabilizationMode="0" mediaItemType="2" />
    <MediaItem id="267" filePath="C:\Users\sean walla walla\Desktop\My Life Story\My life story (Modern Journaling folder)\Milestone 2\daily articles\2018\10 October 2018\! Overview\Pictures\All together\Screenshot_20181009-043542_Plants Vs Zombies 2.jpg" arWidth="2560" arHeight="1440" duration="0" songTitle="" songArtist="" songAlbum="" songCopyrightUrl="" songArtistUrl="" songAudioFileUrl="" stabilizationMode="0" mediaItemType="2" />
    <MediaItem id="268" filePath="C:\Users\sean walla walla\Desktop\My Life Story\My life story (Modern Journaling folder)\Milestone 2\daily articles\2018\10 October 2018\! Overview\Pictures\All together\Screenshot_20181010-041548_Plants Vs Zombies 2.jpg" arWidth="2560" arHeight="1440" duration="0" songTitle="" songArtist="" songAlbum="" songCopyrightUrl="" songArtistUrl="" songAudioFileUrl="" stabilizationMode="0" mediaItemType="2" />
    <MediaItem id="269" filePath="C:\Users\sean walla walla\Desktop\My Life Story\My life story (Modern Journaling folder)\Milestone 2\daily articles\2018\10 October 2018\! Overview\Pictures\All together\Screenshot_20181010-042136_Plants Vs Zombies 2.jpg" arWidth="2560" arHeight="1440" duration="0" songTitle="" songArtist="" songAlbum="" songCopyrightUrl="" songArtistUrl="" songAudioFileUrl="" stabilizationMode="0" mediaItemType="2" />
    <MediaItem id="270" filePath="C:\Users\sean walla walla\Desktop\My Life Story\My life story (Modern Journaling folder)\Milestone 2\daily articles\2018\10 October 2018\! Overview\Pictures\All together\Screenshot_20181010-042143_Plants Vs Zombies 2.jpg" arWidth="2560" arHeight="1440" duration="0" songTitle="" songArtist="" songAlbum="" songCopyrightUrl="" songArtistUrl="" songAudioFileUrl="" stabilizationMode="0" mediaItemType="2" />
    <MediaItem id="271" filePath="C:\Users\sean walla walla\Desktop\My Life Story\My life story (Modern Journaling folder)\Milestone 2\daily articles\2018\10 October 2018\! Overview\Pictures\All together\Screenshot_20181010-045354_Plants Vs Zombies 2.jpg" arWidth="2560" arHeight="1440" duration="0" songTitle="" songArtist="" songAlbum="" songCopyrightUrl="" songArtistUrl="" songAudioFileUrl="" stabilizationMode="0" mediaItemType="2" />
    <MediaItem id="272" filePath="C:\Users\sean walla walla\Desktop\My Life Story\My life story (Modern Journaling folder)\Milestone 2\daily articles\2018\10 October 2018\! Overview\Pictures\All together\Screenshot_20181011-090824_Plants Vs Zombies 2.jpg" arWidth="2560" arHeight="1440" duration="0" songTitle="" songArtist="" songAlbum="" songCopyrightUrl="" songArtistUrl="" songAudioFileUrl="" stabilizationMode="0" mediaItemType="2" />
    <MediaItem id="273" filePath="C:\Users\sean walla walla\Desktop\My Life Story\My life story (Modern Journaling folder)\Milestone 2\daily articles\2018\10 October 2018\! Overview\Pictures\All together\Screenshot_20181011-090831_Plants Vs Zombies 2.jpg" arWidth="2560" arHeight="1440" duration="0" songTitle="" songArtist="" songAlbum="" songCopyrightUrl="" songArtistUrl="" songAudioFileUrl="" stabilizationMode="0" mediaItemType="2" />
    <MediaItem id="274" filePath="C:\Users\sean walla walla\Desktop\My Life Story\My life story (Modern Journaling folder)\Milestone 2\daily articles\2018\10 October 2018\! Overview\Pictures\All together\Screenshot_20181011-093458_Plants Vs Zombies 2.jpg" arWidth="2560" arHeight="1440" duration="0" songTitle="" songArtist="" songAlbum="" songCopyrightUrl="" songArtistUrl="" songAudioFileUrl="" stabilizationMode="0" mediaItemType="2" />
    <MediaItem id="275" filePath="C:\Users\sean walla walla\Desktop\My Life Story\My life story (Modern Journaling folder)\Milestone 2\daily articles\2018\10 October 2018\! Overview\Pictures\All together\Screenshot_20181011-093539_AdCap!.jpg" arWidth="2560" arHeight="1440" duration="0" songTitle="" songArtist="" songAlbum="" songCopyrightUrl="" songArtistUrl="" songAudioFileUrl="" stabilizationMode="0" mediaItemType="2" />
    <MediaItem id="276" filePath="C:\Users\sean walla walla\Desktop\My Life Story\My life story (Modern Journaling folder)\Milestone 2\daily articles\2018\10 October 2018\! Overview\Pictures\All together\Screenshot_20181011-093623_AdCap!.jpg" arWidth="2560" arHeight="1440" duration="0" songTitle="" songArtist="" songAlbum="" songCopyrightUrl="" songArtistUrl="" songAudioFileUrl="" stabilizationMode="0" mediaItemType="2" />
    <MediaItem id="277" filePath="C:\Users\sean walla walla\Desktop\My Life Story\My life story (Modern Journaling folder)\Milestone 2\daily articles\2018\10 October 2018\! Overview\Pictures\All together\Screenshot_20181011-093635_AdCap!.jpg" arWidth="2560" arHeight="1440" duration="0" songTitle="" songArtist="" songAlbum="" songCopyrightUrl="" songArtistUrl="" songAudioFileUrl="" stabilizationMode="0" mediaItemType="2" />
    <MediaItem id="278" filePath="C:\Users\sean walla walla\Desktop\My Life Story\My life story (Modern Journaling folder)\Milestone 2\daily articles\2018\10 October 2018\! Overview\Pictures\All together\Screenshot_20181011-093759_AdCap!.jpg" arWidth="2560" arHeight="1440" duration="0" songTitle="" songArtist="" songAlbum="" songCopyrightUrl="" songArtistUrl="" songAudioFileUrl="" stabilizationMode="0" mediaItemType="2" />
    <MediaItem id="279" filePath="C:\Users\sean walla walla\Desktop\My Life Story\My life story (Modern Journaling folder)\Milestone 2\daily articles\2018\10 October 2018\! Overview\Pictures\All together\Screenshot_20181011-093817_AdCap!.jpg" arWidth="2560" arHeight="1440" duration="0" songTitle="" songArtist="" songAlbum="" songCopyrightUrl="" songArtistUrl="" songAudioFileUrl="" stabilizationMode="0" mediaItemType="2" />
    <MediaItem id="280" filePath="C:\Users\sean walla walla\Desktop\My Life Story\My life story (Modern Journaling folder)\Milestone 2\daily articles\2018\10 October 2018\! Overview\Pictures\All together\Screenshot_20181011-093847_AdCap!.jpg" arWidth="2560" arHeight="1440" duration="0" songTitle="" songArtist="" songAlbum="" songCopyrightUrl="" songArtistUrl="" songAudioFileUrl="" stabilizationMode="0" mediaItemType="2" />
    <MediaItem id="281" filePath="C:\Users\sean walla walla\Desktop\My Life Story\My life story (Modern Journaling folder)\Milestone 2\daily articles\2018\10 October 2018\! Overview\Pictures\All together\Screenshot_20181011-094119_AdCap!.jpg" arWidth="2560" arHeight="1440" duration="0" songTitle="" songArtist="" songAlbum="" songCopyrightUrl="" songArtistUrl="" songAudioFileUrl="" stabilizationMode="0" mediaItemType="2" />
    <MediaItem id="282" filePath="C:\Users\sean walla walla\Desktop\My Life Story\My life story (Modern Journaling folder)\Milestone 2\daily articles\2018\10 October 2018\! Overview\Pictures\All together\Screenshot_20181011-094132_AdCap!.jpg" arWidth="2560" arHeight="1440" duration="0" songTitle="" songArtist="" songAlbum="" songCopyrightUrl="" songArtistUrl="" songAudioFileUrl="" stabilizationMode="0" mediaItemType="2" />
    <MediaItem id="283" filePath="C:\Users\sean walla walla\Desktop\My Life Story\My life story (Modern Journaling folder)\Milestone 2\daily articles\2018\10 October 2018\! Overview\Pictures\All together\Screenshot_20181011-105141_AdCap!.jpg" arWidth="2560" arHeight="1440" duration="0" songTitle="" songArtist="" songAlbum="" songCopyrightUrl="" songArtistUrl="" songAudioFileUrl="" stabilizationMode="0" mediaItemType="2" />
    <MediaItem id="284" filePath="C:\Users\sean walla walla\Desktop\My Life Story\My life story (Modern Journaling folder)\Milestone 2\daily articles\2018\10 October 2018\! Overview\Pictures\All together\Screenshot_20181011-105157_AdCap!.jpg" arWidth="2560" arHeight="1440" duration="0" songTitle="" songArtist="" songAlbum="" songCopyrightUrl="" songArtistUrl="" songAudioFileUrl="" stabilizationMode="0" mediaItemType="2" />
    <MediaItem id="285" filePath="C:\Users\sean walla walla\Desktop\My Life Story\My life story (Modern Journaling folder)\Milestone 2\daily articles\2018\10 October 2018\! Overview\Pictures\All together\Screenshot_20181011-112929_Merge Plane.jpg" arWidth="1440" arHeight="2560" duration="0" songTitle="" songArtist="" songAlbum="" songCopyrightUrl="" songArtistUrl="" songAudioFileUrl="" stabilizationMode="0" mediaItemType="2" />
    <MediaItem id="286" filePath="C:\Users\sean walla walla\Desktop\My Life Story\My life story (Modern Journaling folder)\Milestone 2\daily articles\2018\10 October 2018\! Overview\Pictures\All together\Screenshot_20181011-112938_Merge Plane.jpg" arWidth="1440" arHeight="2560" duration="0" songTitle="" songArtist="" songAlbum="" songCopyrightUrl="" songArtistUrl="" songAudioFileUrl="" stabilizationMode="0" mediaItemType="2" />
    <MediaItem id="287" filePath="C:\Users\sean walla walla\Desktop\My Life Story\My life story (Modern Journaling folder)\Milestone 2\daily articles\2018\10 October 2018\! Overview\Pictures\All together\Screenshot_20181011-124055_Merge Plane.jpg" arWidth="1440" arHeight="2560" duration="0" songTitle="" songArtist="" songAlbum="" songCopyrightUrl="" songArtistUrl="" songAudioFileUrl="" stabilizationMode="0" mediaItemType="2" />
    <MediaItem id="288" filePath="C:\Users\sean walla walla\Desktop\My Life Story\My life story (Modern Journaling folder)\Milestone 2\daily articles\2018\10 October 2018\! Overview\Pictures\All together\Screenshot_20181011-124100_Merge Plane.jpg" arWidth="1440" arHeight="2560" duration="0" songTitle="" songArtist="" songAlbum="" songCopyrightUrl="" songArtistUrl="" songAudioFileUrl="" stabilizationMode="0" mediaItemType="2" />
    <MediaItem id="289" filePath="C:\Users\sean walla walla\Desktop\My Life Story\My life story (Modern Journaling folder)\Milestone 2\daily articles\2018\10 October 2018\! Overview\Pictures\All together\Screenshot_20181011-124106_Merge Plane.jpg" arWidth="1440" arHeight="2560" duration="0" songTitle="" songArtist="" songAlbum="" songCopyrightUrl="" songArtistUrl="" songAudioFileUrl="" stabilizationMode="0" mediaItemType="2" />
    <MediaItem id="290" filePath="C:\Users\sean walla walla\Desktop\My Life Story\My life story (Modern Journaling folder)\Milestone 2\daily articles\2018\10 October 2018\! Overview\Pictures\All together\Screenshot_20181011-124119_Merge Plane.jpg" arWidth="1440" arHeight="2560" duration="0" songTitle="" songArtist="" songAlbum="" songCopyrightUrl="" songArtistUrl="" songAudioFileUrl="" stabilizationMode="0" mediaItemType="2" />
    <MediaItem id="291" filePath="C:\Users\sean walla walla\Desktop\My Life Story\My life story (Modern Journaling folder)\Milestone 2\daily articles\2018\10 October 2018\! Overview\Pictures\All together\Screenshot_20181012-071855_Plants Vs Zombies 2.jpg" arWidth="2560" arHeight="1440" duration="0" songTitle="" songArtist="" songAlbum="" songCopyrightUrl="" songArtistUrl="" songAudioFileUrl="" stabilizationMode="0" mediaItemType="2" />
    <MediaItem id="292" filePath="C:\Users\sean walla walla\Desktop\My Life Story\My life story (Modern Journaling folder)\Milestone 2\daily articles\2018\10 October 2018\! Overview\Pictures\All together\Screenshot_20181012-071906_Plants Vs Zombies 2.jpg" arWidth="2560" arHeight="1440" duration="0" songTitle="" songArtist="" songAlbum="" songCopyrightUrl="" songArtistUrl="" songAudioFileUrl="" stabilizationMode="0" mediaItemType="2" />
    <MediaItem id="293" filePath="C:\Users\sean walla walla\Desktop\My Life Story\My life story (Modern Journaling folder)\Milestone 2\daily articles\2018\10 October 2018\! Overview\Pictures\All together\Screenshot_20181012-074120_Plants Vs Zombies 2.jpg" arWidth="2560" arHeight="1440" duration="0" songTitle="" songArtist="" songAlbum="" songCopyrightUrl="" songArtistUrl="" songAudioFileUrl="" stabilizationMode="0" mediaItemType="2" />
    <MediaItem id="294" filePath="C:\Users\sean walla walla\Desktop\My Life Story\My life story (Modern Journaling folder)\Milestone 2\daily articles\2018\10 October 2018\! Overview\Pictures\All together\Screenshot_20181012-074152_AdCap!.jpg" arWidth="2560" arHeight="1440" duration="0" songTitle="" songArtist="" songAlbum="" songCopyrightUrl="" songArtistUrl="" songAudioFileUrl="" stabilizationMode="0" mediaItemType="2" />
    <MediaItem id="295" filePath="C:\Users\sean walla walla\Desktop\My Life Story\My life story (Modern Journaling folder)\Milestone 2\daily articles\2018\10 October 2018\! Overview\Pictures\All together\Screenshot_20181012-074247_AdCap!.jpg" arWidth="2560" arHeight="1440" duration="0" songTitle="" songArtist="" songAlbum="" songCopyrightUrl="" songArtistUrl="" songAudioFileUrl="" stabilizationMode="0" mediaItemType="2" />
    <MediaItem id="296" filePath="C:\Users\sean walla walla\Desktop\My Life Story\My life story (Modern Journaling folder)\Milestone 2\daily articles\2018\10 October 2018\! Overview\Pictures\All together\Screenshot_20181012-074310_AdCap!.jpg" arWidth="2560" arHeight="1440" duration="0" songTitle="" songArtist="" songAlbum="" songCopyrightUrl="" songArtistUrl="" songAudioFileUrl="" stabilizationMode="0" mediaItemType="2" />
    <MediaItem id="297" filePath="C:\Users\sean walla walla\Desktop\My Life Story\My life story (Modern Journaling folder)\Milestone 2\daily articles\2018\10 October 2018\! Overview\Pictures\All together\Screenshot_20181012-074325_AdCap!.jpg" arWidth="2560" arHeight="1440" duration="0" songTitle="" songArtist="" songAlbum="" songCopyrightUrl="" songArtistUrl="" songAudioFileUrl="" stabilizationMode="0" mediaItemType="2" />
    <MediaItem id="298" filePath="C:\Users\sean walla walla\Desktop\My Life Story\My life story (Modern Journaling folder)\Milestone 2\daily articles\2018\10 October 2018\! Overview\Pictures\All together\Screenshot_20181012-074333_AdCap!.jpg" arWidth="2560" arHeight="1440" duration="0" songTitle="" songArtist="" songAlbum="" songCopyrightUrl="" songArtistUrl="" songAudioFileUrl="" stabilizationMode="0" mediaItemType="2" />
    <MediaItem id="299" filePath="C:\Users\sean walla walla\Desktop\My Life Story\My life story (Modern Journaling folder)\Milestone 2\daily articles\2018\10 October 2018\! Overview\Pictures\All together\Screenshot_20181012-074348_AdCap!.jpg" arWidth="2560" arHeight="1440" duration="0" songTitle="" songArtist="" songAlbum="" songCopyrightUrl="" songArtistUrl="" songAudioFileUrl="" stabilizationMode="0" mediaItemType="2" />
    <MediaItem id="300" filePath="C:\Users\sean walla walla\Desktop\My Life Story\My life story (Modern Journaling folder)\Milestone 2\daily articles\2018\10 October 2018\! Overview\Pictures\All together\Screenshot_20181012-074356_AdCap!.jpg" arWidth="2560" arHeight="1440" duration="0" songTitle="" songArtist="" songAlbum="" songCopyrightUrl="" songArtistUrl="" songAudioFileUrl="" stabilizationMode="0" mediaItemType="2" />
    <MediaItem id="301" filePath="C:\Users\sean walla walla\Desktop\My Life Story\My life story (Modern Journaling folder)\Milestone 2\daily articles\2018\10 October 2018\! Overview\Pictures\All together\Screenshot_20181012-074401_AdCap!.jpg" arWidth="2560" arHeight="1440" duration="0" songTitle="" songArtist="" songAlbum="" songCopyrightUrl="" songArtistUrl="" songAudioFileUrl="" stabilizationMode="0" mediaItemType="2" />
    <MediaItem id="302" filePath="C:\Users\sean walla walla\Desktop\My Life Story\My life story (Modern Journaling folder)\Milestone 2\daily articles\2018\10 October 2018\! Overview\Pictures\All together\Screenshot_20181012-085859_AdCap!.jpg" arWidth="2560" arHeight="1440" duration="0" songTitle="" songArtist="" songAlbum="" songCopyrightUrl="" songArtistUrl="" songAudioFileUrl="" stabilizationMode="0" mediaItemType="2" />
    <MediaItem id="303" filePath="C:\Users\sean walla walla\Desktop\My Life Story\My life story (Modern Journaling folder)\Milestone 2\daily articles\2018\10 October 2018\! Overview\Pictures\All together\Screenshot_20181012-085929_Merge Plane.jpg" arWidth="1440" arHeight="2560" duration="0" songTitle="" songArtist="" songAlbum="" songCopyrightUrl="" songArtistUrl="" songAudioFileUrl="" stabilizationMode="0" mediaItemType="2" />
    <MediaItem id="304" filePath="C:\Users\sean walla walla\Desktop\My Life Story\My life story (Modern Journaling folder)\Milestone 2\daily articles\2018\10 October 2018\! Overview\Pictures\All together\Screenshot_20181012-085935_Merge Plane.jpg" arWidth="1440" arHeight="2560" duration="0" songTitle="" songArtist="" songAlbum="" songCopyrightUrl="" songArtistUrl="" songAudioFileUrl="" stabilizationMode="0" mediaItemType="2" />
    <MediaItem id="305" filePath="C:\Users\sean walla walla\Desktop\My Life Story\My life story (Modern Journaling folder)\Milestone 2\daily articles\2018\10 October 2018\! Overview\Pictures\All together\Screenshot_20181012-093618_Merge Plane.jpg" arWidth="1440" arHeight="2560" duration="0" songTitle="" songArtist="" songAlbum="" songCopyrightUrl="" songArtistUrl="" songAudioFileUrl="" stabilizationMode="0" mediaItemType="2" />
    <MediaItem id="306" filePath="C:\Users\sean walla walla\Desktop\My Life Story\My life story (Modern Journaling folder)\Milestone 2\daily articles\2018\10 October 2018\! Overview\Pictures\All together\Screenshot_20181012-093624_Merge Plane.jpg" arWidth="1440" arHeight="2560" duration="0" songTitle="" songArtist="" songAlbum="" songCopyrightUrl="" songArtistUrl="" songAudioFileUrl="" stabilizationMode="0" mediaItemType="2" />
    <MediaItem id="307" filePath="C:\Users\sean walla walla\Desktop\My Life Story\My life story (Modern Journaling folder)\Milestone 2\daily articles\2018\10 October 2018\! Overview\Pictures\All together\Screenshot_20181012-093719_Merge Plane.jpg" arWidth="1440" arHeight="2560" duration="0" songTitle="" songArtist="" songAlbum="" songCopyrightUrl="" songArtistUrl="" songAudioFileUrl="" stabilizationMode="0" mediaItemType="2" />
    <MediaItem id="308" filePath="C:\Users\sean walla walla\Desktop\My Life Story\My life story (Modern Journaling folder)\Milestone 2\daily articles\2018\10 October 2018\! Overview\Pictures\All together\Screenshot_20181012-093724_Merge Plane.jpg" arWidth="1440" arHeight="2560" duration="0" songTitle="" songArtist="" songAlbum="" songCopyrightUrl="" songArtistUrl="" songAudioFileUrl="" stabilizationMode="0" mediaItemType="2" />
    <MediaItem id="309" filePath="C:\Users\sean walla walla\Desktop\My Life Story\My life story (Modern Journaling folder)\Milestone 2\daily articles\2018\10 October 2018\! Overview\Pictures\All together\Screenshot_20181013-052310_Plants Vs Zombies 2.jpg" arWidth="2560" arHeight="1440" duration="0" songTitle="" songArtist="" songAlbum="" songCopyrightUrl="" songArtistUrl="" songAudioFileUrl="" stabilizationMode="0" mediaItemType="2" />
    <MediaItem id="310" filePath="C:\Users\sean walla walla\Desktop\My Life Story\My life story (Modern Journaling folder)\Milestone 2\daily articles\2018\10 October 2018\! Overview\Pictures\All together\Screenshot_20181013-052323_Plants Vs Zombies 2.jpg" arWidth="2560" arHeight="1440" duration="0" songTitle="" songArtist="" songAlbum="" songCopyrightUrl="" songArtistUrl="" songAudioFileUrl="" stabilizationMode="0" mediaItemType="2" />
    <MediaItem id="311" filePath="C:\Users\sean walla walla\Desktop\My Life Story\My life story (Modern Journaling folder)\Milestone 2\daily articles\2018\10 October 2018\! Overview\Pictures\All together\Screenshot_20181013-054722_Plants Vs Zombies 2.jpg" arWidth="2560" arHeight="1440" duration="0" songTitle="" songArtist="" songAlbum="" songCopyrightUrl="" songArtistUrl="" songAudioFileUrl="" stabilizationMode="0" mediaItemType="2" />
    <MediaItem id="312" filePath="C:\Users\sean walla walla\Desktop\My Life Story\My life story (Modern Journaling folder)\Milestone 2\daily articles\2018\10 October 2018\! Overview\Pictures\All together\Screenshot_20181013-054802_AdCap!.jpg" arWidth="2560" arHeight="1440" duration="0" songTitle="" songArtist="" songAlbum="" songCopyrightUrl="" songArtistUrl="" songAudioFileUrl="" stabilizationMode="0" mediaItemType="2" />
    <MediaItem id="313" filePath="C:\Users\sean walla walla\Desktop\My Life Story\My life story (Modern Journaling folder)\Milestone 2\daily articles\2018\10 October 2018\! Overview\Pictures\All together\Screenshot_20181013-054807_AdCap!.jpg" arWidth="2560" arHeight="1440" duration="0" songTitle="" songArtist="" songAlbum="" songCopyrightUrl="" songArtistUrl="" songAudioFileUrl="" stabilizationMode="0" mediaItemType="2" />
    <MediaItem id="314" filePath="C:\Users\sean walla walla\Desktop\My Life Story\My life story (Modern Journaling folder)\Milestone 2\daily articles\2018\10 October 2018\! Overview\Pictures\All together\Screenshot_20181013-054913_AdCap!.jpg" arWidth="2560" arHeight="1440" duration="0" songTitle="" songArtist="" songAlbum="" songCopyrightUrl="" songArtistUrl="" songAudioFileUrl="" stabilizationMode="0" mediaItemType="2" />
    <MediaItem id="315" filePath="C:\Users\sean walla walla\Desktop\My Life Story\My life story (Modern Journaling folder)\Milestone 2\daily articles\2018\10 October 2018\! Overview\Pictures\All together\Screenshot_20181013-054924_AdCap!.jpg" arWidth="2560" arHeight="1440" duration="0" songTitle="" songArtist="" songAlbum="" songCopyrightUrl="" songArtistUrl="" songAudioFileUrl="" stabilizationMode="0" mediaItemType="2" />
    <MediaItem id="316" filePath="C:\Users\sean walla walla\Desktop\My Life Story\My life story (Modern Journaling folder)\Milestone 2\daily articles\2018\10 October 2018\! Overview\Pictures\All together\Screenshot_20181013-055010_AdCap!.jpg" arWidth="2560" arHeight="1440" duration="0" songTitle="" songArtist="" songAlbum="" songCopyrightUrl="" songArtistUrl="" songAudioFileUrl="" stabilizationMode="0" mediaItemType="2" />
    <MediaItem id="317" filePath="C:\Users\sean walla walla\Desktop\My Life Story\My life story (Modern Journaling folder)\Milestone 2\daily articles\2018\10 October 2018\! Overview\Pictures\All together\Screenshot_20181013-055049_AdCap!.jpg" arWidth="2560" arHeight="1440" duration="0" songTitle="" songArtist="" songAlbum="" songCopyrightUrl="" songArtistUrl="" songAudioFileUrl="" stabilizationMode="0" mediaItemType="2" />
    <MediaItem id="318" filePath="C:\Users\sean walla walla\Desktop\My Life Story\My life story (Modern Journaling folder)\Milestone 2\daily articles\2018\10 October 2018\! Overview\Pictures\All together\Screenshot_20181013-055057_AdCap!.jpg" arWidth="2560" arHeight="1440" duration="0" songTitle="" songArtist="" songAlbum="" songCopyrightUrl="" songArtistUrl="" songAudioFileUrl="" stabilizationMode="0" mediaItemType="2" />
    <MediaItem id="319" filePath="C:\Users\sean walla walla\Desktop\My Life Story\My life story (Modern Journaling folder)\Milestone 2\daily articles\2018\10 October 2018\! Overview\Pictures\All together\Screenshot_20181013-055141_AdCap!.jpg" arWidth="2560" arHeight="1440" duration="0" songTitle="" songArtist="" songAlbum="" songCopyrightUrl="" songArtistUrl="" songAudioFileUrl="" stabilizationMode="0" mediaItemType="2" />
    <MediaItem id="320" filePath="C:\Users\sean walla walla\Desktop\My Life Story\My life story (Modern Journaling folder)\Milestone 2\daily articles\2018\10 October 2018\! Overview\Pictures\All together\Screenshot_20181013-072838_AdCap!.jpg" arWidth="2560" arHeight="1440" duration="0" songTitle="" songArtist="" songAlbum="" songCopyrightUrl="" songArtistUrl="" songAudioFileUrl="" stabilizationMode="0" mediaItemType="2" />
    <MediaItem id="321" filePath="C:\Users\sean walla walla\Desktop\My Life Story\My life story (Modern Journaling folder)\Milestone 2\daily articles\2018\10 October 2018\! Overview\Pictures\All together\Screenshot_20181013-072906_Merge Plane.jpg" arWidth="1440" arHeight="2560" duration="0" songTitle="" songArtist="" songAlbum="" songCopyrightUrl="" songArtistUrl="" songAudioFileUrl="" stabilizationMode="0" mediaItemType="2" />
    <MediaItem id="322" filePath="C:\Users\sean walla walla\Desktop\My Life Story\My life story (Modern Journaling folder)\Milestone 2\daily articles\2018\10 October 2018\! Overview\Pictures\All together\Screenshot_20181013-072913_Merge Plane.jpg" arWidth="1440" arHeight="2560" duration="0" songTitle="" songArtist="" songAlbum="" songCopyrightUrl="" songArtistUrl="" songAudioFileUrl="" stabilizationMode="0" mediaItemType="2" />
    <MediaItem id="323" filePath="C:\Users\sean walla walla\Desktop\My Life Story\My life story (Modern Journaling folder)\Milestone 2\daily articles\2018\10 October 2018\! Overview\Pictures\All together\Screenshot_20181013-091750_Merge Plane.jpg" arWidth="1440" arHeight="2560" duration="0" songTitle="" songArtist="" songAlbum="" songCopyrightUrl="" songArtistUrl="" songAudioFileUrl="" stabilizationMode="0" mediaItemType="2" />
    <MediaItem id="324" filePath="C:\Users\sean walla walla\Desktop\My Life Story\My life story (Modern Journaling folder)\Milestone 2\daily articles\2018\10 October 2018\! Overview\Pictures\All together\Screenshot_20181013-091755_Merge Plane.jpg" arWidth="1440" arHeight="2560" duration="0" songTitle="" songArtist="" songAlbum="" songCopyrightUrl="" songArtistUrl="" songAudioFileUrl="" stabilizationMode="0" mediaItemType="2" />
    <MediaItem id="325" filePath="C:\Users\sean walla walla\Desktop\My Life Story\My life story (Modern Journaling folder)\Milestone 2\daily articles\2018\10 October 2018\! Overview\Pictures\All together\Screenshot_20181013-091800_Merge Plane.jpg" arWidth="1440" arHeight="2560" duration="0" songTitle="" songArtist="" songAlbum="" songCopyrightUrl="" songArtistUrl="" songAudioFileUrl="" stabilizationMode="0" mediaItemType="2" />
    <MediaItem id="326" filePath="C:\Users\sean walla walla\Desktop\My Life Story\My life story (Modern Journaling folder)\Milestone 2\daily articles\2018\10 October 2018\! Overview\Pictures\All together\Screenshot_20181013-091810_Merge Plane.jpg" arWidth="1440" arHeight="2560" duration="0" songTitle="" songArtist="" songAlbum="" songCopyrightUrl="" songArtistUrl="" songAudioFileUrl="" stabilizationMode="0" mediaItemType="2" />
    <MediaItem id="327" filePath="C:\Users\sean walla walla\Desktop\My Life Story\My life story (Modern Journaling folder)\Milestone 2\daily articles\2018\10 October 2018\! Overview\Pictures\All together\Screenshot_20181014-072531_Plants Vs Zombies 2.jpg" arWidth="2560" arHeight="1440" duration="0" songTitle="" songArtist="" songAlbum="" songCopyrightUrl="" songArtistUrl="" songAudioFileUrl="" stabilizationMode="0" mediaItemType="2" />
    <MediaItem id="328" filePath="C:\Users\sean walla walla\Desktop\My Life Story\My life story (Modern Journaling folder)\Milestone 2\daily articles\2018\10 October 2018\! Overview\Pictures\All together\Screenshot_20181014-072538_Plants Vs Zombies 2.jpg" arWidth="2560" arHeight="1440" duration="0" songTitle="" songArtist="" songAlbum="" songCopyrightUrl="" songArtistUrl="" songAudioFileUrl="" stabilizationMode="0" mediaItemType="2" />
    <MediaItem id="329" filePath="C:\Users\sean walla walla\Desktop\My Life Story\My life story (Modern Journaling folder)\Milestone 2\daily articles\2018\10 October 2018\! Overview\Pictures\All together\Screenshot_20181014-074956_Plants Vs Zombies 2.jpg" arWidth="2560" arHeight="1440" duration="0" songTitle="" songArtist="" songAlbum="" songCopyrightUrl="" songArtistUrl="" songAudioFileUrl="" stabilizationMode="0" mediaItemType="2" />
    <MediaItem id="330" filePath="C:\Users\sean walla walla\Desktop\My Life Story\My life story (Modern Journaling folder)\Milestone 2\daily articles\2018\10 October 2018\! Overview\Pictures\All together\Screenshot_20181014-075039_AdCap!.jpg" arWidth="2560" arHeight="1440" duration="0" songTitle="" songArtist="" songAlbum="" songCopyrightUrl="" songArtistUrl="" songAudioFileUrl="" stabilizationMode="0" mediaItemType="2" />
    <MediaItem id="331" filePath="C:\Users\sean walla walla\Desktop\My Life Story\My life story (Modern Journaling folder)\Milestone 2\daily articles\2018\10 October 2018\! Overview\Pictures\All together\Screenshot_20181014-075113_AdCap!.jpg" arWidth="2560" arHeight="1440" duration="0" songTitle="" songArtist="" songAlbum="" songCopyrightUrl="" songArtistUrl="" songAudioFileUrl="" stabilizationMode="0" mediaItemType="2" />
    <MediaItem id="332" filePath="C:\Users\sean walla walla\Desktop\My Life Story\My life story (Modern Journaling folder)\Milestone 2\daily articles\2018\10 October 2018\! Overview\Pictures\All together\Screenshot_20181014-075216_AdCap!.jpg" arWidth="2560" arHeight="1440" duration="0" songTitle="" songArtist="" songAlbum="" songCopyrightUrl="" songArtistUrl="" songAudioFileUrl="" stabilizationMode="0" mediaItemType="2" />
    <MediaItem id="333" filePath="C:\Users\sean walla walla\Desktop\My Life Story\My life story (Modern Journaling folder)\Milestone 2\daily articles\2018\10 October 2018\! Overview\Pictures\All together\Screenshot_20181014-075235_AdCap!.jpg" arWidth="2560" arHeight="1440" duration="0" songTitle="" songArtist="" songAlbum="" songCopyrightUrl="" songArtistUrl="" songAudioFileUrl="" stabilizationMode="0" mediaItemType="2" />
    <MediaItem id="334" filePath="C:\Users\sean walla walla\Desktop\My Life Story\My life story (Modern Journaling folder)\Milestone 2\daily articles\2018\10 October 2018\! Overview\Pictures\All together\Screenshot_20181014-075306_AdCap!.jpg" arWidth="2560" arHeight="1440" duration="0" songTitle="" songArtist="" songAlbum="" songCopyrightUrl="" songArtistUrl="" songAudioFileUrl="" stabilizationMode="0" mediaItemType="2" />
    <MediaItem id="335" filePath="C:\Users\sean walla walla\Desktop\My Life Story\My life story (Modern Journaling folder)\Milestone 2\daily articles\2018\10 October 2018\! Overview\Pictures\All together\Screenshot_20181014-075342_AdCap!.jpg" arWidth="2560" arHeight="1440" duration="0" songTitle="" songArtist="" songAlbum="" songCopyrightUrl="" songArtistUrl="" songAudioFileUrl="" stabilizationMode="0" mediaItemType="2" />
    <MediaItem id="336" filePath="C:\Users\sean walla walla\Desktop\My Life Story\My life story (Modern Journaling folder)\Milestone 2\daily articles\2018\10 October 2018\! Overview\Pictures\All together\Screenshot_20181014-075350_AdCap!.jpg" arWidth="2560" arHeight="1440" duration="0" songTitle="" songArtist="" songAlbum="" songCopyrightUrl="" songArtistUrl="" songAudioFileUrl="" stabilizationMode="0" mediaItemType="2" />
    <MediaItem id="337" filePath="C:\Users\sean walla walla\Desktop\My Life Story\My life story (Modern Journaling folder)\Milestone 2\daily articles\2018\10 October 2018\! Overview\Pictures\All together\Screenshot_20181014-075414_AdCap!.jpg" arWidth="2560" arHeight="1440" duration="0" songTitle="" songArtist="" songAlbum="" songCopyrightUrl="" songArtistUrl="" songAudioFileUrl="" stabilizationMode="0" mediaItemType="2" />
    <MediaItem id="338" filePath="C:\Users\sean walla walla\Desktop\My Life Story\My life story (Modern Journaling folder)\Milestone 2\daily articles\2018\10 October 2018\! Overview\Pictures\All together\Screenshot_20181014-075538_AdCap!.jpg" arWidth="2560" arHeight="1440" duration="0" songTitle="" songArtist="" songAlbum="" songCopyrightUrl="" songArtistUrl="" songAudioFileUrl="" stabilizationMode="0" mediaItemType="2" />
    <MediaItem id="339" filePath="C:\Users\sean walla walla\Desktop\My Life Story\My life story (Modern Journaling folder)\Milestone 2\daily articles\2018\10 October 2018\! Overview\Pictures\All together\Screenshot_20181014-075543_AdCap!.jpg" arWidth="2560" arHeight="1440" duration="0" songTitle="" songArtist="" songAlbum="" songCopyrightUrl="" songArtistUrl="" songAudioFileUrl="" stabilizationMode="0" mediaItemType="2" />
    <MediaItem id="340" filePath="C:\Users\sean walla walla\Desktop\My Life Story\My life story (Modern Journaling folder)\Milestone 2\daily articles\2018\10 October 2018\! Overview\Pictures\All together\Screenshot_20181014-075548_AdCap!.jpg" arWidth="2560" arHeight="1440" duration="0" songTitle="" songArtist="" songAlbum="" songCopyrightUrl="" songArtistUrl="" songAudioFileUrl="" stabilizationMode="0" mediaItemType="2" />
    <MediaItem id="341" filePath="C:\Users\sean walla walla\Desktop\My Life Story\My life story (Modern Journaling folder)\Milestone 2\daily articles\2018\10 October 2018\! Overview\Pictures\All together\Screenshot_20181014-075553_AdCap!.jpg" arWidth="2560" arHeight="1440" duration="0" songTitle="" songArtist="" songAlbum="" songCopyrightUrl="" songArtistUrl="" songAudioFileUrl="" stabilizationMode="0" mediaItemType="2" />
    <MediaItem id="342" filePath="C:\Users\sean walla walla\Desktop\My Life Story\My life story (Modern Journaling folder)\Milestone 2\daily articles\2018\10 October 2018\! Overview\Pictures\All together\Screenshot_20181014-075623_AdCap!.jpg" arWidth="2560" arHeight="1440" duration="0" songTitle="" songArtist="" songAlbum="" songCopyrightUrl="" songArtistUrl="" songAudioFileUrl="" stabilizationMode="0" mediaItemType="2" />
    <MediaItem id="343" filePath="C:\Users\sean walla walla\Desktop\My Life Story\My life story (Modern Journaling folder)\Milestone 2\daily articles\2018\10 October 2018\! Overview\Pictures\All together\Screenshot_20181014-075647_Merge Plane.jpg" arWidth="1440" arHeight="2560" duration="0" songTitle="" songArtist="" songAlbum="" songCopyrightUrl="" songArtistUrl="" songAudioFileUrl="" stabilizationMode="0" mediaItemType="2" />
    <MediaItem id="344" filePath="C:\Users\sean walla walla\Desktop\My Life Story\My life story (Modern Journaling folder)\Milestone 2\daily articles\2018\10 October 2018\! Overview\Pictures\All together\Screenshot_20181014-075654_Merge Plane.jpg" arWidth="1440" arHeight="2560" duration="0" songTitle="" songArtist="" songAlbum="" songCopyrightUrl="" songArtistUrl="" songAudioFileUrl="" stabilizationMode="0" mediaItemType="2" />
    <MediaItem id="345" filePath="C:\Users\sean walla walla\Desktop\My Life Story\My life story (Modern Journaling folder)\Milestone 2\daily articles\2018\10 October 2018\! Overview\Pictures\All together\Screenshot_20181014-084917_Merge Plane.jpg" arWidth="1440" arHeight="2560" duration="0" songTitle="" songArtist="" songAlbum="" songCopyrightUrl="" songArtistUrl="" songAudioFileUrl="" stabilizationMode="0" mediaItemType="2" />
    <MediaItem id="346" filePath="C:\Users\sean walla walla\Desktop\My Life Story\My life story (Modern Journaling folder)\Milestone 2\daily articles\2018\10 October 2018\! Overview\Pictures\All together\Screenshot_20181014-084922_Merge Plane.jpg" arWidth="1440" arHeight="2560" duration="0" songTitle="" songArtist="" songAlbum="" songCopyrightUrl="" songArtistUrl="" songAudioFileUrl="" stabilizationMode="0" mediaItemType="2" />
    <MediaItem id="347" filePath="C:\Users\sean walla walla\Desktop\My Life Story\My life story (Modern Journaling folder)\Milestone 2\daily articles\2018\10 October 2018\! Overview\Pictures\All together\Screenshot_20181014-084927_Merge Plane.jpg" arWidth="1440" arHeight="2560" duration="0" songTitle="" songArtist="" songAlbum="" songCopyrightUrl="" songArtistUrl="" songAudioFileUrl="" stabilizationMode="0" mediaItemType="2" />
    <MediaItem id="348" filePath="C:\Users\sean walla walla\Desktop\My Life Story\My life story (Modern Journaling folder)\Milestone 2\daily articles\2018\10 October 2018\! Overview\Pictures\All together\Screenshot_20181014-084938_Merge Plane.jpg" arWidth="1440" arHeight="2560" duration="0" songTitle="" songArtist="" songAlbum="" songCopyrightUrl="" songArtistUrl="" songAudioFileUrl="" stabilizationMode="0" mediaItemType="2" />
    <MediaItem id="349" filePath="C:\Users\sean walla walla\Desktop\My Life Story\My life story (Modern Journaling folder)\Milestone 2\daily articles\2018\10 October 2018\! Overview\Pictures\All together\Screenshot_20181015-040238_Plants Vs Zombies 2.jpg" arWidth="2560" arHeight="1440" duration="0" songTitle="" songArtist="" songAlbum="" songCopyrightUrl="" songArtistUrl="" songAudioFileUrl="" stabilizationMode="0" mediaItemType="2" />
    <MediaItem id="350" filePath="C:\Users\sean walla walla\Desktop\My Life Story\My life story (Modern Journaling folder)\Milestone 2\daily articles\2018\10 October 2018\! Overview\Pictures\All together\Screenshot_20181015-040248_Plants Vs Zombies 2.jpg" arWidth="2560" arHeight="1440" duration="0" songTitle="" songArtist="" songAlbum="" songCopyrightUrl="" songArtistUrl="" songAudioFileUrl="" stabilizationMode="0" mediaItemType="2" />
    <MediaItem id="351" filePath="C:\Users\sean walla walla\Desktop\My Life Story\My life story (Modern Journaling folder)\Milestone 2\daily articles\2018\10 October 2018\! Overview\Pictures\All together\Screenshot_20181015-043310_Plants Vs Zombies 2.jpg" arWidth="2560" arHeight="1440" duration="0" songTitle="" songArtist="" songAlbum="" songCopyrightUrl="" songArtistUrl="" songAudioFileUrl="" stabilizationMode="0" mediaItemType="2" />
    <MediaItem id="352" filePath="C:\Users\sean walla walla\Desktop\My Life Story\My life story (Modern Journaling folder)\Milestone 2\daily articles\2018\10 October 2018\! Overview\Pictures\All together\Screenshot_20181016-041059_Plants Vs Zombies 2.jpg" arWidth="2560" arHeight="1440" duration="0" songTitle="" songArtist="" songAlbum="" songCopyrightUrl="" songArtistUrl="" songAudioFileUrl="" stabilizationMode="0" mediaItemType="2" />
    <MediaItem id="353" filePath="C:\Users\sean walla walla\Desktop\My Life Story\My life story (Modern Journaling folder)\Milestone 2\daily articles\2018\10 October 2018\! Overview\Pictures\All together\Screenshot_20181016-043135_Plants Vs Zombies 2.jpg" arWidth="2560" arHeight="1440" duration="0" songTitle="" songArtist="" songAlbum="" songCopyrightUrl="" songArtistUrl="" songAudioFileUrl="" stabilizationMode="0" mediaItemType="2" />
    <MediaItem id="354" filePath="C:\Users\sean walla walla\Desktop\My Life Story\My life story (Modern Journaling folder)\Milestone 2\daily articles\2018\10 October 2018\! Overview\Pictures\All together\Screenshot_20181017-041231_Plants Vs Zombies 2.jpg" arWidth="2560" arHeight="1440" duration="0" songTitle="" songArtist="" songAlbum="" songCopyrightUrl="" songArtistUrl="" songAudioFileUrl="" stabilizationMode="0" mediaItemType="2" />
    <MediaItem id="355" filePath="C:\Users\sean walla walla\Desktop\My Life Story\My life story (Modern Journaling folder)\Milestone 2\daily articles\2018\10 October 2018\! Overview\Pictures\All together\Screenshot_20181017-041515_Plants Vs Zombies 2.jpg" arWidth="2560" arHeight="1440" duration="0" songTitle="" songArtist="" songAlbum="" songCopyrightUrl="" songArtistUrl="" songAudioFileUrl="" stabilizationMode="0" mediaItemType="2" />
    <MediaItem id="356" filePath="C:\Users\sean walla walla\Desktop\My Life Story\My life story (Modern Journaling folder)\Milestone 2\daily articles\2018\10 October 2018\! Overview\Pictures\All together\Screenshot_20181017-041523_Plants Vs Zombies 2.jpg" arWidth="2560" arHeight="1440" duration="0" songTitle="" songArtist="" songAlbum="" songCopyrightUrl="" songArtistUrl="" songAudioFileUrl="" stabilizationMode="0" mediaItemType="2" />
    <MediaItem id="357" filePath="C:\Users\sean walla walla\Desktop\My Life Story\My life story (Modern Journaling folder)\Milestone 2\daily articles\2018\10 October 2018\! Overview\Pictures\All together\Screenshot_20181017-044419_Plants Vs Zombies 2.jpg" arWidth="2560" arHeight="1440" duration="0" songTitle="" songArtist="" songAlbum="" songCopyrightUrl="" songArtistUrl="" songAudioFileUrl="" stabilizationMode="0" mediaItemType="2" />
    <MediaItem id="358" filePath="C:\Users\sean walla walla\Desktop\My Life Story\My life story (Modern Journaling folder)\Milestone 2\daily articles\2018\10 October 2018\! Overview\Pictures\All together\Screenshot_20181018-035917_Plants Vs Zombies 2.jpg" arWidth="2560" arHeight="1440" duration="0" songTitle="" songArtist="" songAlbum="" songCopyrightUrl="" songArtistUrl="" songAudioFileUrl="" stabilizationMode="0" mediaItemType="2" />
    <MediaItem id="359" filePath="C:\Users\sean walla walla\Desktop\My Life Story\My life story (Modern Journaling folder)\Milestone 2\daily articles\2018\10 October 2018\! Overview\Pictures\All together\Screenshot_20181018-035925_Plants Vs Zombies 2.jpg" arWidth="2560" arHeight="1440" duration="0" songTitle="" songArtist="" songAlbum="" songCopyrightUrl="" songArtistUrl="" songAudioFileUrl="" stabilizationMode="0" mediaItemType="2" />
    <MediaItem id="360" filePath="C:\Users\sean walla walla\Desktop\My Life Story\My life story (Modern Journaling folder)\Milestone 2\daily articles\2018\10 October 2018\! Overview\Pictures\All together\Screenshot_20181018-043557_Plants Vs Zombies 2.jpg" arWidth="2560" arHeight="1440" duration="0" songTitle="" songArtist="" songAlbum="" songCopyrightUrl="" songArtistUrl="" songAudioFileUrl="" stabilizationMode="0" mediaItemType="2" />
    <MediaItem id="361" filePath="C:\Users\sean walla walla\Desktop\My Life Story\My life story (Modern Journaling folder)\Milestone 2\daily articles\2018\10 October 2018\! Overview\Pictures\All together\Screenshot_20181019-074858_Plants Vs Zombies 2.jpg" arWidth="2560" arHeight="1440" duration="0" songTitle="" songArtist="" songAlbum="" songCopyrightUrl="" songArtistUrl="" songAudioFileUrl="" stabilizationMode="0" mediaItemType="2" />
    <MediaItem id="362" filePath="C:\Users\sean walla walla\Desktop\My Life Story\My life story (Modern Journaling folder)\Milestone 2\daily articles\2018\10 October 2018\! Overview\Pictures\All together\Screenshot_20181019-074907_Plants Vs Zombies 2.jpg" arWidth="2560" arHeight="1440" duration="0" songTitle="" songArtist="" songAlbum="" songCopyrightUrl="" songArtistUrl="" songAudioFileUrl="" stabilizationMode="0" mediaItemType="2" />
    <MediaItem id="363" filePath="C:\Users\sean walla walla\Desktop\My Life Story\My life story (Modern Journaling folder)\Milestone 2\daily articles\2018\10 October 2018\! Overview\Pictures\All together\Screenshot_20181019-210605_Plants Vs Zombies 2.jpg" arWidth="2560" arHeight="1440" duration="0" songTitle="" songArtist="" songAlbum="" songCopyrightUrl="" songArtistUrl="" songAudioFileUrl="" stabilizationMode="0" mediaItemType="2" />
    <MediaItem id="364" filePath="C:\Users\sean walla walla\Desktop\My Life Story\My life story (Modern Journaling folder)\Milestone 2\daily articles\2018\10 October 2018\! Overview\Pictures\All together\Screenshot_20181020-092507_Plants Vs Zombies 2.jpg" arWidth="2560" arHeight="1440" duration="0" songTitle="" songArtist="" songAlbum="" songCopyrightUrl="" songArtistUrl="" songAudioFileUrl="" stabilizationMode="0" mediaItemType="2" />
    <MediaItem id="365" filePath="C:\Users\sean walla walla\Desktop\My Life Story\My life story (Modern Journaling folder)\Milestone 2\daily articles\2018\10 October 2018\! Overview\Pictures\All together\Screenshot_20181020-092517_Plants Vs Zombies 2.jpg" arWidth="2560" arHeight="1440" duration="0" songTitle="" songArtist="" songAlbum="" songCopyrightUrl="" songArtistUrl="" songAudioFileUrl="" stabilizationMode="0" mediaItemType="2" />
    <MediaItem id="366" filePath="C:\Users\sean walla walla\Desktop\My Life Story\My life story (Modern Journaling folder)\Milestone 2\daily articles\2018\10 October 2018\! Overview\Pictures\All together\Screenshot_20181020-094546_Plants Vs Zombies 2.jpg" arWidth="2560" arHeight="1440" duration="0" songTitle="" songArtist="" songAlbum="" songCopyrightUrl="" songArtistUrl="" songAudioFileUrl="" stabilizationMode="0" mediaItemType="2" />
    <MediaItem id="367" filePath="C:\Users\sean walla walla\Desktop\My Life Story\My life story (Modern Journaling folder)\Milestone 2\daily articles\2018\10 October 2018\! Overview\Pictures\All together\Screenshot_20181020-094624_AdCap!.jpg" arWidth="2560" arHeight="1440" duration="0" songTitle="" songArtist="" songAlbum="" songCopyrightUrl="" songArtistUrl="" songAudioFileUrl="" stabilizationMode="0" mediaItemType="2" />
    <MediaItem id="368" filePath="C:\Users\sean walla walla\Desktop\My Life Story\My life story (Modern Journaling folder)\Milestone 2\daily articles\2018\10 October 2018\! Overview\Pictures\All together\Screenshot_20181020-094712_AdCap!.jpg" arWidth="2560" arHeight="1440" duration="0" songTitle="" songArtist="" songAlbum="" songCopyrightUrl="" songArtistUrl="" songAudioFileUrl="" stabilizationMode="0" mediaItemType="2" />
    <MediaItem id="369" filePath="C:\Users\sean walla walla\Desktop\My Life Story\My life story (Modern Journaling folder)\Milestone 2\daily articles\2018\10 October 2018\! Overview\Pictures\All together\Screenshot_20181020-094815_AdCap!.jpg" arWidth="2560" arHeight="1440" duration="0" songTitle="" songArtist="" songAlbum="" songCopyrightUrl="" songArtistUrl="" songAudioFileUrl="" stabilizationMode="0" mediaItemType="2" />
    <MediaItem id="370" filePath="C:\Users\sean walla walla\Desktop\My Life Story\My life story (Modern Journaling folder)\Milestone 2\daily articles\2018\10 October 2018\! Overview\Pictures\All together\Screenshot_20181020-094833_AdCap!.jpg" arWidth="2560" arHeight="1440" duration="0" songTitle="" songArtist="" songAlbum="" songCopyrightUrl="" songArtistUrl="" songAudioFileUrl="" stabilizationMode="0" mediaItemType="2" />
    <MediaItem id="371" filePath="C:\Users\sean walla walla\Desktop\My Life Story\My life story (Modern Journaling folder)\Milestone 2\daily articles\2018\10 October 2018\! Overview\Pictures\All together\Screenshot_20181020-094859_AdCap!.jpg" arWidth="2560" arHeight="1440" duration="0" songTitle="" songArtist="" songAlbum="" songCopyrightUrl="" songArtistUrl="" songAudioFileUrl="" stabilizationMode="0" mediaItemType="2" />
    <MediaItem id="372" filePath="C:\Users\sean walla walla\Desktop\My Life Story\My life story (Modern Journaling folder)\Milestone 2\daily articles\2018\10 October 2018\! Overview\Pictures\All together\Screenshot_20181020-094925_AdCap!.jpg" arWidth="2560" arHeight="1440" duration="0" songTitle="" songArtist="" songAlbum="" songCopyrightUrl="" songArtistUrl="" songAudioFileUrl="" stabilizationMode="0" mediaItemType="2" />
    <MediaItem id="373" filePath="C:\Users\sean walla walla\Desktop\My Life Story\My life story (Modern Journaling folder)\Milestone 2\daily articles\2018\10 October 2018\! Overview\Pictures\All together\Screenshot_20181020-094959_Merge Plane.jpg" arWidth="1440" arHeight="2560" duration="0" songTitle="" songArtist="" songAlbum="" songCopyrightUrl="" songArtistUrl="" songAudioFileUrl="" stabilizationMode="0" mediaItemType="2" />
    <MediaItem id="374" filePath="C:\Users\sean walla walla\Desktop\My Life Story\My life story (Modern Journaling folder)\Milestone 2\daily articles\2018\10 October 2018\! Overview\Pictures\All together\Screenshot_20181020-095003_Merge Plane.jpg" arWidth="1440" arHeight="2560" duration="0" songTitle="" songArtist="" songAlbum="" songCopyrightUrl="" songArtistUrl="" songAudioFileUrl="" stabilizationMode="0" mediaItemType="2" />
    <MediaItem id="375" filePath="C:\Users\sean walla walla\Desktop\My Life Story\My life story (Modern Journaling folder)\Milestone 2\daily articles\2018\10 October 2018\! Overview\Pictures\All together\Screenshot_20181020-100544_Merge Plane.jpg" arWidth="1440" arHeight="2560" duration="0" songTitle="" songArtist="" songAlbum="" songCopyrightUrl="" songArtistUrl="" songAudioFileUrl="" stabilizationMode="0" mediaItemType="2" />
    <MediaItem id="376" filePath="C:\Users\sean walla walla\Desktop\My Life Story\My life story (Modern Journaling folder)\Milestone 2\daily articles\2018\10 October 2018\! Overview\Pictures\All together\Screenshot_20181020-100648_Merge Plane.jpg" arWidth="1440" arHeight="2560" duration="0" songTitle="" songArtist="" songAlbum="" songCopyrightUrl="" songArtistUrl="" songAudioFileUrl="" stabilizationMode="0" mediaItemType="2" />
    <MediaItem id="377" filePath="C:\Users\sean walla walla\Desktop\My Life Story\My life story (Modern Journaling folder)\Milestone 2\daily articles\2018\10 October 2018\! Overview\Pictures\All together\Screenshot_20181020-100653_Merge Plane.jpg" arWidth="1440" arHeight="2560" duration="0" songTitle="" songArtist="" songAlbum="" songCopyrightUrl="" songArtistUrl="" songAudioFileUrl="" stabilizationMode="0" mediaItemType="2" />
    <MediaItem id="378" filePath="C:\Users\sean walla walla\Desktop\My Life Story\My life story (Modern Journaling folder)\Milestone 2\daily articles\2018\10 October 2018\! Overview\Pictures\All together\Screenshot_20181020-100658_Merge Plane.jpg" arWidth="1440" arHeight="2560" duration="0" songTitle="" songArtist="" songAlbum="" songCopyrightUrl="" songArtistUrl="" songAudioFileUrl="" stabilizationMode="0" mediaItemType="2" />
    <MediaItem id="379" filePath="C:\Users\sean walla walla\Desktop\My Life Story\My life story (Modern Journaling folder)\Milestone 2\daily articles\2018\10 October 2018\! Overview\Pictures\All together\Screenshot_20181020-100711_Merge Plane.jpg" arWidth="1440" arHeight="2560" duration="0" songTitle="" songArtist="" songAlbum="" songCopyrightUrl="" songArtistUrl="" songAudioFileUrl="" stabilizationMode="0" mediaItemType="2" />
    <MediaItem id="380" filePath="C:\Users\sean walla walla\Desktop\My Life Story\My life story (Modern Journaling folder)\Milestone 2\daily articles\2018\10 October 2018\! Overview\Pictures\All together\Screenshot_20181021-092057_Plants Vs Zombies 2.jpg" arWidth="2560" arHeight="1440" duration="0" songTitle="" songArtist="" songAlbum="" songCopyrightUrl="" songArtistUrl="" songAudioFileUrl="" stabilizationMode="0" mediaItemType="2" />
    <MediaItem id="381" filePath="C:\Users\sean walla walla\Desktop\My Life Story\My life story (Modern Journaling folder)\Milestone 2\daily articles\2018\10 October 2018\! Overview\Pictures\All together\Screenshot_20181021-092104_Plants Vs Zombies 2.jpg" arWidth="2560" arHeight="1440" duration="0" songTitle="" songArtist="" songAlbum="" songCopyrightUrl="" songArtistUrl="" songAudioFileUrl="" stabilizationMode="0" mediaItemType="2" />
    <MediaItem id="382" filePath="C:\Users\sean walla walla\Desktop\My Life Story\My life story (Modern Journaling folder)\Milestone 2\daily articles\2018\10 October 2018\! Overview\Pictures\All together\Screenshot_20181021-094207_Plants Vs Zombies 2.jpg" arWidth="2560" arHeight="1440" duration="0" songTitle="" songArtist="" songAlbum="" songCopyrightUrl="" songArtistUrl="" songAudioFileUrl="" stabilizationMode="0" mediaItemType="2" />
    <MediaItem id="383" filePath="C:\Users\sean walla walla\Desktop\My Life Story\My life story (Modern Journaling folder)\Milestone 2\daily articles\2018\10 October 2018\! Overview\Pictures\All together\Screenshot_20181021-094240_AdCap!.jpg" arWidth="2560" arHeight="1440" duration="0" songTitle="" songArtist="" songAlbum="" songCopyrightUrl="" songArtistUrl="" songAudioFileUrl="" stabilizationMode="0" mediaItemType="2" />
    <MediaItem id="384" filePath="C:\Users\sean walla walla\Desktop\My Life Story\My life story (Modern Journaling folder)\Milestone 2\daily articles\2018\10 October 2018\! Overview\Pictures\All together\Screenshot_20181021-094336_AdCap!.jpg" arWidth="2560" arHeight="1440" duration="0" songTitle="" songArtist="" songAlbum="" songCopyrightUrl="" songArtistUrl="" songAudioFileUrl="" stabilizationMode="0" mediaItemType="2" />
    <MediaItem id="385" filePath="C:\Users\sean walla walla\Desktop\My Life Story\My life story (Modern Journaling folder)\Milestone 2\daily articles\2018\10 October 2018\! Overview\Pictures\All together\Screenshot_20181021-094442_AdCap!.jpg" arWidth="2560" arHeight="1440" duration="0" songTitle="" songArtist="" songAlbum="" songCopyrightUrl="" songArtistUrl="" songAudioFileUrl="" stabilizationMode="0" mediaItemType="2" />
    <MediaItem id="386" filePath="C:\Users\sean walla walla\Desktop\My Life Story\My life story (Modern Journaling folder)\Milestone 2\daily articles\2018\10 October 2018\! Overview\Pictures\All together\Screenshot_20181021-094452_AdCap!.jpg" arWidth="2560" arHeight="1440" duration="0" songTitle="" songArtist="" songAlbum="" songCopyrightUrl="" songArtistUrl="" songAudioFileUrl="" stabilizationMode="0" mediaItemType="2" />
    <MediaItem id="387" filePath="C:\Users\sean walla walla\Desktop\My Life Story\My life story (Modern Journaling folder)\Milestone 2\daily articles\2018\10 October 2018\! Overview\Pictures\All together\Screenshot_20181021-094517_AdCap!.jpg" arWidth="2560" arHeight="1440" duration="0" songTitle="" songArtist="" songAlbum="" songCopyrightUrl="" songArtistUrl="" songAudioFileUrl="" stabilizationMode="0" mediaItemType="2" />
    <MediaItem id="388" filePath="C:\Users\sean walla walla\Desktop\My Life Story\My life story (Modern Journaling folder)\Milestone 2\daily articles\2018\10 October 2018\! Overview\Pictures\All together\Screenshot_20181021-100707_AdCap!.jpg" arWidth="2560" arHeight="1440" duration="0" songTitle="" songArtist="" songAlbum="" songCopyrightUrl="" songArtistUrl="" songAudioFileUrl="" stabilizationMode="0" mediaItemType="2" />
    <MediaItem id="389" filePath="C:\Users\sean walla walla\Desktop\My Life Story\My life story (Modern Journaling folder)\Milestone 2\daily articles\2018\10 October 2018\! Overview\Pictures\All together\Screenshot_20181021-100754_Merge Plane.jpg" arWidth="1440" arHeight="2560" duration="0" songTitle="" songArtist="" songAlbum="" songCopyrightUrl="" songArtistUrl="" songAudioFileUrl="" stabilizationMode="0" mediaItemType="2" />
    <MediaItem id="390" filePath="C:\Users\sean walla walla\Desktop\My Life Story\My life story (Modern Journaling folder)\Milestone 2\daily articles\2018\10 October 2018\! Overview\Pictures\All together\Screenshot_20181021-100800_Merge Plane.jpg" arWidth="1440" arHeight="2560" duration="0" songTitle="" songArtist="" songAlbum="" songCopyrightUrl="" songArtistUrl="" songAudioFileUrl="" stabilizationMode="0" mediaItemType="2" />
    <MediaItem id="391" filePath="C:\Users\sean walla walla\Desktop\My Life Story\My life story (Modern Journaling folder)\Milestone 2\daily articles\2018\10 October 2018\! Overview\Pictures\All together\Screenshot_20181021-103156_Merge Plane.jpg" arWidth="1440" arHeight="2560" duration="0" songTitle="" songArtist="" songAlbum="" songCopyrightUrl="" songArtistUrl="" songAudioFileUrl="" stabilizationMode="0" mediaItemType="2" />
    <MediaItem id="392" filePath="C:\Users\sean walla walla\Desktop\My Life Story\My life story (Modern Journaling folder)\Milestone 2\daily articles\2018\10 October 2018\! Overview\Pictures\All together\Screenshot_20181021-112639_Merge Plane.jpg" arWidth="1440" arHeight="2560" duration="0" songTitle="" songArtist="" songAlbum="" songCopyrightUrl="" songArtistUrl="" songAudioFileUrl="" stabilizationMode="0" mediaItemType="2" />
    <MediaItem id="393" filePath="C:\Users\sean walla walla\Desktop\My Life Story\My life story (Modern Journaling folder)\Milestone 2\daily articles\2018\10 October 2018\! Overview\Pictures\All together\Screenshot_20181021-112645_Merge Plane.jpg" arWidth="1440" arHeight="2560" duration="0" songTitle="" songArtist="" songAlbum="" songCopyrightUrl="" songArtistUrl="" songAudioFileUrl="" stabilizationMode="0" mediaItemType="2" />
    <MediaItem id="394" filePath="C:\Users\sean walla walla\Desktop\My Life Story\My life story (Modern Journaling folder)\Milestone 2\daily articles\2018\10 October 2018\! Overview\Pictures\All together\Screenshot_20181021-112650_Merge Plane.jpg" arWidth="1440" arHeight="2560" duration="0" songTitle="" songArtist="" songAlbum="" songCopyrightUrl="" songArtistUrl="" songAudioFileUrl="" stabilizationMode="0" mediaItemType="2" />
    <MediaItem id="395" filePath="C:\Users\sean walla walla\Desktop\My Life Story\My life story (Modern Journaling folder)\Milestone 2\daily articles\2018\10 October 2018\! Overview\Pictures\All together\Screenshot_20181021-112701_Merge Plane.jpg" arWidth="1440" arHeight="2560" duration="0" songTitle="" songArtist="" songAlbum="" songCopyrightUrl="" songArtistUrl="" songAudioFileUrl="" stabilizationMode="0" mediaItemType="2" />
    <MediaItem id="396" filePath="C:\Users\sean walla walla\Desktop\My Life Story\My life story (Modern Journaling folder)\Milestone 2\daily articles\2018\10 October 2018\! Overview\Pictures\All together\Screenshot_20181022-041346_Plants Vs Zombies 2.jpg" arWidth="2560" arHeight="1440" duration="0" songTitle="" songArtist="" songAlbum="" songCopyrightUrl="" songArtistUrl="" songAudioFileUrl="" stabilizationMode="0" mediaItemType="2" />
    <MediaItem id="397" filePath="C:\Users\sean walla walla\Desktop\My Life Story\My life story (Modern Journaling folder)\Milestone 2\daily articles\2018\10 October 2018\! Overview\Pictures\All together\Screenshot_20181022-041356_Plants Vs Zombies 2.jpg" arWidth="2560" arHeight="1440" duration="0" songTitle="" songArtist="" songAlbum="" songCopyrightUrl="" songArtistUrl="" songAudioFileUrl="" stabilizationMode="0" mediaItemType="2" />
    <MediaItem id="398" filePath="C:\Users\sean walla walla\Desktop\My Life Story\My life story (Modern Journaling folder)\Milestone 2\daily articles\2018\10 October 2018\! Overview\Pictures\All together\Screenshot_20181022-043858_Plants Vs Zombies 2.jpg" arWidth="2560" arHeight="1440" duration="0" songTitle="" songArtist="" songAlbum="" songCopyrightUrl="" songArtistUrl="" songAudioFileUrl="" stabilizationMode="0" mediaItemType="2" />
    <MediaItem id="399" filePath="C:\Users\sean walla walla\Desktop\My Life Story\My life story (Modern Journaling folder)\Milestone 2\daily articles\2018\10 October 2018\! Overview\Pictures\All together\Screenshot_20181023-040059_Plants Vs Zombies 2.jpg" arWidth="2560" arHeight="1440" duration="0" songTitle="" songArtist="" songAlbum="" songCopyrightUrl="" songArtistUrl="" songAudioFileUrl="" stabilizationMode="0" mediaItemType="2" />
    <MediaItem id="400" filePath="C:\Users\sean walla walla\Desktop\My Life Story\My life story (Modern Journaling folder)\Milestone 2\daily articles\2018\10 October 2018\! Overview\Pictures\All together\Screenshot_20181023-043728_Plants Vs Zombies 2.jpg" arWidth="2560" arHeight="1440" duration="0" songTitle="" songArtist="" songAlbum="" songCopyrightUrl="" songArtistUrl="" songAudioFileUrl="" stabilizationMode="0" mediaItemType="2" />
    <MediaItem id="401" filePath="C:\Users\sean walla walla\Desktop\My Life Story\My life story (Modern Journaling folder)\Milestone 2\daily articles\2018\10 October 2018\! Overview\Pictures\All together\Screenshot_20181024-040813_Plants Vs Zombies 2.jpg" arWidth="2560" arHeight="1440" duration="0" songTitle="" songArtist="" songAlbum="" songCopyrightUrl="" songArtistUrl="" songAudioFileUrl="" stabilizationMode="0" mediaItemType="2" />
    <MediaItem id="402" filePath="C:\Users\sean walla walla\Desktop\My Life Story\My life story (Modern Journaling folder)\Milestone 2\daily articles\2018\10 October 2018\! Overview\Pictures\All together\Screenshot_20181024-041308_Plants Vs Zombies 2.jpg" arWidth="2560" arHeight="1440" duration="0" songTitle="" songArtist="" songAlbum="" songCopyrightUrl="" songArtistUrl="" songAudioFileUrl="" stabilizationMode="0" mediaItemType="2" />
    <MediaItem id="403" filePath="C:\Users\sean walla walla\Desktop\My Life Story\My life story (Modern Journaling folder)\Milestone 2\daily articles\2018\10 October 2018\! Overview\Pictures\All together\Screenshot_20181024-041315_Plants Vs Zombies 2.jpg" arWidth="2560" arHeight="1440" duration="0" songTitle="" songArtist="" songAlbum="" songCopyrightUrl="" songArtistUrl="" songAudioFileUrl="" stabilizationMode="0" mediaItemType="2" />
    <MediaItem id="404" filePath="C:\Users\sean walla walla\Desktop\My Life Story\My life story (Modern Journaling folder)\Milestone 2\daily articles\2018\10 October 2018\! Overview\Pictures\All together\Screenshot_20181024-043919_Plants Vs Zombies 2.jpg" arWidth="2560" arHeight="1440" duration="0" songTitle="" songArtist="" songAlbum="" songCopyrightUrl="" songArtistUrl="" songAudioFileUrl="" stabilizationMode="0" mediaItemType="2" />
    <MediaItem id="405" filePath="C:\Users\sean walla walla\Desktop\My Life Story\My life story (Modern Journaling folder)\Milestone 2\daily articles\2018\10 October 2018\! Overview\Pictures\All together\Screenshot_20181025-041217_Plants Vs Zombies 2.jpg" arWidth="2560" arHeight="1440" duration="0" songTitle="" songArtist="" songAlbum="" songCopyrightUrl="" songArtistUrl="" songAudioFileUrl="" stabilizationMode="0" mediaItemType="2" />
    <MediaItem id="406" filePath="C:\Users\sean walla walla\Desktop\My Life Story\My life story (Modern Journaling folder)\Milestone 2\daily articles\2018\10 October 2018\! Overview\Pictures\All together\Screenshot_20181025-041226_Plants Vs Zombies 2.jpg" arWidth="2560" arHeight="1440" duration="0" songTitle="" songArtist="" songAlbum="" songCopyrightUrl="" songArtistUrl="" songAudioFileUrl="" stabilizationMode="0" mediaItemType="2" />
    <MediaItem id="407" filePath="C:\Users\sean walla walla\Desktop\My Life Story\My life story (Modern Journaling folder)\Milestone 2\daily articles\2018\10 October 2018\! Overview\Pictures\All together\Screenshot_20181025-044438_Plants Vs Zombies 2.jpg" arWidth="2560" arHeight="1440" duration="0" songTitle="" songArtist="" songAlbum="" songCopyrightUrl="" songArtistUrl="" songAudioFileUrl="" stabilizationMode="0" mediaItemType="2" />
    <MediaItem id="408" filePath="C:\Users\sean walla walla\Desktop\My Life Story\My life story (Modern Journaling folder)\Milestone 2\daily articles\2018\10 October 2018\! Overview\Pictures\All together\Screenshot_20181026-034740_Plants Vs Zombies 2.jpg" arWidth="2560" arHeight="1440" duration="0" songTitle="" songArtist="" songAlbum="" songCopyrightUrl="" songArtistUrl="" songAudioFileUrl="" stabilizationMode="0" mediaItemType="2" />
    <MediaItem id="409" filePath="C:\Users\sean walla walla\Desktop\My Life Story\My life story (Modern Journaling folder)\Milestone 2\daily articles\2018\10 October 2018\! Overview\Pictures\All together\Screenshot_20181026-034748_Plants Vs Zombies 2.jpg" arWidth="2560" arHeight="1440" duration="0" songTitle="" songArtist="" songAlbum="" songCopyrightUrl="" songArtistUrl="" songAudioFileUrl="" stabilizationMode="0" mediaItemType="2" />
    <MediaItem id="410" filePath="C:\Users\sean walla walla\Desktop\My Life Story\My life story (Modern Journaling folder)\Milestone 2\daily articles\2018\10 October 2018\! Overview\Pictures\All together\Screenshot_20181026-042751_Plants Vs Zombies 2.jpg" arWidth="2560" arHeight="1440" duration="0" songTitle="" songArtist="" songAlbum="" songCopyrightUrl="" songArtistUrl="" songAudioFileUrl="" stabilizationMode="0" mediaItemType="2" />
    <MediaItem id="411" filePath="C:\Users\sean walla walla\Desktop\My Life Story\My life story (Modern Journaling folder)\Milestone 2\daily articles\2018\10 October 2018\! Overview\Pictures\All together\Screenshot_20181027-091206_Plants Vs Zombies 2.jpg" arWidth="2560" arHeight="1440" duration="0" songTitle="" songArtist="" songAlbum="" songCopyrightUrl="" songArtistUrl="" songAudioFileUrl="" stabilizationMode="0" mediaItemType="2" />
    <MediaItem id="412" filePath="C:\Users\sean walla walla\Desktop\My Life Story\My life story (Modern Journaling folder)\Milestone 2\daily articles\2018\10 October 2018\! Overview\Pictures\All together\Screenshot_20181027-091214_Plants Vs Zombies 2.jpg" arWidth="2560" arHeight="1440" duration="0" songTitle="" songArtist="" songAlbum="" songCopyrightUrl="" songArtistUrl="" songAudioFileUrl="" stabilizationMode="0" mediaItemType="2" />
    <MediaItem id="413" filePath="C:\Users\sean walla walla\Desktop\My Life Story\My life story (Modern Journaling folder)\Milestone 2\daily articles\2018\10 October 2018\! Overview\Pictures\All together\Screenshot_20181027-094945_Plants Vs Zombies 2.jpg" arWidth="2560" arHeight="1440" duration="0" songTitle="" songArtist="" songAlbum="" songCopyrightUrl="" songArtistUrl="" songAudioFileUrl="" stabilizationMode="0" mediaItemType="2" />
    <MediaItem id="414" filePath="C:\Users\sean walla walla\Desktop\My Life Story\My life story (Modern Journaling folder)\Milestone 2\daily articles\2018\10 October 2018\! Overview\Pictures\All together\Screenshot_20181027-095116_AdCap!.jpg" arWidth="2560" arHeight="1440" duration="0" songTitle="" songArtist="" songAlbum="" songCopyrightUrl="" songArtistUrl="" songAudioFileUrl="" stabilizationMode="0" mediaItemType="2" />
    <MediaItem id="415" filePath="C:\Users\sean walla walla\Desktop\My Life Story\My life story (Modern Journaling folder)\Milestone 2\daily articles\2018\10 October 2018\! Overview\Pictures\All together\Screenshot_20181027-095203_AdCap!.jpg" arWidth="2560" arHeight="1440" duration="0" songTitle="" songArtist="" songAlbum="" songCopyrightUrl="" songArtistUrl="" songAudioFileUrl="" stabilizationMode="0" mediaItemType="2" />
    <MediaItem id="416" filePath="C:\Users\sean walla walla\Desktop\My Life Story\My life story (Modern Journaling folder)\Milestone 2\daily articles\2018\10 October 2018\! Overview\Pictures\All together\Screenshot_20181027-095349_AdCap!.jpg" arWidth="2560" arHeight="1440" duration="0" songTitle="" songArtist="" songAlbum="" songCopyrightUrl="" songArtistUrl="" songAudioFileUrl="" stabilizationMode="0" mediaItemType="2" />
    <MediaItem id="417" filePath="C:\Users\sean walla walla\Desktop\My Life Story\My life story (Modern Journaling folder)\Milestone 2\daily articles\2018\10 October 2018\! Overview\Pictures\All together\Screenshot_20181027-095402_AdCap!.jpg" arWidth="2560" arHeight="1440" duration="0" songTitle="" songArtist="" songAlbum="" songCopyrightUrl="" songArtistUrl="" songAudioFileUrl="" stabilizationMode="0" mediaItemType="2" />
    <MediaItem id="418" filePath="C:\Users\sean walla walla\Desktop\My Life Story\My life story (Modern Journaling folder)\Milestone 2\daily articles\2018\10 October 2018\! Overview\Pictures\All together\Screenshot_20181027-095458_AdCap!.jpg" arWidth="2560" arHeight="1440" duration="0" songTitle="" songArtist="" songAlbum="" songCopyrightUrl="" songArtistUrl="" songAudioFileUrl="" stabilizationMode="0" mediaItemType="2" />
    <MediaItem id="419" filePath="C:\Users\sean walla walla\Desktop\My Life Story\My life story (Modern Journaling folder)\Milestone 2\daily articles\2018\10 October 2018\! Overview\Pictures\All together\Screenshot_20181027-095530_AdCap!.jpg" arWidth="2560" arHeight="1440" duration="0" songTitle="" songArtist="" songAlbum="" songCopyrightUrl="" songArtistUrl="" songAudioFileUrl="" stabilizationMode="0" mediaItemType="2" />
    <MediaItem id="420" filePath="C:\Users\sean walla walla\Desktop\My Life Story\My life story (Modern Journaling folder)\Milestone 2\daily articles\2018\10 October 2018\! Overview\Pictures\All together\Screenshot_20181027-095649_Merge Plane.jpg" arWidth="1440" arHeight="2560" duration="0" songTitle="" songArtist="" songAlbum="" songCopyrightUrl="" songArtistUrl="" songAudioFileUrl="" stabilizationMode="0" mediaItemType="2" />
    <MediaItem id="421" filePath="C:\Users\sean walla walla\Desktop\My Life Story\My life story (Modern Journaling folder)\Milestone 2\daily articles\2018\10 October 2018\! Overview\Pictures\All together\Screenshot_20181027-095656_Merge Plane.jpg" arWidth="1440" arHeight="2560" duration="0" songTitle="" songArtist="" songAlbum="" songCopyrightUrl="" songArtistUrl="" songAudioFileUrl="" stabilizationMode="0" mediaItemType="2" />
    <MediaItem id="422" filePath="C:\Users\sean walla walla\Desktop\My Life Story\My life story (Modern Journaling folder)\Milestone 2\daily articles\2018\10 October 2018\! Overview\Pictures\All together\Screenshot_20181027-111631_Merge Plane.jpg" arWidth="1440" arHeight="2560" duration="0" songTitle="" songArtist="" songAlbum="" songCopyrightUrl="" songArtistUrl="" songAudioFileUrl="" stabilizationMode="0" mediaItemType="2" />
    <MediaItem id="423" filePath="C:\Users\sean walla walla\Desktop\My Life Story\My life story (Modern Journaling folder)\Milestone 2\daily articles\2018\10 October 2018\! Overview\Pictures\All together\Screenshot_20181027-111637_Merge Plane.jpg" arWidth="1440" arHeight="2560" duration="0" songTitle="" songArtist="" songAlbum="" songCopyrightUrl="" songArtistUrl="" songAudioFileUrl="" stabilizationMode="0" mediaItemType="2" />
    <MediaItem id="424" filePath="C:\Users\sean walla walla\Desktop\My Life Story\My life story (Modern Journaling folder)\Milestone 2\daily articles\2018\10 October 2018\! Overview\Pictures\All together\Screenshot_20181027-111643_Merge Plane.jpg" arWidth="1440" arHeight="2560" duration="0" songTitle="" songArtist="" songAlbum="" songCopyrightUrl="" songArtistUrl="" songAudioFileUrl="" stabilizationMode="0" mediaItemType="2" />
    <MediaItem id="425" filePath="C:\Users\sean walla walla\Desktop\My Life Story\My life story (Modern Journaling folder)\Milestone 2\daily articles\2018\10 October 2018\! Overview\Pictures\All together\Screenshot_20181027-111656_Merge Plane.jpg" arWidth="1440" arHeight="2560" duration="0" songTitle="" songArtist="" songAlbum="" songCopyrightUrl="" songArtistUrl="" songAudioFileUrl="" stabilizationMode="0" mediaItemType="2" />
    <MediaItem id="426" filePath="C:\Users\sean walla walla\Desktop\My Life Story\My life story (Modern Journaling folder)\Milestone 2\daily articles\2018\10 October 2018\! Overview\Pictures\All together\Screenshot_20181027-122714_Merge Plane.jpg" arWidth="1440" arHeight="2560" duration="0" songTitle="" songArtist="" songAlbum="" songCopyrightUrl="" songArtistUrl="" songAudioFileUrl="" stabilizationMode="0" mediaItemType="2" />
    <MediaItem id="427" filePath="C:\Users\sean walla walla\Desktop\My Life Story\My life story (Modern Journaling folder)\Milestone 2\daily articles\2018\10 October 2018\! Overview\Pictures\All together\Screenshot_20181027-122722_Merge Plane.jpg" arWidth="1440" arHeight="2560" duration="0" songTitle="" songArtist="" songAlbum="" songCopyrightUrl="" songArtistUrl="" songAudioFileUrl="" stabilizationMode="0" mediaItemType="2" />
    <MediaItem id="428" filePath="C:\Users\sean walla walla\Desktop\My Life Story\My life story (Modern Journaling folder)\Milestone 2\daily articles\2018\10 October 2018\! Overview\Pictures\All together\Screenshot_20181027-122727_Merge Plane.jpg" arWidth="1440" arHeight="2560" duration="0" songTitle="" songArtist="" songAlbum="" songCopyrightUrl="" songArtistUrl="" songAudioFileUrl="" stabilizationMode="0" mediaItemType="2" />
    <MediaItem id="429" filePath="C:\Users\sean walla walla\Desktop\My Life Story\My life story (Modern Journaling folder)\Milestone 2\daily articles\2018\10 October 2018\! Overview\Pictures\All together\Screenshot_20181027-122734_Merge Plane.jpg" arWidth="1440" arHeight="2560" duration="0" songTitle="" songArtist="" songAlbum="" songCopyrightUrl="" songArtistUrl="" songAudioFileUrl="" stabilizationMode="0" mediaItemType="2" />
    <MediaItem id="430" filePath="C:\Users\sean walla walla\Desktop\My Life Story\My life story (Modern Journaling folder)\Milestone 2\daily articles\2018\10 October 2018\! Overview\Pictures\All together\Screenshot_20181028-064635_Plants Vs Zombies 2.jpg" arWidth="2560" arHeight="1440" duration="0" songTitle="" songArtist="" songAlbum="" songCopyrightUrl="" songArtistUrl="" songAudioFileUrl="" stabilizationMode="0" mediaItemType="2" />
    <MediaItem id="431" filePath="C:\Users\sean walla walla\Desktop\My Life Story\My life story (Modern Journaling folder)\Milestone 2\daily articles\2018\10 October 2018\! Overview\Pictures\All together\Screenshot_20181028-064647_Plants Vs Zombies 2.jpg" arWidth="2560" arHeight="1440" duration="0" songTitle="" songArtist="" songAlbum="" songCopyrightUrl="" songArtistUrl="" songAudioFileUrl="" stabilizationMode="0" mediaItemType="2" />
    <MediaItem id="432" filePath="C:\Users\sean walla walla\Desktop\My Life Story\My life story (Modern Journaling folder)\Milestone 2\daily articles\2018\10 October 2018\! Overview\Pictures\All together\Screenshot_20181028-071843_Plants Vs Zombies 2.jpg" arWidth="2560" arHeight="1440" duration="0" songTitle="" songArtist="" songAlbum="" songCopyrightUrl="" songArtistUrl="" songAudioFileUrl="" stabilizationMode="0" mediaItemType="2" />
    <MediaItem id="433" filePath="C:\Users\sean walla walla\Desktop\My Life Story\My life story (Modern Journaling folder)\Milestone 2\daily articles\2018\10 October 2018\! Overview\Pictures\All together\Screenshot_20181028-072122_AdCap!.jpg" arWidth="2560" arHeight="1440" duration="0" songTitle="" songArtist="" songAlbum="" songCopyrightUrl="" songArtistUrl="" songAudioFileUrl="" stabilizationMode="0" mediaItemType="2" />
    <MediaItem id="434" filePath="C:\Users\sean walla walla\Desktop\My Life Story\My life story (Modern Journaling folder)\Milestone 2\daily articles\2018\10 October 2018\! Overview\Pictures\All together\Screenshot_20181028-072151_AdCap!.jpg" arWidth="2560" arHeight="1440" duration="0" songTitle="" songArtist="" songAlbum="" songCopyrightUrl="" songArtistUrl="" songAudioFileUrl="" stabilizationMode="0" mediaItemType="2" />
    <MediaItem id="435" filePath="C:\Users\sean walla walla\Desktop\My Life Story\My life story (Modern Journaling folder)\Milestone 2\daily articles\2018\10 October 2018\! Overview\Pictures\All together\Screenshot_20181028-075539_AdCap!.jpg" arWidth="2560" arHeight="1440" duration="0" songTitle="" songArtist="" songAlbum="" songCopyrightUrl="" songArtistUrl="" songAudioFileUrl="" stabilizationMode="0" mediaItemType="2" />
    <MediaItem id="436" filePath="C:\Users\sean walla walla\Desktop\My Life Story\My life story (Modern Journaling folder)\Milestone 2\daily articles\2018\10 October 2018\! Overview\Pictures\All together\Screenshot_20181028-075552_AdCap!.jpg" arWidth="2560" arHeight="1440" duration="0" songTitle="" songArtist="" songAlbum="" songCopyrightUrl="" songArtistUrl="" songAudioFileUrl="" stabilizationMode="0" mediaItemType="2" />
    <MediaItem id="437" filePath="C:\Users\sean walla walla\Desktop\My Life Story\My life story (Modern Journaling folder)\Milestone 2\daily articles\2018\10 October 2018\! Overview\Pictures\All together\Screenshot_20181028-075646_AdCap!.jpg" arWidth="2560" arHeight="1440" duration="0" songTitle="" songArtist="" songAlbum="" songCopyrightUrl="" songArtistUrl="" songAudioFileUrl="" stabilizationMode="0" mediaItemType="2" />
    <MediaItem id="438" filePath="C:\Users\sean walla walla\Desktop\My Life Story\My life story (Modern Journaling folder)\Milestone 2\daily articles\2018\10 October 2018\! Overview\Pictures\All together\Screenshot_20181028-075709_AdCap!.jpg" arWidth="2560" arHeight="1440" duration="0" songTitle="" songArtist="" songAlbum="" songCopyrightUrl="" songArtistUrl="" songAudioFileUrl="" stabilizationMode="0" mediaItemType="2" />
    <MediaItem id="439" filePath="C:\Users\sean walla walla\Desktop\My Life Story\My life story (Modern Journaling folder)\Milestone 2\daily articles\2018\10 October 2018\! Overview\Pictures\All together\Screenshot_20181028-075834_Merge Plane.jpg" arWidth="1440" arHeight="2560" duration="0" songTitle="" songArtist="" songAlbum="" songCopyrightUrl="" songArtistUrl="" songAudioFileUrl="" stabilizationMode="0" mediaItemType="2" />
    <MediaItem id="440" filePath="C:\Users\sean walla walla\Desktop\My Life Story\My life story (Modern Journaling folder)\Milestone 2\daily articles\2018\10 October 2018\! Overview\Pictures\All together\Screenshot_20181028-075841_Merge Plane.jpg" arWidth="1440" arHeight="2560" duration="0" songTitle="" songArtist="" songAlbum="" songCopyrightUrl="" songArtistUrl="" songAudioFileUrl="" stabilizationMode="0" mediaItemType="2" />
    <MediaItem id="441" filePath="C:\Users\sean walla walla\Desktop\My Life Story\My life story (Modern Journaling folder)\Milestone 2\daily articles\2018\10 October 2018\! Overview\Pictures\All together\Screenshot_20181028-075849_Merge Plane.jpg" arWidth="1440" arHeight="2560" duration="0" songTitle="" songArtist="" songAlbum="" songCopyrightUrl="" songArtistUrl="" songAudioFileUrl="" stabilizationMode="0" mediaItemType="2" />
    <MediaItem id="442" filePath="C:\Users\sean walla walla\Desktop\My Life Story\My life story (Modern Journaling folder)\Milestone 2\daily articles\2018\10 October 2018\! Overview\Pictures\All together\Screenshot_20181028-075855_Merge Plane.jpg" arWidth="1440" arHeight="2560" duration="0" songTitle="" songArtist="" songAlbum="" songCopyrightUrl="" songArtistUrl="" songAudioFileUrl="" stabilizationMode="0" mediaItemType="2" />
    <MediaItem id="443" filePath="C:\Users\sean walla walla\Desktop\My Life Story\My life story (Modern Journaling folder)\Milestone 2\daily articles\2018\10 October 2018\! Overview\Pictures\All together\Screenshot_20181028-080426_Merge Plane.jpg" arWidth="1440" arHeight="2560" duration="0" songTitle="" songArtist="" songAlbum="" songCopyrightUrl="" songArtistUrl="" songAudioFileUrl="" stabilizationMode="0" mediaItemType="2" />
    <MediaItem id="444" filePath="C:\Users\sean walla walla\Desktop\My Life Story\My life story (Modern Journaling folder)\Milestone 2\daily articles\2018\10 October 2018\! Overview\Pictures\All together\Screenshot_20181028-080431_Merge Plane.jpg" arWidth="1440" arHeight="2560" duration="0" songTitle="" songArtist="" songAlbum="" songCopyrightUrl="" songArtistUrl="" songAudioFileUrl="" stabilizationMode="0" mediaItemType="2" />
    <MediaItem id="445" filePath="C:\Users\sean walla walla\Desktop\My Life Story\My life story (Modern Journaling folder)\Milestone 2\daily articles\2018\10 October 2018\! Overview\Pictures\All together\Screenshot_20181028-080436_Merge Plane.jpg" arWidth="1440" arHeight="2560" duration="0" songTitle="" songArtist="" songAlbum="" songCopyrightUrl="" songArtistUrl="" songAudioFileUrl="" stabilizationMode="0" mediaItemType="2" />
    <MediaItem id="446" filePath="C:\Users\sean walla walla\Desktop\My Life Story\My life story (Modern Journaling folder)\Milestone 2\daily articles\2018\10 October 2018\! Overview\Pictures\All together\Screenshot_20181028-080448_Merge Plane.jpg" arWidth="1440" arHeight="2560" duration="0" songTitle="" songArtist="" songAlbum="" songCopyrightUrl="" songArtistUrl="" songAudioFileUrl="" stabilizationMode="0" mediaItemType="2" />
    <MediaItem id="447" filePath="C:\Users\sean walla walla\Desktop\My Life Story\My life story (Modern Journaling folder)\Milestone 2\daily articles\2018\10 October 2018\! Overview\Pictures\All together\Screenshot_20181028-103119_Merge Plane.jpg" arWidth="1440" arHeight="2560" duration="0" songTitle="" songArtist="" songAlbum="" songCopyrightUrl="" songArtistUrl="" songAudioFileUrl="" stabilizationMode="0" mediaItemType="2" />
    <MediaItem id="448" filePath="C:\Users\sean walla walla\Desktop\My Life Story\My life story (Modern Journaling folder)\Milestone 2\daily articles\2018\10 October 2018\! Overview\Pictures\All together\Screenshot_20181028-103125_Merge Plane.jpg" arWidth="1440" arHeight="2560" duration="0" songTitle="" songArtist="" songAlbum="" songCopyrightUrl="" songArtistUrl="" songAudioFileUrl="" stabilizationMode="0" mediaItemType="2" />
    <MediaItem id="449" filePath="C:\Users\sean walla walla\Desktop\My Life Story\My life story (Modern Journaling folder)\Milestone 2\daily articles\2018\10 October 2018\! Overview\Pictures\All together\Screenshot_20181028-103130_Merge Plane.jpg" arWidth="1440" arHeight="2560" duration="0" songTitle="" songArtist="" songAlbum="" songCopyrightUrl="" songArtistUrl="" songAudioFileUrl="" stabilizationMode="0" mediaItemType="2" />
    <MediaItem id="450" filePath="C:\Users\sean walla walla\Desktop\My Life Story\My life story (Modern Journaling folder)\Milestone 2\daily articles\2018\10 October 2018\! Overview\Pictures\All together\Screenshot_20181028-103142_Merge Plane.jpg" arWidth="1440" arHeight="2560" duration="0" songTitle="" songArtist="" songAlbum="" songCopyrightUrl="" songArtistUrl="" songAudioFileUrl="" stabilizationMode="0" mediaItemType="2" />
    <MediaItem id="451" filePath="C:\Users\sean walla walla\Desktop\My Life Story\My life story (Modern Journaling folder)\Milestone 2\daily articles\2018\10 October 2018\! Overview\Pictures\All together\Screenshot_20181029-041259_Plants Vs Zombies 2.jpg" arWidth="2560" arHeight="1440" duration="0" songTitle="" songArtist="" songAlbum="" songCopyrightUrl="" songArtistUrl="" songAudioFileUrl="" stabilizationMode="0" mediaItemType="2" />
    <MediaItem id="452" filePath="C:\Users\sean walla walla\Desktop\My Life Story\My life story (Modern Journaling folder)\Milestone 2\daily articles\2018\10 October 2018\! Overview\Pictures\All together\Screenshot_20181029-041305_Plants Vs Zombies 2.jpg" arWidth="2560" arHeight="1440" duration="0" songTitle="" songArtist="" songAlbum="" songCopyrightUrl="" songArtistUrl="" songAudioFileUrl="" stabilizationMode="0" mediaItemType="2" />
    <MediaItem id="453" filePath="C:\Users\sean walla walla\Desktop\My Life Story\My life story (Modern Journaling folder)\Milestone 2\daily articles\2018\10 October 2018\! Overview\Pictures\All together\Screenshot_20181029-043409_Plants Vs Zombies 2.jpg" arWidth="2560" arHeight="1440" duration="0" songTitle="" songArtist="" songAlbum="" songCopyrightUrl="" songArtistUrl="" songAudioFileUrl="" stabilizationMode="0" mediaItemType="2" />
    <MediaItem id="454" filePath="C:\Users\sean walla walla\Desktop\My Life Story\My life story (Modern Journaling folder)\Milestone 2\daily articles\2018\10 October 2018\! Overview\Pictures\All together\Screenshot_20181030-041355_Plants Vs Zombies 2.jpg" arWidth="2560" arHeight="1440" duration="0" songTitle="" songArtist="" songAlbum="" songCopyrightUrl="" songArtistUrl="" songAudioFileUrl="" stabilizationMode="0" mediaItemType="2" />
    <MediaItem id="455" filePath="C:\Users\sean walla walla\Desktop\My Life Story\My life story (Modern Journaling folder)\Milestone 2\daily articles\2018\10 October 2018\! Overview\Pictures\All together\Screenshot_20181030-044238_Plants Vs Zombies 2.jpg" arWidth="2560" arHeight="1440" duration="0" songTitle="" songArtist="" songAlbum="" songCopyrightUrl="" songArtistUrl="" songAudioFileUrl="" stabilizationMode="0" mediaItemType="2" />
    <MediaItem id="456" filePath="C:\Users\sean walla walla\Desktop\My Life Story\My life story (Modern Journaling folder)\Milestone 2\daily articles\2018\10 October 2018\! Overview\Pictures\All together\Screenshot_20181030-052428_Banner Bank.jpg" arWidth="1440" arHeight="2560" duration="0" songTitle="" songArtist="" songAlbum="" songCopyrightUrl="" songArtistUrl="" songAudioFileUrl="" stabilizationMode="0" mediaItemType="2" />
    <MediaItem id="457" filePath="C:\Users\sean walla walla\Desktop\My Life Story\My life story (Modern Journaling folder)\Milestone 2\daily articles\2018\10 October 2018\! Overview\Pictures\All together\Screenshot_20181030-052428_Banner Bank_1.jpg" arWidth="0" arHeight="0" duration="0" songTitle="" songArtist="" songAlbum="" songCopyrightUrl="" songArtistUrl="" songAudioFileUrl="" stabilizationMode="0" mediaItemType="2" />
    <MediaItem id="458" filePath="C:\Users\sean walla walla\Desktop\My Life Story\My life story (Modern Journaling folder)\Milestone 2\daily articles\2018\10 October 2018\! Overview\Pictures\All together\Screenshot_20181031-041017_Plants Vs Zombies 2.jpg" arWidth="2560" arHeight="1440" duration="0" songTitle="" songArtist="" songAlbum="" songCopyrightUrl="" songArtistUrl="" songAudioFileUrl="" stabilizationMode="0" mediaItemType="2" />
    <MediaItem id="459" filePath="C:\Users\sean walla walla\Desktop\My Life Story\My life story (Modern Journaling folder)\Milestone 2\daily articles\2018\10 October 2018\! Overview\Pictures\All together\Screenshot_20181031-041302_Plants Vs Zombies 2.jpg" arWidth="2560" arHeight="1440" duration="0" songTitle="" songArtist="" songAlbum="" songCopyrightUrl="" songArtistUrl="" songAudioFileUrl="" stabilizationMode="0" mediaItemType="2" />
    <MediaItem id="460" filePath="C:\Users\sean walla walla\Desktop\My Life Story\My life story (Modern Journaling folder)\Milestone 2\daily articles\2018\10 October 2018\! Overview\Pictures\All together\Screenshot_20181031-041655_Plants Vs Zombies 2.jpg" arWidth="2560" arHeight="1440" duration="0" songTitle="" songArtist="" songAlbum="" songCopyrightUrl="" songArtistUrl="" songAudioFileUrl="" stabilizationMode="0" mediaItemType="2" />
    <MediaItem id="461" filePath="C:\Users\sean walla walla\Desktop\My Life Story\My life story (Modern Journaling folder)\Milestone 2\daily articles\2018\10 October 2018\! Overview\Pictures\All together\Screenshot_20181031-042108_Plants Vs Zombies 2.jpg" arWidth="2560" arHeight="1440" duration="0" songTitle="" songArtist="" songAlbum="" songCopyrightUrl="" songArtistUrl="" songAudioFileUrl="" stabilizationMode="0" mediaItemType="2" />
    <MediaItem id="462" filePath="C:\Users\sean walla walla\Desktop\My Life Story\My life story (Modern Journaling folder)\Milestone 2\daily articles\2018\10 October 2018\! Overview\Pictures\All together\Screenshot_20181031-042510_Plants Vs Zombies 2.jpg" arWidth="2560" arHeight="1440" duration="0" songTitle="" songArtist="" songAlbum="" songCopyrightUrl="" songArtistUrl="" songAudioFileUrl="" stabilizationMode="0" mediaItemType="2" />
    <MediaItem id="463" filePath="C:\Users\sean walla walla\Desktop\My Life Story\My life story (Modern Journaling folder)\Milestone 2\daily articles\2018\10 October 2018\! Overview\Pictures\All together\Screenshot_20181031-045406_Plants Vs Zombies 2.jpg" arWidth="2560" arHeight="1440" duration="0" songTitle="" songArtist="" songAlbum="" songCopyrightUrl="" songArtistUrl="" songAudioFileUrl="" stabilizationMode="0" mediaItemType="2" />
    <MediaItem id="464" filePath="C:\Users\sean walla walla\Desktop\My Life Story\My life story (Modern Journaling folder)\Milestone 2\daily articles\2018\10 October 2018\! Overview\Pictures\All together\September 2018 outro properties final.png" arWidth="364" arHeight="508" duration="0" songTitle="" songArtist="" songAlbum="" songCopyrightUrl="" songArtistUrl="" songAudioFileUrl="" stabilizationMode="0" mediaItemType="2" />
    <MediaItem id="465" filePath="C:\Users\sean walla walla\Desktop\My Life Story\My life story (Modern Journaling folder)\Milestone 2\daily articles\2018\10 October 2018\! Overview\Pictures\All together\September 2018 outro stats final.png" arWidth="258" arHeight="216" duration="0" songTitle="" songArtist="" songAlbum="" songCopyrightUrl="" songArtistUrl="" songAudioFileUrl="" stabilizationMode="0" mediaItemType="2" />
    <MediaItem id="466" filePath="C:\Users\sean walla walla\Desktop\My Life Story\My life story (Modern Journaling folder)\Milestone 2\daily articles\2018\10 October 2018\! Overview\Pictures\All together\September 2018 properties complete.PNG" arWidth="366" arHeight="513" duration="0" songTitle="" songArtist="" songAlbum="" songCopyrightUrl="" songArtistUrl="" songAudioFileUrl="" stabilizationMode="0" mediaItemType="2" />
    <MediaItem id="467" filePath="C:\Users\sean walla walla\Desktop\My Life Story\My life story (Modern Journaling folder)\Milestone 2\daily articles\2018\10 October 2018\! Overview\Pictures\All together\September 2018 stats complete.PNG" arWidth="257" arHeight="217" duration="0" songTitle="" songArtist="" songAlbum="" songCopyrightUrl="" songArtistUrl="" songAudioFileUrl="" stabilizationMode="0" mediaItemType="2" />
    <MediaItem id="468" filePath="C:\Users\sean walla walla\Desktop\My Life Story\My life story (Modern Journaling folder)\Milestone 2\daily articles\2018\10 October 2018\! Overview\Pictures\All together\square.PNG" arWidth="663" arHeight="446" duration="0" songTitle="" songArtist="" songAlbum="" songCopyrightUrl="" songArtistUrl="" songAudioFileUrl="" stabilizationMode="0" mediaItemType="2" />
    <MediaItem id="469" filePath="C:\Users\sean walla walla\Desktop\My Life Story\My life story (Modern Journaling folder)\Milestone 2\daily articles\2018\10 October 2018\! Overview\Pictures\All together\Square4.4.4.PNG" arWidth="681" arHeight="480" duration="0" songTitle="" songArtist="" songAlbum="" songCopyrightUrl="" songArtistUrl="" songAudioFileUrl="" stabilizationMode="0" mediaItemType="2" />
    <MediaItem id="470" filePath="C:\Users\sean walla walla\Desktop\My Life Story\My life story (Modern Journaling folder)\Milestone 2\daily articles\2018\10 October 2018\! Overview\Pictures\All together\steam day 1 progress.png" arWidth="1366" arHeight="706" duration="0" songTitle="" songArtist="" songAlbum="" songCopyrightUrl="" songArtistUrl="" songAudioFileUrl="" stabilizationMode="0" mediaItemType="2" />
    <MediaItem id="471" filePath="C:\Users\sean walla walla\Desktop\My Life Story\My life story (Modern Journaling folder)\Milestone 2\daily articles\2018\10 October 2018\! Overview\Pictures\All together\Team Fortress 2 day 1 progress.PNG" arWidth="1366" arHeight="706" duration="0" songTitle="" songArtist="" songAlbum="" songCopyrightUrl="" songArtistUrl="" songAudioFileUrl="" stabilizationMode="0" mediaItemType="2" />
    <MediaItem id="472" filePath="C:\Users\sean walla walla\Desktop\My Life Story\My life story (Modern Journaling folder)\Milestone 2\daily articles\2018\10 October 2018\! Overview\Pictures\All together\Team Fortress 2 day 3 progress.PNG" arWidth="1366" arHeight="707" duration="0" songTitle="" songArtist="" songAlbum="" songCopyrightUrl="" songArtistUrl="" songAudioFileUrl="" stabilizationMode="0" mediaItemType="2" />
    <MediaItem id="473" filePath="C:\Users\sean walla walla\Desktop\My Life Story\My life story (Modern Journaling folder)\Milestone 2\daily articles\2018\10 October 2018\! Overview\Pictures\All together\Team Fortress 2 day 4 progress.PNG" arWidth="1366" arHeight="768" duration="0" songTitle="" songArtist="" songAlbum="" songCopyrightUrl="" songArtistUrl="" songAudioFileUrl="" stabilizationMode="0" mediaItemType="2" />
    <MediaItem id="474" filePath="C:\Users\sean walla walla\Desktop\My Life Story\My life story (Modern Journaling folder)\Milestone 2\daily articles\2018\10 October 2018\! Overview\Pictures\All together\Team Fortress 2 October 27th 2018 session overview.mp4" arWidth="1920" arHeight="1080" duration="117.6319791" songTitle="" songArtist="" songAlbum="" songCopyrightUrl="" songArtistUrl="" songAudioFileUrl="" stabilizationMode="0" mediaItemType="1" />
    <MediaItem id="475" filePath="C:\Users\sean walla walla\Desktop\My Life Story\My life story (Modern Journaling folder)\Milestone 2\daily articles\2018\10 October 2018\! Overview\Pictures\All together\Team Fortress 2 October 27th 2018 session overview.wmv" arWidth="1920" arHeight="1080" duration="117.631" songTitle="" songArtist="" songAlbum="" songCopyrightUrl="" songArtistUrl="" songAudioFileUrl="" stabilizationMode="0" mediaItemType="1" />
    <MediaItem id="476" filePath="C:\Users\sean walla walla\Desktop\My Life Story\My life story (Modern Journaling folder)\Milestone 2\daily articles\2018\10 October 2018\! Overview\Pictures\All together\template.png" arWidth="1920" arHeight="1080" duration="0" songTitle="" songArtist="" songAlbum="" songCopyrightUrl="" songArtistUrl="" songAudioFileUrl="" stabilizationMode="0" mediaItemType="2" />
    <MediaItem id="477" filePath="C:\Users\sean walla walla\Desktop\My Life Story\My life story (Modern Journaling folder)\Milestone 2\daily articles\2018\10 October 2018\! Overview\Pictures\All together\TREESHAPE.PNG" arWidth="684" arHeight="517" duration="0" songTitle="" songArtist="" songAlbum="" songCopyrightUrl="" songArtistUrl="" songAudioFileUrl="" stabilizationMode="0" mediaItemType="2" />
    <MediaItem id="478" filePath="C:\Users\sean walla walla\Desktop\My Life Story\My life story (Modern Journaling folder)\Milestone 2\daily articles\2018\10 October 2018\! Overview\Pictures\All together\unneccesary.PNG" arWidth="686" arHeight="509" duration="0" songTitle="" songArtist="" songAlbum="" songCopyrightUrl="" songArtistUrl="" songAudioFileUrl="" stabilizationMode="0" mediaItemType="2" />
    <MediaItem id="479" filePath="C:\Users\sean walla walla\Desktop\My Life Story\My life story (Modern Journaling folder)\Milestone 2\daily articles\2018\10 October 2018\! Overview\Pictures\All together\Wegetit.PNG" arWidth="663" arHeight="466" duration="0" songTitle="" songArtist="" songAlbum="" songCopyrightUrl="" songArtistUrl="" songAudioFileUrl="" stabilizationMode="0" mediaItemType="2" />
    <MediaItem id="480" filePath="C:\Users\sean walla walla\Desktop\My Life Story\My life story (Modern Journaling folder)\Milestone 2\daily articles\2018\10 October 2018\! Overview\Pictures\All together\wut.PNG" arWidth="654" arHeight="454" duration="0" songTitle="" songArtist="" songAlbum="" songCopyrightUrl="" songArtistUrl="" songAudioFileUrl="" stabilizationMode="0" mediaItemType="2" />
  </MediaItems>
  <Extents>
    <ImageClip extentID="5" gapBefore="0" mediaItemID="1" duration="7">
      <Effects />
      <Transitions />
      <BoundProperties>
        <BoundPropertyInt Name="rotateStepNinety" Value="0" />
      </BoundProperties>
    </ImageClip>
    <ImageClip extentID="6" gapBefore="0" mediaItemID="2" duration="7">
      <Effects />
      <Transitions />
      <BoundProperties>
        <BoundPropertyInt Name="rotateStepNinety" Value="0" />
      </BoundProperties>
    </ImageClip>
    <ImageClip extentID="7" gapBefore="0" mediaItemID="3" duration="7">
      <Effects />
      <Transitions />
      <BoundProperties>
        <BoundPropertyInt Name="rotateStepNinety" Value="0" />
      </BoundProperties>
    </ImageClip>
    <ImageClip extentID="8" gapBefore="0" mediaItemID="4" duration="7">
      <Effects />
      <Transitions />
      <BoundProperties>
        <BoundPropertyInt Name="rotateStepNinety" Value="0" />
      </BoundProperties>
    </ImageClip>
    <ImageClip extentID="9" gapBefore="0" mediaItemID="5" duration="7">
      <Effects />
      <Transitions />
      <BoundProperties>
        <BoundPropertyInt Name="rotateStepNinety" Value="0" />
      </BoundProperties>
    </ImageClip>
    <ImageClip extentID="10" gapBefore="0" mediaItemID="6" duration="7">
      <Effects />
      <Transitions />
      <BoundProperties>
        <BoundPropertyInt Name="rotateStepNinety" Value="0" />
      </BoundProperties>
    </ImageClip>
    <ImageClip extentID="11" gapBefore="0" mediaItemID="7" duration="7">
      <Effects />
      <Transitions />
      <BoundProperties>
        <BoundPropertyInt Name="rotateStepNinety" Value="0" />
      </BoundProperties>
    </ImageClip>
    <ImageClip extentID="12" gapBefore="0" mediaItemID="8" duration="7">
      <Effects />
      <Transitions />
      <BoundProperties>
        <BoundPropertyInt Name="rotateStepNinety" Value="0" />
      </BoundProperties>
    </ImageClip>
    <ImageClip extentID="13" gapBefore="0" mediaItemID="9" duration="7">
      <Effects />
      <Transitions />
      <BoundProperties>
        <BoundPropertyInt Name="rotateStepNinety" Value="0" />
      </BoundProperties>
    </ImageClip>
    <ImageClip extentID="14" gapBefore="0" mediaItemID="10" duration="7">
      <Effects />
      <Transitions />
      <BoundProperties>
        <BoundPropertyInt Name="rotateStepNinety" Value="0" />
      </BoundProperties>
    </ImageClip>
    <ImageClip extentID="15" gapBefore="0" mediaItemID="11" duration="7">
      <Effects />
      <Transitions />
      <BoundProperties>
        <BoundPropertyInt Name="rotateStepNinety" Value="0" />
      </BoundProperties>
    </ImageClip>
    <ImageClip extentID="16" gapBefore="0" mediaItemID="12" duration="7">
      <Effects />
      <Transitions />
      <BoundProperties>
        <BoundPropertyInt Name="rotateStepNinety" Value="0" />
      </BoundProperties>
    </ImageClip>
    <ImageClip extentID="17" gapBefore="0" mediaItemID="13" duration="7">
      <Effects />
      <Transitions />
      <BoundProperties>
        <BoundPropertyInt Name="rotateStepNinety" Value="0" />
      </BoundProperties>
    </ImageClip>
    <ImageClip extentID="18" gapBefore="0" mediaItemID="14" duration="7">
      <Effects />
      <Transitions />
      <BoundProperties>
        <BoundPropertyInt Name="rotateStepNinety" Value="0" />
      </BoundProperties>
    </ImageClip>
    <ImageClip extentID="19" gapBefore="0" mediaItemID="15" duration="7">
      <Effects />
      <Transitions />
      <BoundProperties>
        <BoundPropertyInt Name="rotateStepNinety" Value="0" />
      </BoundProperties>
    </ImageClip>
    <ImageClip extentID="20" gapBefore="0" mediaItemID="16" duration="7">
      <Effects />
      <Transitions />
      <BoundProperties>
        <BoundPropertyInt Name="rotateStepNinety" Value="0" />
      </BoundProperties>
    </ImageClip>
    <ImageClip extentID="21" gapBefore="0" mediaItemID="17" duration="7">
      <Effects />
      <Transitions />
      <BoundProperties>
        <BoundPropertyInt Name="rotateStepNinety" Value="0" />
      </BoundProperties>
    </ImageClip>
    <ImageClip extentID="22" gapBefore="0" mediaItemID="18" duration="7">
      <Effects />
      <Transitions />
      <BoundProperties>
        <BoundPropertyInt Name="rotateStepNinety" Value="0" />
      </BoundProperties>
    </ImageClip>
    <ImageClip extentID="23" gapBefore="0" mediaItemID="19" duration="7">
      <Effects />
      <Transitions />
      <BoundProperties>
        <BoundPropertyInt Name="rotateStepNinety" Value="0" />
      </BoundProperties>
    </ImageClip>
    <ImageClip extentID="24" gapBefore="0" mediaItemID="20" duration="7">
      <Effects />
      <Transitions />
      <BoundProperties>
        <BoundPropertyInt Name="rotateStepNinety" Value="0" />
      </BoundProperties>
    </ImageClip>
    <ImageClip extentID="25" gapBefore="0" mediaItemID="21" duration="7">
      <Effects />
      <Transitions />
      <BoundProperties>
        <BoundPropertyInt Name="rotateStepNinety" Value="0" />
      </BoundProperties>
    </ImageClip>
    <ImageClip extentID="26" gapBefore="0" mediaItemID="22" duration="7">
      <Effects />
      <Transitions />
      <BoundProperties>
        <BoundPropertyInt Name="rotateStepNinety" Value="0" />
      </BoundProperties>
    </ImageClip>
    <ImageClip extentID="27" gapBefore="0" mediaItemID="23" duration="7">
      <Effects />
      <Transitions />
      <BoundProperties>
        <BoundPropertyInt Name="rotateStepNinety" Value="0" />
      </BoundProperties>
    </ImageClip>
    <ImageClip extentID="28" gapBefore="0" mediaItemID="24" duration="7">
      <Effects />
      <Transitions />
      <BoundProperties>
        <BoundPropertyInt Name="rotateStepNinety" Value="0" />
      </BoundProperties>
    </ImageClip>
    <ImageClip extentID="29" gapBefore="0" mediaItemID="25" duration="7">
      <Effects />
      <Transitions />
      <BoundProperties>
        <BoundPropertyInt Name="rotateStepNinety" Value="0" />
      </BoundProperties>
    </ImageClip>
    <ImageClip extentID="30" gapBefore="0" mediaItemID="26" duration="7">
      <Effects />
      <Transitions />
      <BoundProperties>
        <BoundPropertyInt Name="rotateStepNinety" Value="0" />
      </BoundProperties>
    </ImageClip>
    <ImageClip extentID="31" gapBefore="0" mediaItemID="27" duration="7">
      <Effects />
      <Transitions />
      <BoundProperties>
        <BoundPropertyInt Name="rotateStepNinety" Value="0" />
      </BoundProperties>
    </ImageClip>
    <ImageClip extentID="32" gapBefore="0" mediaItemID="28" duration="7">
      <Effects />
      <Transitions />
      <BoundProperties>
        <BoundPropertyInt Name="rotateStepNinety" Value="0" />
      </BoundProperties>
    </ImageClip>
    <ImageClip extentID="33" gapBefore="0" mediaItemID="29" duration="7">
      <Effects />
      <Transitions />
      <BoundProperties>
        <BoundPropertyInt Name="rotateStepNinety" Value="0" />
      </BoundProperties>
    </ImageClip>
    <ImageClip extentID="34" gapBefore="0" mediaItemID="30" duration="7">
      <Effects />
      <Transitions />
      <BoundProperties>
        <BoundPropertyInt Name="rotateStepNinety" Value="0" />
      </BoundProperties>
    </ImageClip>
    <ImageClip extentID="35" gapBefore="0" mediaItemID="31" duration="7">
      <Effects />
      <Transitions />
      <BoundProperties>
        <BoundPropertyInt Name="rotateStepNinety" Value="0" />
      </BoundProperties>
    </ImageClip>
    <ImageClip extentID="36" gapBefore="0" mediaItemID="32" duration="7">
      <Effects />
      <Transitions />
      <BoundProperties>
        <BoundPropertyInt Name="rotateStepNinety" Value="0" />
      </BoundProperties>
    </ImageClip>
    <ImageClip extentID="37" gapBefore="0" mediaItemID="33" duration="7">
      <Effects />
      <Transitions />
      <BoundProperties>
        <BoundPropertyInt Name="rotateStepNinety" Value="0" />
      </BoundProperties>
    </ImageClip>
    <ImageClip extentID="38" gapBefore="0" mediaItemID="34" duration="7">
      <Effects />
      <Transitions />
      <BoundProperties>
        <BoundPropertyInt Name="rotateStepNinety" Value="0" />
      </BoundProperties>
    </ImageClip>
    <ImageClip extentID="39" gapBefore="0" mediaItemID="35" duration="7">
      <Effects />
      <Transitions />
      <BoundProperties>
        <BoundPropertyInt Name="rotateStepNinety" Value="0" />
      </BoundProperties>
    </ImageClip>
    <ImageClip extentID="40" gapBefore="0" mediaItemID="36" duration="7">
      <Effects />
      <Transitions />
      <BoundProperties>
        <BoundPropertyInt Name="rotateStepNinety" Value="0" />
      </BoundProperties>
    </ImageClip>
    <ImageClip extentID="41" gapBefore="0" mediaItemID="37" duration="7">
      <Effects />
      <Transitions />
      <BoundProperties>
        <BoundPropertyInt Name="rotateStepNinety" Value="0" />
      </BoundProperties>
    </ImageClip>
    <ImageClip extentID="42" gapBefore="0" mediaItemID="38" duration="7">
      <Effects />
      <Transitions />
      <BoundProperties>
        <BoundPropertyInt Name="rotateStepNinety" Value="0" />
      </BoundProperties>
    </ImageClip>
    <ImageClip extentID="43" gapBefore="0" mediaItemID="39" duration="7">
      <Effects />
      <Transitions />
      <BoundProperties>
        <BoundPropertyInt Name="rotateStepNinety" Value="0" />
      </BoundProperties>
    </ImageClip>
    <ImageClip extentID="44" gapBefore="0" mediaItemID="40" duration="7">
      <Effects />
      <Transitions />
      <BoundProperties>
        <BoundPropertyInt Name="rotateStepNinety" Value="0" />
      </BoundProperties>
    </ImageClip>
    <ImageClip extentID="45" gapBefore="0" mediaItemID="41" duration="7">
      <Effects />
      <Transitions />
      <BoundProperties>
        <BoundPropertyInt Name="rotateStepNinety" Value="0" />
      </BoundProperties>
    </ImageClip>
    <ImageClip extentID="46" gapBefore="0" mediaItemID="42" duration="7">
      <Effects />
      <Transitions />
      <BoundProperties>
        <BoundPropertyInt Name="rotateStepNinety" Value="0" />
      </BoundProperties>
    </ImageClip>
    <ImageClip extentID="47" gapBefore="0" mediaItemID="43" duration="7">
      <Effects />
      <Transitions />
      <BoundProperties>
        <BoundPropertyInt Name="rotateStepNinety" Value="0" />
      </BoundProperties>
    </ImageClip>
    <ImageClip extentID="48" gapBefore="0" mediaItemID="44" duration="7">
      <Effects />
      <Transitions />
      <BoundProperties>
        <BoundPropertyInt Name="rotateStepNinety" Value="0" />
      </BoundProperties>
    </ImageClip>
    <ImageClip extentID="49" gapBefore="0" mediaItemID="45" duration="7">
      <Effects />
      <Transitions />
      <BoundProperties>
        <BoundPropertyInt Name="rotateStepNinety" Value="0" />
      </BoundProperties>
    </ImageClip>
    <ImageClip extentID="50" gapBefore="0" mediaItemID="46" duration="7">
      <Effects />
      <Transitions />
      <BoundProperties>
        <BoundPropertyInt Name="rotateStepNinety" Value="0" />
      </BoundProperties>
    </ImageClip>
    <ImageClip extentID="51" gapBefore="0" mediaItemID="47" duration="7">
      <Effects />
      <Transitions />
      <BoundProperties>
        <BoundPropertyInt Name="rotateStepNinety" Value="0" />
      </BoundProperties>
    </ImageClip>
    <ImageClip extentID="52" gapBefore="0" mediaItemID="48" duration="7">
      <Effects />
      <Transitions />
      <BoundProperties>
        <BoundPropertyInt Name="rotateStepNinety" Value="0" />
      </BoundProperties>
    </ImageClip>
    <ImageClip extentID="53" gapBefore="0" mediaItemID="49" duration="7">
      <Effects />
      <Transitions />
      <BoundProperties>
        <BoundPropertyInt Name="rotateStepNinety" Value="0" />
      </BoundProperties>
    </ImageClip>
    <ImageClip extentID="54" gapBefore="0" mediaItemID="50" duration="7">
      <Effects />
      <Transitions />
      <BoundProperties>
        <BoundPropertyInt Name="rotateStepNinety" Value="0" />
      </BoundProperties>
    </ImageClip>
    <ImageClip extentID="55" gapBefore="0" mediaItemID="51" duration="7">
      <Effects />
      <Transitions />
      <BoundProperties>
        <BoundPropertyInt Name="rotateStepNinety" Value="0" />
      </BoundProperties>
    </ImageClip>
    <ImageClip extentID="56" gapBefore="0" mediaItemID="52" duration="7">
      <Effects />
      <Transitions />
      <BoundProperties>
        <BoundPropertyInt Name="rotateStepNinety" Value="0" />
      </BoundProperties>
    </ImageClip>
    <ImageClip extentID="57" gapBefore="0" mediaItemID="53" duration="7">
      <Effects />
      <Transitions />
      <BoundProperties>
        <BoundPropertyInt Name="rotateStepNinety" Value="0" />
      </BoundProperties>
    </ImageClip>
    <ImageClip extentID="58" gapBefore="0" mediaItemID="54" duration="7">
      <Effects />
      <Transitions />
      <BoundProperties>
        <BoundPropertyInt Name="rotateStepNinety" Value="0" />
      </BoundProperties>
    </ImageClip>
    <ImageClip extentID="59" gapBefore="0" mediaItemID="55" duration="7">
      <Effects />
      <Transitions />
      <BoundProperties>
        <BoundPropertyInt Name="rotateStepNinety" Value="0" />
      </BoundProperties>
    </ImageClip>
    <ImageClip extentID="60" gapBefore="0" mediaItemID="56" duration="7">
      <Effects />
      <Transitions />
      <BoundProperties>
        <BoundPropertyInt Name="rotateStepNinety" Value="0" />
      </BoundProperties>
    </ImageClip>
    <ImageClip extentID="61" gapBefore="0" mediaItemID="57" duration="7">
      <Effects />
      <Transitions />
      <BoundProperties>
        <BoundPropertyInt Name="rotateStepNinety" Value="0" />
      </BoundProperties>
    </ImageClip>
    <ImageClip extentID="62" gapBefore="0" mediaItemID="58" duration="7">
      <Effects />
      <Transitions />
      <BoundProperties>
        <BoundPropertyInt Name="rotateStepNinety" Value="0" />
      </BoundProperties>
    </ImageClip>
    <ImageClip extentID="63" gapBefore="0" mediaItemID="59" duration="7">
      <Effects />
      <Transitions />
      <BoundProperties>
        <BoundPropertyInt Name="rotateStepNinety" Value="0" />
      </BoundProperties>
    </ImageClip>
    <ImageClip extentID="64" gapBefore="0" mediaItemID="60" duration="7">
      <Effects />
      <Transitions />
      <BoundProperties>
        <BoundPropertyInt Name="rotateStepNinety" Value="0" />
      </BoundProperties>
    </ImageClip>
    <ImageClip extentID="65" gapBefore="0" mediaItemID="61" duration="7">
      <Effects />
      <Transitions />
      <BoundProperties>
        <BoundPropertyInt Name="rotateStepNinety" Value="0" />
      </BoundProperties>
    </ImageClip>
    <ImageClip extentID="66" gapBefore="0" mediaItemID="62" duration="7">
      <Effects />
      <Transitions />
      <BoundProperties>
        <BoundPropertyInt Name="rotateStepNinety" Value="0" />
      </BoundProperties>
    </ImageClip>
    <ImageClip extentID="67" gapBefore="0" mediaItemID="63" duration="7">
      <Effects />
      <Transitions />
      <BoundProperties>
        <BoundPropertyInt Name="rotateStepNinety" Value="0" />
      </BoundProperties>
    </ImageClip>
    <ImageClip extentID="68" gapBefore="0" mediaItemID="64" duration="7">
      <Effects />
      <Transitions />
      <BoundProperties>
        <BoundPropertyInt Name="rotateStepNinety" Value="0" />
      </BoundProperties>
    </ImageClip>
    <ImageClip extentID="69" gapBefore="0" mediaItemID="65" duration="7">
      <Effects />
      <Transitions />
      <BoundProperties>
        <BoundPropertyInt Name="rotateStepNinety" Value="0" />
      </BoundProperties>
    </ImageClip>
    <ImageClip extentID="70" gapBefore="0" mediaItemID="66" duration="7">
      <Effects />
      <Transitions />
      <BoundProperties>
        <BoundPropertyInt Name="rotateStepNinety" Value="0" />
      </BoundProperties>
    </ImageClip>
    <ImageClip extentID="71" gapBefore="0" mediaItemID="67" duration="7">
      <Effects />
      <Transitions />
      <BoundProperties>
        <BoundPropertyInt Name="rotateStepNinety" Value="0" />
      </BoundProperties>
    </ImageClip>
    <ImageClip extentID="72" gapBefore="0" mediaItemID="68" duration="7">
      <Effects />
      <Transitions />
      <BoundProperties>
        <BoundPropertyInt Name="rotateStepNinety" Value="0" />
      </BoundProperties>
    </ImageClip>
    <ImageClip extentID="73" gapBefore="0" mediaItemID="69" duration="7">
      <Effects />
      <Transitions />
      <BoundProperties>
        <BoundPropertyInt Name="rotateStepNinety" Value="0" />
      </BoundProperties>
    </ImageClip>
    <ImageClip extentID="74" gapBefore="0" mediaItemID="70" duration="7">
      <Effects />
      <Transitions />
      <BoundProperties>
        <BoundPropertyInt Name="rotateStepNinety" Value="0" />
      </BoundProperties>
    </ImageClip>
    <ImageClip extentID="75" gapBefore="0" mediaItemID="71" duration="7">
      <Effects />
      <Transitions />
      <BoundProperties>
        <BoundPropertyInt Name="rotateStepNinety" Value="0" />
      </BoundProperties>
    </ImageClip>
    <ImageClip extentID="76" gapBefore="0" mediaItemID="72" duration="7">
      <Effects />
      <Transitions />
      <BoundProperties>
        <BoundPropertyInt Name="rotateStepNinety" Value="0" />
      </BoundProperties>
    </ImageClip>
    <ImageClip extentID="77" gapBefore="0" mediaItemID="73" duration="7">
      <Effects />
      <Transitions />
      <BoundProperties>
        <BoundPropertyInt Name="rotateStepNinety" Value="0" />
      </BoundProperties>
    </ImageClip>
    <ImageClip extentID="78" gapBefore="0" mediaItemID="74" duration="7">
      <Effects />
      <Transitions />
      <BoundProperties>
        <BoundPropertyInt Name="rotateStepNinety" Value="0" />
      </BoundProperties>
    </ImageClip>
    <ImageClip extentID="79" gapBefore="0" mediaItemID="75" duration="7">
      <Effects />
      <Transitions />
      <BoundProperties>
        <BoundPropertyInt Name="rotateStepNinety" Value="0" />
      </BoundProperties>
    </ImageClip>
    <ImageClip extentID="80" gapBefore="0" mediaItemID="76" duration="7">
      <Effects />
      <Transitions />
      <BoundProperties>
        <BoundPropertyInt Name="rotateStepNinety" Value="0" />
      </BoundProperties>
    </ImageClip>
    <ImageClip extentID="81" gapBefore="0" mediaItemID="77" duration="7">
      <Effects />
      <Transitions />
      <BoundProperties>
        <BoundPropertyInt Name="rotateStepNinety" Value="0" />
      </BoundProperties>
    </ImageClip>
    <ImageClip extentID="82" gapBefore="0" mediaItemID="78" duration="7">
      <Effects />
      <Transitions />
      <BoundProperties>
        <BoundPropertyInt Name="rotateStepNinety" Value="0" />
      </BoundProperties>
    </ImageClip>
    <ImageClip extentID="83" gapBefore="0" mediaItemID="79" duration="7">
      <Effects />
      <Transitions />
      <BoundProperties>
        <BoundPropertyInt Name="rotateStepNinety" Value="0" />
      </BoundProperties>
    </ImageClip>
    <ImageClip extentID="84" gapBefore="0" mediaItemID="80" duration="7">
      <Effects />
      <Transitions />
      <BoundProperties>
        <BoundPropertyInt Name="rotateStepNinety" Value="0" />
      </BoundProperties>
    </ImageClip>
    <ImageClip extentID="85" gapBefore="0" mediaItemID="81" duration="7">
      <Effects />
      <Transitions />
      <BoundProperties>
        <BoundPropertyInt Name="rotateStepNinety" Value="0" />
      </BoundProperties>
    </ImageClip>
    <ImageClip extentID="86" gapBefore="0" mediaItemID="82" duration="7">
      <Effects />
      <Transitions />
      <BoundProperties>
        <BoundPropertyInt Name="rotateStepNinety" Value="0" />
      </BoundProperties>
    </ImageClip>
    <ImageClip extentID="87" gapBefore="0" mediaItemID="83" duration="7">
      <Effects />
      <Transitions />
      <BoundProperties>
        <BoundPropertyInt Name="rotateStepNinety" Value="0" />
      </BoundProperties>
    </ImageClip>
    <ImageClip extentID="88" gapBefore="0" mediaItemID="84" duration="7">
      <Effects />
      <Transitions />
      <BoundProperties>
        <BoundPropertyInt Name="rotateStepNinety" Value="0" />
      </BoundProperties>
    </ImageClip>
    <ImageClip extentID="89" gapBefore="0" mediaItemID="85" duration="7">
      <Effects />
      <Transitions />
      <BoundProperties>
        <BoundPropertyInt Name="rotateStepNinety" Value="0" />
      </BoundProperties>
    </ImageClip>
    <ImageClip extentID="90" gapBefore="0" mediaItemID="86" duration="7">
      <Effects />
      <Transitions />
      <BoundProperties>
        <BoundPropertyInt Name="rotateStepNinety" Value="0" />
      </BoundProperties>
    </ImageClip>
    <ImageClip extentID="91" gapBefore="0" mediaItemID="87" duration="7">
      <Effects />
      <Transitions />
      <BoundProperties>
        <BoundPropertyInt Name="rotateStepNinety" Value="0" />
      </BoundProperties>
    </ImageClip>
    <ImageClip extentID="92" gapBefore="0" mediaItemID="88" duration="7">
      <Effects />
      <Transitions />
      <BoundProperties>
        <BoundPropertyInt Name="rotateStepNinety" Value="0" />
      </BoundProperties>
    </ImageClip>
    <ImageClip extentID="93" gapBefore="0" mediaItemID="89" duration="7">
      <Effects />
      <Transitions />
      <BoundProperties>
        <BoundPropertyInt Name="rotateStepNinety" Value="0" />
      </BoundProperties>
    </ImageClip>
    <ImageClip extentID="94" gapBefore="0" mediaItemID="90" duration="7">
      <Effects />
      <Transitions />
      <BoundProperties>
        <BoundPropertyInt Name="rotateStepNinety" Value="0" />
      </BoundProperties>
    </ImageClip>
    <ImageClip extentID="95" gapBefore="0" mediaItemID="91" duration="7">
      <Effects />
      <Transitions />
      <BoundProperties>
        <BoundPropertyInt Name="rotateStepNinety" Value="0" />
      </BoundProperties>
    </ImageClip>
    <ImageClip extentID="96" gapBefore="0" mediaItemID="92" duration="7">
      <Effects />
      <Transitions />
      <BoundProperties>
        <BoundPropertyInt Name="rotateStepNinety" Value="0" />
      </BoundProperties>
    </ImageClip>
    <ImageClip extentID="97" gapBefore="0" mediaItemID="93" duration="7">
      <Effects />
      <Transitions />
      <BoundProperties>
        <BoundPropertyInt Name="rotateStepNinety" Value="0" />
      </BoundProperties>
    </ImageClip>
    <ImageClip extentID="98" gapBefore="0" mediaItemID="94" duration="7">
      <Effects />
      <Transitions />
      <BoundProperties>
        <BoundPropertyInt Name="rotateStepNinety" Value="0" />
      </BoundProperties>
    </ImageClip>
    <ImageClip extentID="99" gapBefore="0" mediaItemID="95" duration="7">
      <Effects />
      <Transitions />
      <BoundProperties>
        <BoundPropertyInt Name="rotateStepNinety" Value="0" />
      </BoundProperties>
    </ImageClip>
    <ImageClip extentID="100" gapBefore="0" mediaItemID="96" duration="7">
      <Effects />
      <Transitions />
      <BoundProperties>
        <BoundPropertyInt Name="rotateStepNinety" Value="0" />
      </BoundProperties>
    </ImageClip>
    <ImageClip extentID="101" gapBefore="0" mediaItemID="97" duration="7">
      <Effects />
      <Transitions />
      <BoundProperties>
        <BoundPropertyInt Name="rotateStepNinety" Value="0" />
      </BoundProperties>
    </ImageClip>
    <ImageClip extentID="102" gapBefore="0" mediaItemID="98" duration="7">
      <Effects />
      <Transitions />
      <BoundProperties>
        <BoundPropertyInt Name="rotateStepNinety" Value="0" />
      </BoundProperties>
    </ImageClip>
    <ImageClip extentID="103" gapBefore="0" mediaItemID="99" duration="7">
      <Effects />
      <Transitions />
      <BoundProperties>
        <BoundPropertyInt Name="rotateStepNinety" Value="0" />
      </BoundProperties>
    </ImageClip>
    <ImageClip extentID="104" gapBefore="0" mediaItemID="100" duration="7">
      <Effects />
      <Transitions />
      <BoundProperties>
        <BoundPropertyInt Name="rotateStepNinety" Value="0" />
      </BoundProperties>
    </ImageClip>
    <ImageClip extentID="105" gapBefore="0" mediaItemID="101" duration="7">
      <Effects />
      <Transitions />
      <BoundProperties>
        <BoundPropertyInt Name="rotateStepNinety" Value="0" />
      </BoundProperties>
    </ImageClip>
    <ImageClip extentID="106" gapBefore="0" mediaItemID="102" duration="7">
      <Effects />
      <Transitions />
      <BoundProperties>
        <BoundPropertyInt Name="rotateStepNinety" Value="0" />
      </BoundProperties>
    </ImageClip>
    <ImageClip extentID="107" gapBefore="0" mediaItemID="103" duration="7">
      <Effects />
      <Transitions />
      <BoundProperties>
        <BoundPropertyInt Name="rotateStepNinety" Value="0" />
      </BoundProperties>
    </ImageClip>
    <ImageClip extentID="108" gapBefore="0" mediaItemID="104" duration="7">
      <Effects />
      <Transitions />
      <BoundProperties>
        <BoundPropertyInt Name="rotateStepNinety" Value="0" />
      </BoundProperties>
    </ImageClip>
    <ImageClip extentID="109" gapBefore="0" mediaItemID="105" duration="7">
      <Effects />
      <Transitions />
      <BoundProperties>
        <BoundPropertyInt Name="rotateStepNinety" Value="0" />
      </BoundProperties>
    </ImageClip>
    <ImageClip extentID="110" gapBefore="0" mediaItemID="106" duration="7">
      <Effects />
      <Transitions />
      <BoundProperties>
        <BoundPropertyInt Name="rotateStepNinety" Value="0" />
      </BoundProperties>
    </ImageClip>
    <ImageClip extentID="111" gapBefore="0" mediaItemID="107" duration="7">
      <Effects />
      <Transitions />
      <BoundProperties>
        <BoundPropertyInt Name="rotateStepNinety" Value="0" />
      </BoundProperties>
    </ImageClip>
    <ImageClip extentID="112" gapBefore="0" mediaItemID="108" duration="7">
      <Effects />
      <Transitions />
      <BoundProperties>
        <BoundPropertyInt Name="rotateStepNinety" Value="0" />
      </BoundProperties>
    </ImageClip>
    <ImageClip extentID="113" gapBefore="0" mediaItemID="109" duration="7">
      <Effects />
      <Transitions />
      <BoundProperties>
        <BoundPropertyInt Name="rotateStepNinety" Value="0" />
      </BoundProperties>
    </ImageClip>
    <ImageClip extentID="114" gapBefore="0" mediaItemID="110" duration="7">
      <Effects />
      <Transitions />
      <BoundProperties>
        <BoundPropertyInt Name="rotateStepNinety" Value="0" />
      </BoundProperties>
    </ImageClip>
    <ImageClip extentID="115" gapBefore="0" mediaItemID="111" duration="7">
      <Effects />
      <Transitions />
      <BoundProperties>
        <BoundPropertyInt Name="rotateStepNinety" Value="0" />
      </BoundProperties>
    </ImageClip>
    <ImageClip extentID="116" gapBefore="0" mediaItemID="112" duration="7">
      <Effects />
      <Transitions />
      <BoundProperties>
        <BoundPropertyInt Name="rotateStepNinety" Value="0" />
      </BoundProperties>
    </ImageClip>
    <ImageClip extentID="117" gapBefore="0" mediaItemID="113" duration="7">
      <Effects />
      <Transitions />
      <BoundProperties>
        <BoundPropertyInt Name="rotateStepNinety" Value="0" />
      </BoundProperties>
    </ImageClip>
    <ImageClip extentID="118" gapBefore="0" mediaItemID="114" duration="7">
      <Effects />
      <Transitions />
      <BoundProperties>
        <BoundPropertyInt Name="rotateStepNinety" Value="0" />
      </BoundProperties>
    </ImageClip>
    <ImageClip extentID="119" gapBefore="0" mediaItemID="115" duration="7">
      <Effects />
      <Transitions />
      <BoundProperties>
        <BoundPropertyInt Name="rotateStepNinety" Value="0" />
      </BoundProperties>
    </ImageClip>
    <ImageClip extentID="120" gapBefore="0" mediaItemID="116" duration="7">
      <Effects />
      <Transitions />
      <BoundProperties>
        <BoundPropertyInt Name="rotateStepNinety" Value="0" />
      </BoundProperties>
    </ImageClip>
    <ImageClip extentID="121" gapBefore="0" mediaItemID="117" duration="7">
      <Effects />
      <Transitions />
      <BoundProperties>
        <BoundPropertyInt Name="rotateStepNinety" Value="0" />
      </BoundProperties>
    </ImageClip>
    <ImageClip extentID="122" gapBefore="0" mediaItemID="118" duration="7">
      <Effects />
      <Transitions />
      <BoundProperties>
        <BoundPropertyInt Name="rotateStepNinety" Value="0" />
      </BoundProperties>
    </ImageClip>
    <ImageClip extentID="123" gapBefore="0" mediaItemID="119" duration="7">
      <Effects />
      <Transitions />
      <BoundProperties>
        <BoundPropertyInt Name="rotateStepNinety" Value="0" />
      </BoundProperties>
    </ImageClip>
    <ImageClip extentID="124" gapBefore="0" mediaItemID="120" duration="7">
      <Effects />
      <Transitions />
      <BoundProperties>
        <BoundPropertyInt Name="rotateStepNinety" Value="0" />
      </BoundProperties>
    </ImageClip>
    <ImageClip extentID="125" gapBefore="0" mediaItemID="121" duration="7">
      <Effects />
      <Transitions />
      <BoundProperties>
        <BoundPropertyInt Name="rotateStepNinety" Value="0" />
      </BoundProperties>
    </ImageClip>
    <ImageClip extentID="126" gapBefore="0" mediaItemID="122" duration="7">
      <Effects />
      <Transitions />
      <BoundProperties>
        <BoundPropertyInt Name="rotateStepNinety" Value="0" />
      </BoundProperties>
    </ImageClip>
    <ImageClip extentID="127" gapBefore="0" mediaItemID="123" duration="7">
      <Effects />
      <Transitions />
      <BoundProperties>
        <BoundPropertyInt Name="rotateStepNinety" Value="0" />
      </BoundProperties>
    </ImageClip>
    <ImageClip extentID="128" gapBefore="0" mediaItemID="124" duration="7">
      <Effects />
      <Transitions />
      <BoundProperties>
        <BoundPropertyInt Name="rotateStepNinety" Value="0" />
      </BoundProperties>
    </ImageClip>
    <ImageClip extentID="129" gapBefore="0" mediaItemID="125" duration="7">
      <Effects />
      <Transitions />
      <BoundProperties>
        <BoundPropertyInt Name="rotateStepNinety" Value="0" />
      </BoundProperties>
    </ImageClip>
    <ImageClip extentID="130" gapBefore="0" mediaItemID="126" duration="7">
      <Effects />
      <Transitions />
      <BoundProperties>
        <BoundPropertyInt Name="rotateStepNinety" Value="0" />
      </BoundProperties>
    </ImageClip>
    <ImageClip extentID="131" gapBefore="0" mediaItemID="127" duration="7">
      <Effects />
      <Transitions />
      <BoundProperties>
        <BoundPropertyInt Name="rotateStepNinety" Value="0" />
      </BoundProperties>
    </ImageClip>
    <ImageClip extentID="132" gapBefore="0" mediaItemID="128" duration="7">
      <Effects />
      <Transitions />
      <BoundProperties>
        <BoundPropertyInt Name="rotateStepNinety" Value="0" />
      </BoundProperties>
    </ImageClip>
    <ImageClip extentID="133" gapBefore="0" mediaItemID="129" duration="7">
      <Effects />
      <Transitions />
      <BoundProperties>
        <BoundPropertyInt Name="rotateStepNinety" Value="0" />
      </BoundProperties>
    </ImageClip>
    <ImageClip extentID="134" gapBefore="0" mediaItemID="130" duration="7">
      <Effects />
      <Transitions />
      <BoundProperties>
        <BoundPropertyInt Name="rotateStepNinety" Value="0" />
      </BoundProperties>
    </ImageClip>
    <ImageClip extentID="135" gapBefore="0" mediaItemID="131" duration="7">
      <Effects />
      <Transitions />
      <BoundProperties>
        <BoundPropertyInt Name="rotateStepNinety" Value="0" />
      </BoundProperties>
    </ImageClip>
    <ImageClip extentID="136" gapBefore="0" mediaItemID="132" duration="7">
      <Effects />
      <Transitions />
      <BoundProperties>
        <BoundPropertyInt Name="rotateStepNinety" Value="0" />
      </BoundProperties>
    </ImageClip>
    <ImageClip extentID="137" gapBefore="0" mediaItemID="133" duration="7">
      <Effects />
      <Transitions />
      <BoundProperties>
        <BoundPropertyInt Name="rotateStepNinety" Value="0" />
      </BoundProperties>
    </ImageClip>
    <ImageClip extentID="138" gapBefore="0" mediaItemID="134" duration="7">
      <Effects />
      <Transitions />
      <BoundProperties>
        <BoundPropertyInt Name="rotateStepNinety" Value="0" />
      </BoundProperties>
    </ImageClip>
    <ImageClip extentID="139" gapBefore="0" mediaItemID="135" duration="7">
      <Effects />
      <Transitions />
      <BoundProperties>
        <BoundPropertyInt Name="rotateStepNinety" Value="0" />
      </BoundProperties>
    </ImageClip>
    <ImageClip extentID="140" gapBefore="0" mediaItemID="136" duration="7">
      <Effects />
      <Transitions />
      <BoundProperties>
        <BoundPropertyInt Name="rotateStepNinety" Value="0" />
      </BoundProperties>
    </ImageClip>
    <ImageClip extentID="141" gapBefore="0" mediaItemID="137" duration="7">
      <Effects />
      <Transitions />
      <BoundProperties>
        <BoundPropertyInt Name="rotateStepNinety" Value="0" />
      </BoundProperties>
    </ImageClip>
    <ImageClip extentID="142" gapBefore="0" mediaItemID="138" duration="7">
      <Effects />
      <Transitions />
      <BoundProperties>
        <BoundPropertyInt Name="rotateStepNinety" Value="0" />
      </BoundProperties>
    </ImageClip>
    <ImageClip extentID="143" gapBefore="0" mediaItemID="139" duration="7">
      <Effects />
      <Transitions />
      <BoundProperties>
        <BoundPropertyInt Name="rotateStepNinety" Value="0" />
      </BoundProperties>
    </ImageClip>
    <ImageClip extentID="144" gapBefore="0" mediaItemID="140" duration="7">
      <Effects />
      <Transitions />
      <BoundProperties>
        <BoundPropertyInt Name="rotateStepNinety" Value="0" />
      </BoundProperties>
    </ImageClip>
    <ImageClip extentID="145" gapBefore="0" mediaItemID="141" duration="7">
      <Effects />
      <Transitions />
      <BoundProperties>
        <BoundPropertyInt Name="rotateStepNinety" Value="0" />
      </BoundProperties>
    </ImageClip>
    <ImageClip extentID="146" gapBefore="0" mediaItemID="142" duration="7">
      <Effects />
      <Transitions />
      <BoundProperties>
        <BoundPropertyInt Name="rotateStepNinety" Value="0" />
      </BoundProperties>
    </ImageClip>
    <ImageClip extentID="147" gapBefore="0" mediaItemID="143" duration="7">
      <Effects />
      <Transitions />
      <BoundProperties>
        <BoundPropertyInt Name="rotateStepNinety" Value="0" />
      </BoundProperties>
    </ImageClip>
    <ImageClip extentID="148" gapBefore="0" mediaItemID="144" duration="7">
      <Effects />
      <Transitions />
      <BoundProperties>
        <BoundPropertyInt Name="rotateStepNinety" Value="0" />
      </BoundProperties>
    </ImageClip>
    <ImageClip extentID="149" gapBefore="0" mediaItemID="145" duration="7">
      <Effects />
      <Transitions />
      <BoundProperties>
        <BoundPropertyInt Name="rotateStepNinety" Value="0" />
      </BoundProperties>
    </ImageClip>
    <ImageClip extentID="150" gapBefore="0" mediaItemID="146" duration="7">
      <Effects />
      <Transitions />
      <BoundProperties>
        <BoundPropertyInt Name="rotateStepNinety" Value="0" />
      </BoundProperties>
    </ImageClip>
    <ImageClip extentID="151" gapBefore="0" mediaItemID="147" duration="7">
      <Effects />
      <Transitions />
      <BoundProperties>
        <BoundPropertyInt Name="rotateStepNinety" Value="0" />
      </BoundProperties>
    </ImageClip>
    <ImageClip extentID="152" gapBefore="0" mediaItemID="148" duration="7">
      <Effects />
      <Transitions />
      <BoundProperties>
        <BoundPropertyInt Name="rotateStepNinety" Value="0" />
      </BoundProperties>
    </ImageClip>
    <ImageClip extentID="153" gapBefore="0" mediaItemID="149" duration="7">
      <Effects />
      <Transitions />
      <BoundProperties>
        <BoundPropertyInt Name="rotateStepNinety" Value="0" />
      </BoundProperties>
    </ImageClip>
    <ImageClip extentID="154" gapBefore="0" mediaItemID="150" duration="7">
      <Effects />
      <Transitions />
      <BoundProperties>
        <BoundPropertyInt Name="rotateStepNinety" Value="0" />
      </BoundProperties>
    </ImageClip>
    <ImageClip extentID="155" gapBefore="0" mediaItemID="151" duration="7">
      <Effects />
      <Transitions />
      <BoundProperties>
        <BoundPropertyInt Name="rotateStepNinety" Value="0" />
      </BoundProperties>
    </ImageClip>
    <ImageClip extentID="156" gapBefore="0" mediaItemID="152" duration="7">
      <Effects />
      <Transitions />
      <BoundProperties>
        <BoundPropertyInt Name="rotateStepNinety" Value="0" />
      </BoundProperties>
    </ImageClip>
    <ImageClip extentID="157" gapBefore="0" mediaItemID="153" duration="7">
      <Effects />
      <Transitions />
      <BoundProperties>
        <BoundPropertyInt Name="rotateStepNinety" Value="0" />
      </BoundProperties>
    </ImageClip>
    <ImageClip extentID="158" gapBefore="0" mediaItemID="154" duration="7">
      <Effects />
      <Transitions />
      <BoundProperties>
        <BoundPropertyInt Name="rotateStepNinety" Value="0" />
      </BoundProperties>
    </ImageClip>
    <ImageClip extentID="159" gapBefore="0" mediaItemID="155" duration="7">
      <Effects />
      <Transitions />
      <BoundProperties>
        <BoundPropertyInt Name="rotateStepNinety" Value="0" />
      </BoundProperties>
    </ImageClip>
    <ImageClip extentID="160" gapBefore="0" mediaItemID="156" duration="7">
      <Effects />
      <Transitions />
      <BoundProperties>
        <BoundPropertyInt Name="rotateStepNinety" Value="0" />
      </BoundProperties>
    </ImageClip>
    <ImageClip extentID="161" gapBefore="0" mediaItemID="157" duration="7">
      <Effects />
      <Transitions />
      <BoundProperties>
        <BoundPropertyInt Name="rotateStepNinety" Value="0" />
      </BoundProperties>
    </ImageClip>
    <ImageClip extentID="162" gapBefore="0" mediaItemID="158" duration="7">
      <Effects />
      <Transitions />
      <BoundProperties>
        <BoundPropertyInt Name="rotateStepNinety" Value="0" />
      </BoundProperties>
    </ImageClip>
    <ImageClip extentID="163" gapBefore="0" mediaItemID="159" duration="7">
      <Effects />
      <Transitions />
      <BoundProperties>
        <BoundPropertyInt Name="rotateStepNinety" Value="0" />
      </BoundProperties>
    </ImageClip>
    <ImageClip extentID="164" gapBefore="0" mediaItemID="160" duration="7">
      <Effects />
      <Transitions />
      <BoundProperties>
        <BoundPropertyInt Name="rotateStepNinety" Value="0" />
      </BoundProperties>
    </ImageClip>
    <ImageClip extentID="165" gapBefore="0" mediaItemID="161" duration="7">
      <Effects />
      <Transitions />
      <BoundProperties>
        <BoundPropertyInt Name="rotateStepNinety" Value="0" />
      </BoundProperties>
    </ImageClip>
    <ImageClip extentID="166" gapBefore="0" mediaItemID="162" duration="7">
      <Effects />
      <Transitions />
      <BoundProperties>
        <BoundPropertyInt Name="rotateStepNinety" Value="0" />
      </BoundProperties>
    </ImageClip>
    <ImageClip extentID="167" gapBefore="0" mediaItemID="163" duration="7">
      <Effects />
      <Transitions />
      <BoundProperties>
        <BoundPropertyInt Name="rotateStepNinety" Value="0" />
      </BoundProperties>
    </ImageClip>
    <ImageClip extentID="168" gapBefore="0" mediaItemID="164" duration="7">
      <Effects />
      <Transitions />
      <BoundProperties>
        <BoundPropertyInt Name="rotateStepNinety" Value="0" />
      </BoundProperties>
    </ImageClip>
    <ImageClip extentID="169" gapBefore="0" mediaItemID="165" duration="7">
      <Effects />
      <Transitions />
      <BoundProperties>
        <BoundPropertyInt Name="rotateStepNinety" Value="0" />
      </BoundProperties>
    </ImageClip>
    <ImageClip extentID="170" gapBefore="0" mediaItemID="166" duration="7">
      <Effects />
      <Transitions />
      <BoundProperties>
        <BoundPropertyInt Name="rotateStepNinety" Value="0" />
      </BoundProperties>
    </ImageClip>
    <ImageClip extentID="171" gapBefore="0" mediaItemID="167" duration="7">
      <Effects />
      <Transitions />
      <BoundProperties>
        <BoundPropertyInt Name="rotateStepNinety" Value="0" />
      </BoundProperties>
    </ImageClip>
    <ImageClip extentID="172" gapBefore="0" mediaItemID="168" duration="7">
      <Effects />
      <Transitions />
      <BoundProperties>
        <BoundPropertyInt Name="rotateStepNinety" Value="0" />
      </BoundProperties>
    </ImageClip>
    <ImageClip extentID="173" gapBefore="0" mediaItemID="169" duration="7">
      <Effects />
      <Transitions />
      <BoundProperties>
        <BoundPropertyInt Name="rotateStepNinety" Value="0" />
      </BoundProperties>
    </ImageClip>
    <ImageClip extentID="174" gapBefore="0" mediaItemID="170" duration="7">
      <Effects />
      <Transitions />
      <BoundProperties>
        <BoundPropertyInt Name="rotateStepNinety" Value="0" />
      </BoundProperties>
    </ImageClip>
    <ImageClip extentID="175" gapBefore="0" mediaItemID="171" duration="7">
      <Effects />
      <Transitions />
      <BoundProperties>
        <BoundPropertyInt Name="rotateStepNinety" Value="0" />
      </BoundProperties>
    </ImageClip>
    <ImageClip extentID="176" gapBefore="0" mediaItemID="172" duration="7">
      <Effects />
      <Transitions />
      <BoundProperties>
        <BoundPropertyInt Name="rotateStepNinety" Value="0" />
      </BoundProperties>
    </ImageClip>
    <ImageClip extentID="177" gapBefore="0" mediaItemID="173" duration="7">
      <Effects />
      <Transitions />
      <BoundProperties>
        <BoundPropertyInt Name="rotateStepNinety" Value="0" />
      </BoundProperties>
    </ImageClip>
    <ImageClip extentID="178" gapBefore="0" mediaItemID="174" duration="7">
      <Effects />
      <Transitions />
      <BoundProperties>
        <BoundPropertyInt Name="rotateStepNinety" Value="0" />
      </BoundProperties>
    </ImageClip>
    <ImageClip extentID="179" gapBefore="0" mediaItemID="175" duration="7">
      <Effects />
      <Transitions />
      <BoundProperties>
        <BoundPropertyInt Name="rotateStepNinety" Value="0" />
      </BoundProperties>
    </ImageClip>
    <ImageClip extentID="180" gapBefore="0" mediaItemID="176" duration="7">
      <Effects />
      <Transitions />
      <BoundProperties>
        <BoundPropertyInt Name="rotateStepNinety" Value="0" />
      </BoundProperties>
    </ImageClip>
    <ImageClip extentID="181" gapBefore="0" mediaItemID="177" duration="7">
      <Effects />
      <Transitions />
      <BoundProperties>
        <BoundPropertyInt Name="rotateStepNinety" Value="0" />
      </BoundProperties>
    </ImageClip>
    <ImageClip extentID="182" gapBefore="0" mediaItemID="178" duration="7">
      <Effects />
      <Transitions />
      <BoundProperties>
        <BoundPropertyInt Name="rotateStepNinety" Value="0" />
      </BoundProperties>
    </ImageClip>
    <ImageClip extentID="183" gapBefore="0" mediaItemID="179" duration="7">
      <Effects />
      <Transitions />
      <BoundProperties>
        <BoundPropertyInt Name="rotateStepNinety" Value="0" />
      </BoundProperties>
    </ImageClip>
    <ImageClip extentID="184" gapBefore="0" mediaItemID="180" duration="7">
      <Effects />
      <Transitions />
      <BoundProperties>
        <BoundPropertyInt Name="rotateStepNinety" Value="0" />
      </BoundProperties>
    </ImageClip>
    <ImageClip extentID="185" gapBefore="0" mediaItemID="181" duration="7">
      <Effects />
      <Transitions />
      <BoundProperties>
        <BoundPropertyInt Name="rotateStepNinety" Value="0" />
      </BoundProperties>
    </ImageClip>
    <ImageClip extentID="186" gapBefore="0" mediaItemID="182" duration="7">
      <Effects />
      <Transitions />
      <BoundProperties>
        <BoundPropertyInt Name="rotateStepNinety" Value="0" />
      </BoundProperties>
    </ImageClip>
    <ImageClip extentID="187" gapBefore="0" mediaItemID="183" duration="7">
      <Effects />
      <Transitions />
      <BoundProperties>
        <BoundPropertyInt Name="rotateStepNinety" Value="0" />
      </BoundProperties>
    </ImageClip>
    <ImageClip extentID="188" gapBefore="0" mediaItemID="184" duration="7">
      <Effects />
      <Transitions />
      <BoundProperties>
        <BoundPropertyInt Name="rotateStepNinety" Value="0" />
      </BoundProperties>
    </ImageClip>
    <ImageClip extentID="189" gapBefore="0" mediaItemID="185" duration="7">
      <Effects />
      <Transitions />
      <BoundProperties>
        <BoundPropertyInt Name="rotateStepNinety" Value="0" />
      </BoundProperties>
    </ImageClip>
    <ImageClip extentID="190" gapBefore="0" mediaItemID="186" duration="7">
      <Effects />
      <Transitions />
      <BoundProperties>
        <BoundPropertyInt Name="rotateStepNinety" Value="0" />
      </BoundProperties>
    </ImageClip>
    <ImageClip extentID="191" gapBefore="0" mediaItemID="187" duration="7">
      <Effects />
      <Transitions />
      <BoundProperties>
        <BoundPropertyInt Name="rotateStepNinety" Value="0" />
      </BoundProperties>
    </ImageClip>
    <ImageClip extentID="192" gapBefore="0" mediaItemID="188" duration="7">
      <Effects />
      <Transitions />
      <BoundProperties>
        <BoundPropertyInt Name="rotateStepNinety" Value="0" />
      </BoundProperties>
    </ImageClip>
    <ImageClip extentID="193" gapBefore="0" mediaItemID="189" duration="7">
      <Effects />
      <Transitions />
      <BoundProperties>
        <BoundPropertyInt Name="rotateStepNinety" Value="0" />
      </BoundProperties>
    </ImageClip>
    <ImageClip extentID="194" gapBefore="0" mediaItemID="190" duration="7">
      <Effects />
      <Transitions />
      <BoundProperties>
        <BoundPropertyInt Name="rotateStepNinety" Value="0" />
      </BoundProperties>
    </ImageClip>
    <ImageClip extentID="195" gapBefore="0" mediaItemID="191" duration="7">
      <Effects />
      <Transitions />
      <BoundProperties>
        <BoundPropertyInt Name="rotateStepNinety" Value="0" />
      </BoundProperties>
    </ImageClip>
    <ImageClip extentID="196" gapBefore="0" mediaItemID="192" duration="7">
      <Effects />
      <Transitions />
      <BoundProperties>
        <BoundPropertyInt Name="rotateStepNinety" Value="0" />
      </BoundProperties>
    </ImageClip>
    <ImageClip extentID="197" gapBefore="0" mediaItemID="193" duration="7">
      <Effects />
      <Transitions />
      <BoundProperties>
        <BoundPropertyInt Name="rotateStepNinety" Value="0" />
      </BoundProperties>
    </ImageClip>
    <ImageClip extentID="198" gapBefore="0" mediaItemID="194" duration="7">
      <Effects />
      <Transitions />
      <BoundProperties>
        <BoundPropertyInt Name="rotateStepNinety" Value="0" />
      </BoundProperties>
    </ImageClip>
    <ImageClip extentID="199" gapBefore="0" mediaItemID="195" duration="7">
      <Effects />
      <Transitions />
      <BoundProperties>
        <BoundPropertyInt Name="rotateStepNinety" Value="0" />
      </BoundProperties>
    </ImageClip>
    <ImageClip extentID="200" gapBefore="0" mediaItemID="196" duration="7">
      <Effects />
      <Transitions />
      <BoundProperties>
        <BoundPropertyInt Name="rotateStepNinety" Value="0" />
      </BoundProperties>
    </ImageClip>
    <ImageClip extentID="201" gapBefore="0" mediaItemID="197" duration="7">
      <Effects />
      <Transitions />
      <BoundProperties>
        <BoundPropertyInt Name="rotateStepNinety" Value="0" />
      </BoundProperties>
    </ImageClip>
    <ImageClip extentID="202" gapBefore="0" mediaItemID="198" duration="7">
      <Effects />
      <Transitions />
      <BoundProperties>
        <BoundPropertyInt Name="rotateStepNinety" Value="0" />
      </BoundProperties>
    </ImageClip>
    <ImageClip extentID="203" gapBefore="0" mediaItemID="199" duration="7">
      <Effects />
      <Transitions />
      <BoundProperties>
        <BoundPropertyInt Name="rotateStepNinety" Value="0" />
      </BoundProperties>
    </ImageClip>
    <ImageClip extentID="204" gapBefore="0" mediaItemID="200" duration="7">
      <Effects />
      <Transitions />
      <BoundProperties>
        <BoundPropertyInt Name="rotateStepNinety" Value="0" />
      </BoundProperties>
    </ImageClip>
    <ImageClip extentID="205" gapBefore="0" mediaItemID="201" duration="7">
      <Effects />
      <Transitions />
      <BoundProperties>
        <BoundPropertyInt Name="rotateStepNinety" Value="0" />
      </BoundProperties>
    </ImageClip>
    <ImageClip extentID="206" gapBefore="0" mediaItemID="202" duration="7">
      <Effects />
      <Transitions />
      <BoundProperties>
        <BoundPropertyInt Name="rotateStepNinety" Value="0" />
      </BoundProperties>
    </ImageClip>
    <ImageClip extentID="207" gapBefore="0" mediaItemID="203" duration="7">
      <Effects />
      <Transitions />
      <BoundProperties>
        <BoundPropertyInt Name="rotateStepNinety" Value="0" />
      </BoundProperties>
    </ImageClip>
    <ImageClip extentID="208" gapBefore="0" mediaItemID="204" duration="7">
      <Effects />
      <Transitions />
      <BoundProperties>
        <BoundPropertyInt Name="rotateStepNinety" Value="0" />
      </BoundProperties>
    </ImageClip>
    <ImageClip extentID="209" gapBefore="0" mediaItemID="205" duration="7">
      <Effects />
      <Transitions />
      <BoundProperties>
        <BoundPropertyInt Name="rotateStepNinety" Value="0" />
      </BoundProperties>
    </ImageClip>
    <ImageClip extentID="210" gapBefore="0" mediaItemID="206" duration="7">
      <Effects />
      <Transitions />
      <BoundProperties>
        <BoundPropertyInt Name="rotateStepNinety" Value="0" />
      </BoundProperties>
    </ImageClip>
    <ImageClip extentID="211" gapBefore="0" mediaItemID="207" duration="7">
      <Effects />
      <Transitions />
      <BoundProperties>
        <BoundPropertyInt Name="rotateStepNinety" Value="0" />
      </BoundProperties>
    </ImageClip>
    <ImageClip extentID="212" gapBefore="0" mediaItemID="208" duration="7">
      <Effects />
      <Transitions />
      <BoundProperties>
        <BoundPropertyInt Name="rotateStepNinety" Value="0" />
      </BoundProperties>
    </ImageClip>
    <ImageClip extentID="213" gapBefore="0" mediaItemID="209" duration="7">
      <Effects />
      <Transitions />
      <BoundProperties>
        <BoundPropertyInt Name="rotateStepNinety" Value="0" />
      </BoundProperties>
    </ImageClip>
    <ImageClip extentID="214" gapBefore="0" mediaItemID="210" duration="7">
      <Effects />
      <Transitions />
      <BoundProperties>
        <BoundPropertyInt Name="rotateStepNinety" Value="0" />
      </BoundProperties>
    </ImageClip>
    <ImageClip extentID="215" gapBefore="0" mediaItemID="211" duration="7">
      <Effects />
      <Transitions />
      <BoundProperties>
        <BoundPropertyInt Name="rotateStepNinety" Value="0" />
      </BoundProperties>
    </ImageClip>
    <ImageClip extentID="216" gapBefore="0" mediaItemID="212" duration="7">
      <Effects />
      <Transitions />
      <BoundProperties>
        <BoundPropertyInt Name="rotateStepNinety" Value="0" />
      </BoundProperties>
    </ImageClip>
    <ImageClip extentID="217" gapBefore="0" mediaItemID="213" duration="7">
      <Effects />
      <Transitions />
      <BoundProperties>
        <BoundPropertyInt Name="rotateStepNinety" Value="0" />
      </BoundProperties>
    </ImageClip>
    <ImageClip extentID="218" gapBefore="0" mediaItemID="214" duration="7">
      <Effects />
      <Transitions />
      <BoundProperties>
        <BoundPropertyInt Name="rotateStepNinety" Value="0" />
      </BoundProperties>
    </ImageClip>
    <ImageClip extentID="219" gapBefore="0" mediaItemID="215" duration="7">
      <Effects />
      <Transitions />
      <BoundProperties>
        <BoundPropertyInt Name="rotateStepNinety" Value="0" />
      </BoundProperties>
    </ImageClip>
    <ImageClip extentID="220" gapBefore="0" mediaItemID="216" duration="7">
      <Effects />
      <Transitions />
      <BoundProperties>
        <BoundPropertyInt Name="rotateStepNinety" Value="0" />
      </BoundProperties>
    </ImageClip>
    <ImageClip extentID="221" gapBefore="0" mediaItemID="217" duration="7">
      <Effects />
      <Transitions />
      <BoundProperties>
        <BoundPropertyInt Name="rotateStepNinety" Value="0" />
      </BoundProperties>
    </ImageClip>
    <ImageClip extentID="222" gapBefore="0" mediaItemID="218" duration="7">
      <Effects />
      <Transitions />
      <BoundProperties>
        <BoundPropertyInt Name="rotateStepNinety" Value="0" />
      </BoundProperties>
    </ImageClip>
    <ImageClip extentID="223" gapBefore="0" mediaItemID="219" duration="7">
      <Effects />
      <Transitions />
      <BoundProperties>
        <BoundPropertyInt Name="rotateStepNinety" Value="0" />
      </BoundProperties>
    </ImageClip>
    <ImageClip extentID="224" gapBefore="0" mediaItemID="220" duration="7">
      <Effects />
      <Transitions />
      <BoundProperties>
        <BoundPropertyInt Name="rotateStepNinety" Value="0" />
      </BoundProperties>
    </ImageClip>
    <ImageClip extentID="225" gapBefore="0" mediaItemID="221" duration="7">
      <Effects />
      <Transitions />
      <BoundProperties>
        <BoundPropertyInt Name="rotateStepNinety" Value="0" />
      </BoundProperties>
    </ImageClip>
    <ImageClip extentID="226" gapBefore="0" mediaItemID="222" duration="7">
      <Effects />
      <Transitions />
      <BoundProperties>
        <BoundPropertyInt Name="rotateStepNinety" Value="0" />
      </BoundProperties>
    </ImageClip>
    <ImageClip extentID="227" gapBefore="0" mediaItemID="223" duration="7">
      <Effects />
      <Transitions />
      <BoundProperties>
        <BoundPropertyInt Name="rotateStepNinety" Value="0" />
      </BoundProperties>
    </ImageClip>
    <ImageClip extentID="228" gapBefore="0" mediaItemID="224" duration="7">
      <Effects />
      <Transitions />
      <BoundProperties>
        <BoundPropertyInt Name="rotateStepNinety" Value="0" />
      </BoundProperties>
    </ImageClip>
    <ImageClip extentID="229" gapBefore="0" mediaItemID="225" duration="7">
      <Effects />
      <Transitions />
      <BoundProperties>
        <BoundPropertyInt Name="rotateStepNinety" Value="0" />
      </BoundProperties>
    </ImageClip>
    <ImageClip extentID="230" gapBefore="0" mediaItemID="226" duration="7">
      <Effects />
      <Transitions />
      <BoundProperties>
        <BoundPropertyInt Name="rotateStepNinety" Value="0" />
      </BoundProperties>
    </ImageClip>
    <ImageClip extentID="231" gapBefore="0" mediaItemID="227" duration="7">
      <Effects />
      <Transitions />
      <BoundProperties>
        <BoundPropertyInt Name="rotateStepNinety" Value="0" />
      </BoundProperties>
    </ImageClip>
    <ImageClip extentID="232" gapBefore="0" mediaItemID="228" duration="7">
      <Effects />
      <Transitions />
      <BoundProperties>
        <BoundPropertyInt Name="rotateStepNinety" Value="0" />
      </BoundProperties>
    </ImageClip>
    <ImageClip extentID="233" gapBefore="0" mediaItemID="229" duration="7">
      <Effects />
      <Transitions />
      <BoundProperties>
        <BoundPropertyInt Name="rotateStepNinety" Value="0" />
      </BoundProperties>
    </ImageClip>
    <ImageClip extentID="234" gapBefore="0" mediaItemID="230" duration="7">
      <Effects />
      <Transitions />
      <BoundProperties>
        <BoundPropertyInt Name="rotateStepNinety" Value="0" />
      </BoundProperties>
    </ImageClip>
    <ImageClip extentID="235" gapBefore="0" mediaItemID="231" duration="7">
      <Effects />
      <Transitions />
      <BoundProperties>
        <BoundPropertyInt Name="rotateStepNinety" Value="0" />
      </BoundProperties>
    </ImageClip>
    <ImageClip extentID="236" gapBefore="0" mediaItemID="232" duration="7">
      <Effects />
      <Transitions />
      <BoundProperties>
        <BoundPropertyInt Name="rotateStepNinety" Value="0" />
      </BoundProperties>
    </ImageClip>
    <ImageClip extentID="237" gapBefore="0" mediaItemID="233" duration="7">
      <Effects />
      <Transitions />
      <BoundProperties>
        <BoundPropertyInt Name="rotateStepNinety" Value="0" />
      </BoundProperties>
    </ImageClip>
    <ImageClip extentID="238" gapBefore="0" mediaItemID="234" duration="7">
      <Effects />
      <Transitions />
      <BoundProperties>
        <BoundPropertyInt Name="rotateStepNinety" Value="0" />
      </BoundProperties>
    </ImageClip>
    <ImageClip extentID="239" gapBefore="0" mediaItemID="235" duration="7">
      <Effects />
      <Transitions />
      <BoundProperties>
        <BoundPropertyInt Name="rotateStepNinety" Value="0" />
      </BoundProperties>
    </ImageClip>
    <ImageClip extentID="240" gapBefore="0" mediaItemID="236" duration="7">
      <Effects />
      <Transitions />
      <BoundProperties>
        <BoundPropertyInt Name="rotateStepNinety" Value="0" />
      </BoundProperties>
    </ImageClip>
    <ImageClip extentID="241" gapBefore="0" mediaItemID="237" duration="7">
      <Effects />
      <Transitions />
      <BoundProperties>
        <BoundPropertyInt Name="rotateStepNinety" Value="0" />
      </BoundProperties>
    </ImageClip>
    <ImageClip extentID="242" gapBefore="0" mediaItemID="238" duration="7">
      <Effects />
      <Transitions />
      <BoundProperties>
        <BoundPropertyInt Name="rotateStepNinety" Value="0" />
      </BoundProperties>
    </ImageClip>
    <ImageClip extentID="243" gapBefore="0" mediaItemID="239" duration="7">
      <Effects />
      <Transitions />
      <BoundProperties>
        <BoundPropertyInt Name="rotateStepNinety" Value="0" />
      </BoundProperties>
    </ImageClip>
    <ImageClip extentID="244" gapBefore="0" mediaItemID="240" duration="7">
      <Effects />
      <Transitions />
      <BoundProperties>
        <BoundPropertyInt Name="rotateStepNinety" Value="0" />
      </BoundProperties>
    </ImageClip>
    <ImageClip extentID="245" gapBefore="0" mediaItemID="241" duration="7">
      <Effects />
      <Transitions />
      <BoundProperties>
        <BoundPropertyInt Name="rotateStepNinety" Value="0" />
      </BoundProperties>
    </ImageClip>
    <ImageClip extentID="246" gapBefore="0" mediaItemID="242" duration="7">
      <Effects />
      <Transitions />
      <BoundProperties>
        <BoundPropertyInt Name="rotateStepNinety" Value="0" />
      </BoundProperties>
    </ImageClip>
    <ImageClip extentID="247" gapBefore="0" mediaItemID="243" duration="7">
      <Effects />
      <Transitions />
      <BoundProperties>
        <BoundPropertyInt Name="rotateStepNinety" Value="0" />
      </BoundProperties>
    </ImageClip>
    <ImageClip extentID="248" gapBefore="0" mediaItemID="244" duration="7">
      <Effects />
      <Transitions />
      <BoundProperties>
        <BoundPropertyInt Name="rotateStepNinety" Value="0" />
      </BoundProperties>
    </ImageClip>
    <ImageClip extentID="249" gapBefore="0" mediaItemID="245" duration="7">
      <Effects />
      <Transitions />
      <BoundProperties>
        <BoundPropertyInt Name="rotateStepNinety" Value="0" />
      </BoundProperties>
    </ImageClip>
    <ImageClip extentID="250" gapBefore="0" mediaItemID="246" duration="7">
      <Effects />
      <Transitions />
      <BoundProperties>
        <BoundPropertyInt Name="rotateStepNinety" Value="0" />
      </BoundProperties>
    </ImageClip>
    <ImageClip extentID="251" gapBefore="0" mediaItemID="247" duration="7">
      <Effects />
      <Transitions />
      <BoundProperties>
        <BoundPropertyInt Name="rotateStepNinety" Value="0" />
      </BoundProperties>
    </ImageClip>
    <ImageClip extentID="252" gapBefore="0" mediaItemID="248" duration="7">
      <Effects />
      <Transitions />
      <BoundProperties>
        <BoundPropertyInt Name="rotateStepNinety" Value="0" />
      </BoundProperties>
    </ImageClip>
    <ImageClip extentID="253" gapBefore="0" mediaItemID="249" duration="7">
      <Effects />
      <Transitions />
      <BoundProperties>
        <BoundPropertyInt Name="rotateStepNinety" Value="0" />
      </BoundProperties>
    </ImageClip>
    <ImageClip extentID="254" gapBefore="0" mediaItemID="250" duration="7">
      <Effects />
      <Transitions />
      <BoundProperties>
        <BoundPropertyInt Name="rotateStepNinety" Value="0" />
      </BoundProperties>
    </ImageClip>
    <ImageClip extentID="255" gapBefore="0" mediaItemID="251" duration="7">
      <Effects />
      <Transitions />
      <BoundProperties>
        <BoundPropertyInt Name="rotateStepNinety" Value="0" />
      </BoundProperties>
    </ImageClip>
    <ImageClip extentID="256" gapBefore="0" mediaItemID="252" duration="7">
      <Effects />
      <Transitions />
      <BoundProperties>
        <BoundPropertyInt Name="rotateStepNinety" Value="0" />
      </BoundProperties>
    </ImageClip>
    <ImageClip extentID="257" gapBefore="0" mediaItemID="253" duration="7">
      <Effects />
      <Transitions />
      <BoundProperties>
        <BoundPropertyInt Name="rotateStepNinety" Value="0" />
      </BoundProperties>
    </ImageClip>
    <ImageClip extentID="258" gapBefore="0" mediaItemID="254" duration="7">
      <Effects />
      <Transitions />
      <BoundProperties>
        <BoundPropertyInt Name="rotateStepNinety" Value="0" />
      </BoundProperties>
    </ImageClip>
    <ImageClip extentID="259" gapBefore="0" mediaItemID="255" duration="7">
      <Effects />
      <Transitions />
      <BoundProperties>
        <BoundPropertyInt Name="rotateStepNinety" Value="0" />
      </BoundProperties>
    </ImageClip>
    <ImageClip extentID="260" gapBefore="0" mediaItemID="256" duration="7">
      <Effects />
      <Transitions />
      <BoundProperties>
        <BoundPropertyInt Name="rotateStepNinety" Value="0" />
      </BoundProperties>
    </ImageClip>
    <ImageClip extentID="261" gapBefore="0" mediaItemID="257" duration="7">
      <Effects />
      <Transitions />
      <BoundProperties>
        <BoundPropertyInt Name="rotateStepNinety" Value="0" />
      </BoundProperties>
    </ImageClip>
    <ImageClip extentID="262" gapBefore="0" mediaItemID="258" duration="7">
      <Effects />
      <Transitions />
      <BoundProperties>
        <BoundPropertyInt Name="rotateStepNinety" Value="0" />
      </BoundProperties>
    </ImageClip>
    <ImageClip extentID="263" gapBefore="0" mediaItemID="259" duration="7">
      <Effects />
      <Transitions />
      <BoundProperties>
        <BoundPropertyInt Name="rotateStepNinety" Value="0" />
      </BoundProperties>
    </ImageClip>
    <ImageClip extentID="264" gapBefore="0" mediaItemID="260" duration="7">
      <Effects />
      <Transitions />
      <BoundProperties>
        <BoundPropertyInt Name="rotateStepNinety" Value="0" />
      </BoundProperties>
    </ImageClip>
    <ImageClip extentID="265" gapBefore="0" mediaItemID="261" duration="7">
      <Effects />
      <Transitions />
      <BoundProperties>
        <BoundPropertyInt Name="rotateStepNinety" Value="0" />
      </BoundProperties>
    </ImageClip>
    <ImageClip extentID="266" gapBefore="0" mediaItemID="262" duration="7">
      <Effects />
      <Transitions />
      <BoundProperties>
        <BoundPropertyInt Name="rotateStepNinety" Value="0" />
      </BoundProperties>
    </ImageClip>
    <ImageClip extentID="267" gapBefore="0" mediaItemID="263" duration="7">
      <Effects />
      <Transitions />
      <BoundProperties>
        <BoundPropertyInt Name="rotateStepNinety" Value="0" />
      </BoundProperties>
    </ImageClip>
    <ImageClip extentID="268" gapBefore="0" mediaItemID="264" duration="7">
      <Effects />
      <Transitions />
      <BoundProperties>
        <BoundPropertyInt Name="rotateStepNinety" Value="0" />
      </BoundProperties>
    </ImageClip>
    <ImageClip extentID="269" gapBefore="0" mediaItemID="265" duration="7">
      <Effects />
      <Transitions />
      <BoundProperties>
        <BoundPropertyInt Name="rotateStepNinety" Value="0" />
      </BoundProperties>
    </ImageClip>
    <ImageClip extentID="270" gapBefore="0" mediaItemID="266" duration="7">
      <Effects />
      <Transitions />
      <BoundProperties>
        <BoundPropertyInt Name="rotateStepNinety" Value="0" />
      </BoundProperties>
    </ImageClip>
    <ImageClip extentID="271" gapBefore="0" mediaItemID="267" duration="7">
      <Effects />
      <Transitions />
      <BoundProperties>
        <BoundPropertyInt Name="rotateStepNinety" Value="0" />
      </BoundProperties>
    </ImageClip>
    <ImageClip extentID="272" gapBefore="0" mediaItemID="268" duration="7">
      <Effects />
      <Transitions />
      <BoundProperties>
        <BoundPropertyInt Name="rotateStepNinety" Value="0" />
      </BoundProperties>
    </ImageClip>
    <ImageClip extentID="273" gapBefore="0" mediaItemID="269" duration="7">
      <Effects />
      <Transitions />
      <BoundProperties>
        <BoundPropertyInt Name="rotateStepNinety" Value="0" />
      </BoundProperties>
    </ImageClip>
    <ImageClip extentID="274" gapBefore="0" mediaItemID="270" duration="7">
      <Effects />
      <Transitions />
      <BoundProperties>
        <BoundPropertyInt Name="rotateStepNinety" Value="0" />
      </BoundProperties>
    </ImageClip>
    <ImageClip extentID="275" gapBefore="0" mediaItemID="271" duration="7">
      <Effects />
      <Transitions />
      <BoundProperties>
        <BoundPropertyInt Name="rotateStepNinety" Value="0" />
      </BoundProperties>
    </ImageClip>
    <ImageClip extentID="276" gapBefore="0" mediaItemID="272" duration="7">
      <Effects />
      <Transitions />
      <BoundProperties>
        <BoundPropertyInt Name="rotateStepNinety" Value="0" />
      </BoundProperties>
    </ImageClip>
    <ImageClip extentID="277" gapBefore="0" mediaItemID="273" duration="7">
      <Effects />
      <Transitions />
      <BoundProperties>
        <BoundPropertyInt Name="rotateStepNinety" Value="0" />
      </BoundProperties>
    </ImageClip>
    <ImageClip extentID="278" gapBefore="0" mediaItemID="274" duration="7">
      <Effects />
      <Transitions />
      <BoundProperties>
        <BoundPropertyInt Name="rotateStepNinety" Value="0" />
      </BoundProperties>
    </ImageClip>
    <ImageClip extentID="279" gapBefore="0" mediaItemID="275" duration="7">
      <Effects />
      <Transitions />
      <BoundProperties>
        <BoundPropertyInt Name="rotateStepNinety" Value="0" />
      </BoundProperties>
    </ImageClip>
    <ImageClip extentID="280" gapBefore="0" mediaItemID="276" duration="7">
      <Effects />
      <Transitions />
      <BoundProperties>
        <BoundPropertyInt Name="rotateStepNinety" Value="0" />
      </BoundProperties>
    </ImageClip>
    <ImageClip extentID="281" gapBefore="0" mediaItemID="277" duration="7">
      <Effects />
      <Transitions />
      <BoundProperties>
        <BoundPropertyInt Name="rotateStepNinety" Value="0" />
      </BoundProperties>
    </ImageClip>
    <ImageClip extentID="282" gapBefore="0" mediaItemID="278" duration="7">
      <Effects />
      <Transitions />
      <BoundProperties>
        <BoundPropertyInt Name="rotateStepNinety" Value="0" />
      </BoundProperties>
    </ImageClip>
    <ImageClip extentID="283" gapBefore="0" mediaItemID="279" duration="7">
      <Effects />
      <Transitions />
      <BoundProperties>
        <BoundPropertyInt Name="rotateStepNinety" Value="0" />
      </BoundProperties>
    </ImageClip>
    <ImageClip extentID="284" gapBefore="0" mediaItemID="280" duration="7">
      <Effects />
      <Transitions />
      <BoundProperties>
        <BoundPropertyInt Name="rotateStepNinety" Value="0" />
      </BoundProperties>
    </ImageClip>
    <ImageClip extentID="285" gapBefore="0" mediaItemID="281" duration="7">
      <Effects />
      <Transitions />
      <BoundProperties>
        <BoundPropertyInt Name="rotateStepNinety" Value="0" />
      </BoundProperties>
    </ImageClip>
    <ImageClip extentID="286" gapBefore="0" mediaItemID="282" duration="7">
      <Effects />
      <Transitions />
      <BoundProperties>
        <BoundPropertyInt Name="rotateStepNinety" Value="0" />
      </BoundProperties>
    </ImageClip>
    <ImageClip extentID="287" gapBefore="0" mediaItemID="283" duration="7">
      <Effects />
      <Transitions />
      <BoundProperties>
        <BoundPropertyInt Name="rotateStepNinety" Value="0" />
      </BoundProperties>
    </ImageClip>
    <ImageClip extentID="288" gapBefore="0" mediaItemID="284" duration="7">
      <Effects />
      <Transitions />
      <BoundProperties>
        <BoundPropertyInt Name="rotateStepNinety" Value="0" />
      </BoundProperties>
    </ImageClip>
    <ImageClip extentID="289" gapBefore="0" mediaItemID="285" duration="7">
      <Effects />
      <Transitions />
      <BoundProperties>
        <BoundPropertyInt Name="rotateStepNinety" Value="0" />
      </BoundProperties>
    </ImageClip>
    <ImageClip extentID="290" gapBefore="0" mediaItemID="286" duration="7">
      <Effects />
      <Transitions />
      <BoundProperties>
        <BoundPropertyInt Name="rotateStepNinety" Value="0" />
      </BoundProperties>
    </ImageClip>
    <ImageClip extentID="291" gapBefore="0" mediaItemID="287" duration="7">
      <Effects />
      <Transitions />
      <BoundProperties>
        <BoundPropertyInt Name="rotateStepNinety" Value="0" />
      </BoundProperties>
    </ImageClip>
    <ImageClip extentID="292" gapBefore="0" mediaItemID="288" duration="7">
      <Effects />
      <Transitions />
      <BoundProperties>
        <BoundPropertyInt Name="rotateStepNinety" Value="0" />
      </BoundProperties>
    </ImageClip>
    <ImageClip extentID="293" gapBefore="0" mediaItemID="289" duration="7">
      <Effects />
      <Transitions />
      <BoundProperties>
        <BoundPropertyInt Name="rotateStepNinety" Value="0" />
      </BoundProperties>
    </ImageClip>
    <ImageClip extentID="294" gapBefore="0" mediaItemID="290" duration="7">
      <Effects />
      <Transitions />
      <BoundProperties>
        <BoundPropertyInt Name="rotateStepNinety" Value="0" />
      </BoundProperties>
    </ImageClip>
    <ImageClip extentID="295" gapBefore="0" mediaItemID="291" duration="7">
      <Effects />
      <Transitions />
      <BoundProperties>
        <BoundPropertyInt Name="rotateStepNinety" Value="0" />
      </BoundProperties>
    </ImageClip>
    <ImageClip extentID="296" gapBefore="0" mediaItemID="292" duration="7">
      <Effects />
      <Transitions />
      <BoundProperties>
        <BoundPropertyInt Name="rotateStepNinety" Value="0" />
      </BoundProperties>
    </ImageClip>
    <ImageClip extentID="297" gapBefore="0" mediaItemID="293" duration="7">
      <Effects />
      <Transitions />
      <BoundProperties>
        <BoundPropertyInt Name="rotateStepNinety" Value="0" />
      </BoundProperties>
    </ImageClip>
    <ImageClip extentID="298" gapBefore="0" mediaItemID="294" duration="7">
      <Effects />
      <Transitions />
      <BoundProperties>
        <BoundPropertyInt Name="rotateStepNinety" Value="0" />
      </BoundProperties>
    </ImageClip>
    <ImageClip extentID="299" gapBefore="0" mediaItemID="295" duration="7">
      <Effects />
      <Transitions />
      <BoundProperties>
        <BoundPropertyInt Name="rotateStepNinety" Value="0" />
      </BoundProperties>
    </ImageClip>
    <ImageClip extentID="300" gapBefore="0" mediaItemID="296" duration="7">
      <Effects />
      <Transitions />
      <BoundProperties>
        <BoundPropertyInt Name="rotateStepNinety" Value="0" />
      </BoundProperties>
    </ImageClip>
    <ImageClip extentID="301" gapBefore="0" mediaItemID="297" duration="7">
      <Effects />
      <Transitions />
      <BoundProperties>
        <BoundPropertyInt Name="rotateStepNinety" Value="0" />
      </BoundProperties>
    </ImageClip>
    <ImageClip extentID="302" gapBefore="0" mediaItemID="298" duration="7">
      <Effects />
      <Transitions />
      <BoundProperties>
        <BoundPropertyInt Name="rotateStepNinety" Value="0" />
      </BoundProperties>
    </ImageClip>
    <ImageClip extentID="303" gapBefore="0" mediaItemID="299" duration="7">
      <Effects />
      <Transitions />
      <BoundProperties>
        <BoundPropertyInt Name="rotateStepNinety" Value="0" />
      </BoundProperties>
    </ImageClip>
    <ImageClip extentID="304" gapBefore="0" mediaItemID="300" duration="7">
      <Effects />
      <Transitions />
      <BoundProperties>
        <BoundPropertyInt Name="rotateStepNinety" Value="0" />
      </BoundProperties>
    </ImageClip>
    <ImageClip extentID="305" gapBefore="0" mediaItemID="301" duration="7">
      <Effects />
      <Transitions />
      <BoundProperties>
        <BoundPropertyInt Name="rotateStepNinety" Value="0" />
      </BoundProperties>
    </ImageClip>
    <ImageClip extentID="306" gapBefore="0" mediaItemID="302" duration="7">
      <Effects />
      <Transitions />
      <BoundProperties>
        <BoundPropertyInt Name="rotateStepNinety" Value="0" />
      </BoundProperties>
    </ImageClip>
    <ImageClip extentID="307" gapBefore="0" mediaItemID="303" duration="7">
      <Effects />
      <Transitions />
      <BoundProperties>
        <BoundPropertyInt Name="rotateStepNinety" Value="0" />
      </BoundProperties>
    </ImageClip>
    <ImageClip extentID="308" gapBefore="0" mediaItemID="304" duration="7">
      <Effects />
      <Transitions />
      <BoundProperties>
        <BoundPropertyInt Name="rotateStepNinety" Value="0" />
      </BoundProperties>
    </ImageClip>
    <ImageClip extentID="309" gapBefore="0" mediaItemID="305" duration="7">
      <Effects />
      <Transitions />
      <BoundProperties>
        <BoundPropertyInt Name="rotateStepNinety" Value="0" />
      </BoundProperties>
    </ImageClip>
    <ImageClip extentID="310" gapBefore="0" mediaItemID="306" duration="7">
      <Effects />
      <Transitions />
      <BoundProperties>
        <BoundPropertyInt Name="rotateStepNinety" Value="0" />
      </BoundProperties>
    </ImageClip>
    <ImageClip extentID="311" gapBefore="0" mediaItemID="307" duration="7">
      <Effects />
      <Transitions />
      <BoundProperties>
        <BoundPropertyInt Name="rotateStepNinety" Value="0" />
      </BoundProperties>
    </ImageClip>
    <ImageClip extentID="312" gapBefore="0" mediaItemID="308" duration="7">
      <Effects />
      <Transitions />
      <BoundProperties>
        <BoundPropertyInt Name="rotateStepNinety" Value="0" />
      </BoundProperties>
    </ImageClip>
    <ImageClip extentID="313" gapBefore="0" mediaItemID="309" duration="7">
      <Effects />
      <Transitions />
      <BoundProperties>
        <BoundPropertyInt Name="rotateStepNinety" Value="0" />
      </BoundProperties>
    </ImageClip>
    <ImageClip extentID="314" gapBefore="0" mediaItemID="310" duration="7">
      <Effects />
      <Transitions />
      <BoundProperties>
        <BoundPropertyInt Name="rotateStepNinety" Value="0" />
      </BoundProperties>
    </ImageClip>
    <ImageClip extentID="315" gapBefore="0" mediaItemID="311" duration="7">
      <Effects />
      <Transitions />
      <BoundProperties>
        <BoundPropertyInt Name="rotateStepNinety" Value="0" />
      </BoundProperties>
    </ImageClip>
    <ImageClip extentID="316" gapBefore="0" mediaItemID="312" duration="7">
      <Effects />
      <Transitions />
      <BoundProperties>
        <BoundPropertyInt Name="rotateStepNinety" Value="0" />
      </BoundProperties>
    </ImageClip>
    <ImageClip extentID="317" gapBefore="0" mediaItemID="313" duration="7">
      <Effects />
      <Transitions />
      <BoundProperties>
        <BoundPropertyInt Name="rotateStepNinety" Value="0" />
      </BoundProperties>
    </ImageClip>
    <ImageClip extentID="318" gapBefore="0" mediaItemID="314" duration="7">
      <Effects />
      <Transitions />
      <BoundProperties>
        <BoundPropertyInt Name="rotateStepNinety" Value="0" />
      </BoundProperties>
    </ImageClip>
    <ImageClip extentID="319" gapBefore="0" mediaItemID="315" duration="7">
      <Effects />
      <Transitions />
      <BoundProperties>
        <BoundPropertyInt Name="rotateStepNinety" Value="0" />
      </BoundProperties>
    </ImageClip>
    <ImageClip extentID="320" gapBefore="0" mediaItemID="316" duration="7">
      <Effects />
      <Transitions />
      <BoundProperties>
        <BoundPropertyInt Name="rotateStepNinety" Value="0" />
      </BoundProperties>
    </ImageClip>
    <ImageClip extentID="321" gapBefore="0" mediaItemID="317" duration="7">
      <Effects />
      <Transitions />
      <BoundProperties>
        <BoundPropertyInt Name="rotateStepNinety" Value="0" />
      </BoundProperties>
    </ImageClip>
    <ImageClip extentID="322" gapBefore="0" mediaItemID="318" duration="7">
      <Effects />
      <Transitions />
      <BoundProperties>
        <BoundPropertyInt Name="rotateStepNinety" Value="0" />
      </BoundProperties>
    </ImageClip>
    <ImageClip extentID="323" gapBefore="0" mediaItemID="319" duration="7">
      <Effects />
      <Transitions />
      <BoundProperties>
        <BoundPropertyInt Name="rotateStepNinety" Value="0" />
      </BoundProperties>
    </ImageClip>
    <ImageClip extentID="324" gapBefore="0" mediaItemID="320" duration="7">
      <Effects />
      <Transitions />
      <BoundProperties>
        <BoundPropertyInt Name="rotateStepNinety" Value="0" />
      </BoundProperties>
    </ImageClip>
    <ImageClip extentID="325" gapBefore="0" mediaItemID="321" duration="7">
      <Effects />
      <Transitions />
      <BoundProperties>
        <BoundPropertyInt Name="rotateStepNinety" Value="0" />
      </BoundProperties>
    </ImageClip>
    <ImageClip extentID="326" gapBefore="0" mediaItemID="322" duration="7">
      <Effects />
      <Transitions />
      <BoundProperties>
        <BoundPropertyInt Name="rotateStepNinety" Value="0" />
      </BoundProperties>
    </ImageClip>
    <ImageClip extentID="327" gapBefore="0" mediaItemID="323" duration="7">
      <Effects />
      <Transitions />
      <BoundProperties>
        <BoundPropertyInt Name="rotateStepNinety" Value="0" />
      </BoundProperties>
    </ImageClip>
    <ImageClip extentID="328" gapBefore="0" mediaItemID="324" duration="7">
      <Effects />
      <Transitions />
      <BoundProperties>
        <BoundPropertyInt Name="rotateStepNinety" Value="0" />
      </BoundProperties>
    </ImageClip>
    <ImageClip extentID="329" gapBefore="0" mediaItemID="325" duration="7">
      <Effects />
      <Transitions />
      <BoundProperties>
        <BoundPropertyInt Name="rotateStepNinety" Value="0" />
      </BoundProperties>
    </ImageClip>
    <ImageClip extentID="330" gapBefore="0" mediaItemID="326" duration="7">
      <Effects />
      <Transitions />
      <BoundProperties>
        <BoundPropertyInt Name="rotateStepNinety" Value="0" />
      </BoundProperties>
    </ImageClip>
    <ImageClip extentID="331" gapBefore="0" mediaItemID="327" duration="7">
      <Effects />
      <Transitions />
      <BoundProperties>
        <BoundPropertyInt Name="rotateStepNinety" Value="0" />
      </BoundProperties>
    </ImageClip>
    <ImageClip extentID="332" gapBefore="0" mediaItemID="328" duration="7">
      <Effects />
      <Transitions />
      <BoundProperties>
        <BoundPropertyInt Name="rotateStepNinety" Value="0" />
      </BoundProperties>
    </ImageClip>
    <ImageClip extentID="333" gapBefore="0" mediaItemID="329" duration="7">
      <Effects />
      <Transitions />
      <BoundProperties>
        <BoundPropertyInt Name="rotateStepNinety" Value="0" />
      </BoundProperties>
    </ImageClip>
    <ImageClip extentID="334" gapBefore="0" mediaItemID="330" duration="7">
      <Effects />
      <Transitions />
      <BoundProperties>
        <BoundPropertyInt Name="rotateStepNinety" Value="0" />
      </BoundProperties>
    </ImageClip>
    <ImageClip extentID="335" gapBefore="0" mediaItemID="331" duration="7">
      <Effects />
      <Transitions />
      <BoundProperties>
        <BoundPropertyInt Name="rotateStepNinety" Value="0" />
      </BoundProperties>
    </ImageClip>
    <ImageClip extentID="336" gapBefore="0" mediaItemID="332" duration="7">
      <Effects />
      <Transitions />
      <BoundProperties>
        <BoundPropertyInt Name="rotateStepNinety" Value="0" />
      </BoundProperties>
    </ImageClip>
    <ImageClip extentID="337" gapBefore="0" mediaItemID="333" duration="7">
      <Effects />
      <Transitions />
      <BoundProperties>
        <BoundPropertyInt Name="rotateStepNinety" Value="0" />
      </BoundProperties>
    </ImageClip>
    <ImageClip extentID="338" gapBefore="0" mediaItemID="334" duration="7">
      <Effects />
      <Transitions />
      <BoundProperties>
        <BoundPropertyInt Name="rotateStepNinety" Value="0" />
      </BoundProperties>
    </ImageClip>
    <ImageClip extentID="339" gapBefore="0" mediaItemID="335" duration="7">
      <Effects />
      <Transitions />
      <BoundProperties>
        <BoundPropertyInt Name="rotateStepNinety" Value="0" />
      </BoundProperties>
    </ImageClip>
    <ImageClip extentID="340" gapBefore="0" mediaItemID="336" duration="7">
      <Effects />
      <Transitions />
      <BoundProperties>
        <BoundPropertyInt Name="rotateStepNinety" Value="0" />
      </BoundProperties>
    </ImageClip>
    <ImageClip extentID="341" gapBefore="0" mediaItemID="337" duration="7">
      <Effects />
      <Transitions />
      <BoundProperties>
        <BoundPropertyInt Name="rotateStepNinety" Value="0" />
      </BoundProperties>
    </ImageClip>
    <ImageClip extentID="342" gapBefore="0" mediaItemID="338" duration="7">
      <Effects />
      <Transitions />
      <BoundProperties>
        <BoundPropertyInt Name="rotateStepNinety" Value="0" />
      </BoundProperties>
    </ImageClip>
    <ImageClip extentID="343" gapBefore="0" mediaItemID="339" duration="7">
      <Effects />
      <Transitions />
      <BoundProperties>
        <BoundPropertyInt Name="rotateStepNinety" Value="0" />
      </BoundProperties>
    </ImageClip>
    <ImageClip extentID="344" gapBefore="0" mediaItemID="340" duration="7">
      <Effects />
      <Transitions />
      <BoundProperties>
        <BoundPropertyInt Name="rotateStepNinety" Value="0" />
      </BoundProperties>
    </ImageClip>
    <ImageClip extentID="345" gapBefore="0" mediaItemID="341" duration="7">
      <Effects />
      <Transitions />
      <BoundProperties>
        <BoundPropertyInt Name="rotateStepNinety" Value="0" />
      </BoundProperties>
    </ImageClip>
    <ImageClip extentID="346" gapBefore="0" mediaItemID="342" duration="7">
      <Effects />
      <Transitions />
      <BoundProperties>
        <BoundPropertyInt Name="rotateStepNinety" Value="0" />
      </BoundProperties>
    </ImageClip>
    <ImageClip extentID="347" gapBefore="0" mediaItemID="343" duration="7">
      <Effects />
      <Transitions />
      <BoundProperties>
        <BoundPropertyInt Name="rotateStepNinety" Value="0" />
      </BoundProperties>
    </ImageClip>
    <ImageClip extentID="348" gapBefore="0" mediaItemID="344" duration="7">
      <Effects />
      <Transitions />
      <BoundProperties>
        <BoundPropertyInt Name="rotateStepNinety" Value="0" />
      </BoundProperties>
    </ImageClip>
    <ImageClip extentID="349" gapBefore="0" mediaItemID="345" duration="7">
      <Effects />
      <Transitions />
      <BoundProperties>
        <BoundPropertyInt Name="rotateStepNinety" Value="0" />
      </BoundProperties>
    </ImageClip>
    <ImageClip extentID="350" gapBefore="0" mediaItemID="346" duration="7">
      <Effects />
      <Transitions />
      <BoundProperties>
        <BoundPropertyInt Name="rotateStepNinety" Value="0" />
      </BoundProperties>
    </ImageClip>
    <ImageClip extentID="351" gapBefore="0" mediaItemID="347" duration="7">
      <Effects />
      <Transitions />
      <BoundProperties>
        <BoundPropertyInt Name="rotateStepNinety" Value="0" />
      </BoundProperties>
    </ImageClip>
    <ImageClip extentID="352" gapBefore="0" mediaItemID="348" duration="7">
      <Effects />
      <Transitions />
      <BoundProperties>
        <BoundPropertyInt Name="rotateStepNinety" Value="0" />
      </BoundProperties>
    </ImageClip>
    <ImageClip extentID="353" gapBefore="0" mediaItemID="349" duration="7">
      <Effects />
      <Transitions />
      <BoundProperties>
        <BoundPropertyInt Name="rotateStepNinety" Value="0" />
      </BoundProperties>
    </ImageClip>
    <ImageClip extentID="354" gapBefore="0" mediaItemID="350" duration="7">
      <Effects />
      <Transitions />
      <BoundProperties>
        <BoundPropertyInt Name="rotateStepNinety" Value="0" />
      </BoundProperties>
    </ImageClip>
    <ImageClip extentID="355" gapBefore="0" mediaItemID="351" duration="7">
      <Effects />
      <Transitions />
      <BoundProperties>
        <BoundPropertyInt Name="rotateStepNinety" Value="0" />
      </BoundProperties>
    </ImageClip>
    <ImageClip extentID="356" gapBefore="0" mediaItemID="352" duration="7">
      <Effects />
      <Transitions />
      <BoundProperties>
        <BoundPropertyInt Name="rotateStepNinety" Value="0" />
      </BoundProperties>
    </ImageClip>
    <ImageClip extentID="357" gapBefore="0" mediaItemID="353" duration="7">
      <Effects />
      <Transitions />
      <BoundProperties>
        <BoundPropertyInt Name="rotateStepNinety" Value="0" />
      </BoundProperties>
    </ImageClip>
    <ImageClip extentID="358" gapBefore="0" mediaItemID="354" duration="7">
      <Effects />
      <Transitions />
      <BoundProperties>
        <BoundPropertyInt Name="rotateStepNinety" Value="0" />
      </BoundProperties>
    </ImageClip>
    <ImageClip extentID="359" gapBefore="0" mediaItemID="355" duration="7">
      <Effects />
      <Transitions />
      <BoundProperties>
        <BoundPropertyInt Name="rotateStepNinety" Value="0" />
      </BoundProperties>
    </ImageClip>
    <ImageClip extentID="360" gapBefore="0" mediaItemID="356" duration="7">
      <Effects />
      <Transitions />
      <BoundProperties>
        <BoundPropertyInt Name="rotateStepNinety" Value="0" />
      </BoundProperties>
    </ImageClip>
    <ImageClip extentID="361" gapBefore="0" mediaItemID="357" duration="7">
      <Effects />
      <Transitions />
      <BoundProperties>
        <BoundPropertyInt Name="rotateStepNinety" Value="0" />
      </BoundProperties>
    </ImageClip>
    <ImageClip extentID="362" gapBefore="0" mediaItemID="358" duration="7">
      <Effects />
      <Transitions />
      <BoundProperties>
        <BoundPropertyInt Name="rotateStepNinety" Value="0" />
      </BoundProperties>
    </ImageClip>
    <ImageClip extentID="363" gapBefore="0" mediaItemID="359" duration="7">
      <Effects />
      <Transitions />
      <BoundProperties>
        <BoundPropertyInt Name="rotateStepNinety" Value="0" />
      </BoundProperties>
    </ImageClip>
    <ImageClip extentID="364" gapBefore="0" mediaItemID="360" duration="7">
      <Effects />
      <Transitions />
      <BoundProperties>
        <BoundPropertyInt Name="rotateStepNinety" Value="0" />
      </BoundProperties>
    </ImageClip>
    <ImageClip extentID="365" gapBefore="0" mediaItemID="361" duration="7">
      <Effects />
      <Transitions />
      <BoundProperties>
        <BoundPropertyInt Name="rotateStepNinety" Value="0" />
      </BoundProperties>
    </ImageClip>
    <ImageClip extentID="366" gapBefore="0" mediaItemID="362" duration="7">
      <Effects />
      <Transitions />
      <BoundProperties>
        <BoundPropertyInt Name="rotateStepNinety" Value="0" />
      </BoundProperties>
    </ImageClip>
    <ImageClip extentID="367" gapBefore="0" mediaItemID="363" duration="7">
      <Effects />
      <Transitions />
      <BoundProperties>
        <BoundPropertyInt Name="rotateStepNinety" Value="0" />
      </BoundProperties>
    </ImageClip>
    <ImageClip extentID="368" gapBefore="0" mediaItemID="364" duration="7">
      <Effects />
      <Transitions />
      <BoundProperties>
        <BoundPropertyInt Name="rotateStepNinety" Value="0" />
      </BoundProperties>
    </ImageClip>
    <ImageClip extentID="369" gapBefore="0" mediaItemID="365" duration="7">
      <Effects />
      <Transitions />
      <BoundProperties>
        <BoundPropertyInt Name="rotateStepNinety" Value="0" />
      </BoundProperties>
    </ImageClip>
    <ImageClip extentID="370" gapBefore="0" mediaItemID="366" duration="7">
      <Effects />
      <Transitions />
      <BoundProperties>
        <BoundPropertyInt Name="rotateStepNinety" Value="0" />
      </BoundProperties>
    </ImageClip>
    <ImageClip extentID="371" gapBefore="0" mediaItemID="367" duration="7">
      <Effects />
      <Transitions />
      <BoundProperties>
        <BoundPropertyInt Name="rotateStepNinety" Value="0" />
      </BoundProperties>
    </ImageClip>
    <ImageClip extentID="372" gapBefore="0" mediaItemID="368" duration="7">
      <Effects />
      <Transitions />
      <BoundProperties>
        <BoundPropertyInt Name="rotateStepNinety" Value="0" />
      </BoundProperties>
    </ImageClip>
    <ImageClip extentID="373" gapBefore="0" mediaItemID="369" duration="7">
      <Effects />
      <Transitions />
      <BoundProperties>
        <BoundPropertyInt Name="rotateStepNinety" Value="0" />
      </BoundProperties>
    </ImageClip>
    <ImageClip extentID="374" gapBefore="0" mediaItemID="370" duration="7">
      <Effects />
      <Transitions />
      <BoundProperties>
        <BoundPropertyInt Name="rotateStepNinety" Value="0" />
      </BoundProperties>
    </ImageClip>
    <ImageClip extentID="375" gapBefore="0" mediaItemID="371" duration="7">
      <Effects />
      <Transitions />
      <BoundProperties>
        <BoundPropertyInt Name="rotateStepNinety" Value="0" />
      </BoundProperties>
    </ImageClip>
    <ImageClip extentID="376" gapBefore="0" mediaItemID="372" duration="7">
      <Effects />
      <Transitions />
      <BoundProperties>
        <BoundPropertyInt Name="rotateStepNinety" Value="0" />
      </BoundProperties>
    </ImageClip>
    <ImageClip extentID="377" gapBefore="0" mediaItemID="373" duration="7">
      <Effects />
      <Transitions />
      <BoundProperties>
        <BoundPropertyInt Name="rotateStepNinety" Value="0" />
      </BoundProperties>
    </ImageClip>
    <ImageClip extentID="378" gapBefore="0" mediaItemID="374" duration="7">
      <Effects />
      <Transitions />
      <BoundProperties>
        <BoundPropertyInt Name="rotateStepNinety" Value="0" />
      </BoundProperties>
    </ImageClip>
    <ImageClip extentID="379" gapBefore="0" mediaItemID="375" duration="7">
      <Effects />
      <Transitions />
      <BoundProperties>
        <BoundPropertyInt Name="rotateStepNinety" Value="0" />
      </BoundProperties>
    </ImageClip>
    <ImageClip extentID="380" gapBefore="0" mediaItemID="376" duration="7">
      <Effects />
      <Transitions />
      <BoundProperties>
        <BoundPropertyInt Name="rotateStepNinety" Value="0" />
      </BoundProperties>
    </ImageClip>
    <ImageClip extentID="381" gapBefore="0" mediaItemID="377" duration="7">
      <Effects />
      <Transitions />
      <BoundProperties>
        <BoundPropertyInt Name="rotateStepNinety" Value="0" />
      </BoundProperties>
    </ImageClip>
    <ImageClip extentID="382" gapBefore="0" mediaItemID="378" duration="7">
      <Effects />
      <Transitions />
      <BoundProperties>
        <BoundPropertyInt Name="rotateStepNinety" Value="0" />
      </BoundProperties>
    </ImageClip>
    <ImageClip extentID="383" gapBefore="0" mediaItemID="379" duration="7">
      <Effects />
      <Transitions />
      <BoundProperties>
        <BoundPropertyInt Name="rotateStepNinety" Value="0" />
      </BoundProperties>
    </ImageClip>
    <ImageClip extentID="384" gapBefore="0" mediaItemID="380" duration="7">
      <Effects />
      <Transitions />
      <BoundProperties>
        <BoundPropertyInt Name="rotateStepNinety" Value="0" />
      </BoundProperties>
    </ImageClip>
    <ImageClip extentID="385" gapBefore="0" mediaItemID="381" duration="7">
      <Effects />
      <Transitions />
      <BoundProperties>
        <BoundPropertyInt Name="rotateStepNinety" Value="0" />
      </BoundProperties>
    </ImageClip>
    <ImageClip extentID="386" gapBefore="0" mediaItemID="382" duration="7">
      <Effects />
      <Transitions />
      <BoundProperties>
        <BoundPropertyInt Name="rotateStepNinety" Value="0" />
      </BoundProperties>
    </ImageClip>
    <ImageClip extentID="387" gapBefore="0" mediaItemID="383" duration="7">
      <Effects />
      <Transitions />
      <BoundProperties>
        <BoundPropertyInt Name="rotateStepNinety" Value="0" />
      </BoundProperties>
    </ImageClip>
    <ImageClip extentID="388" gapBefore="0" mediaItemID="384" duration="7">
      <Effects />
      <Transitions />
      <BoundProperties>
        <BoundPropertyInt Name="rotateStepNinety" Value="0" />
      </BoundProperties>
    </ImageClip>
    <ImageClip extentID="389" gapBefore="0" mediaItemID="385" duration="7">
      <Effects />
      <Transitions />
      <BoundProperties>
        <BoundPropertyInt Name="rotateStepNinety" Value="0" />
      </BoundProperties>
    </ImageClip>
    <ImageClip extentID="390" gapBefore="0" mediaItemID="386" duration="7">
      <Effects />
      <Transitions />
      <BoundProperties>
        <BoundPropertyInt Name="rotateStepNinety" Value="0" />
      </BoundProperties>
    </ImageClip>
    <ImageClip extentID="391" gapBefore="0" mediaItemID="387" duration="7">
      <Effects />
      <Transitions />
      <BoundProperties>
        <BoundPropertyInt Name="rotateStepNinety" Value="0" />
      </BoundProperties>
    </ImageClip>
    <ImageClip extentID="392" gapBefore="0" mediaItemID="388" duration="7">
      <Effects />
      <Transitions />
      <BoundProperties>
        <BoundPropertyInt Name="rotateStepNinety" Value="0" />
      </BoundProperties>
    </ImageClip>
    <ImageClip extentID="393" gapBefore="0" mediaItemID="389" duration="7">
      <Effects />
      <Transitions />
      <BoundProperties>
        <BoundPropertyInt Name="rotateStepNinety" Value="0" />
      </BoundProperties>
    </ImageClip>
    <ImageClip extentID="394" gapBefore="0" mediaItemID="390" duration="7">
      <Effects />
      <Transitions />
      <BoundProperties>
        <BoundPropertyInt Name="rotateStepNinety" Value="0" />
      </BoundProperties>
    </ImageClip>
    <ImageClip extentID="395" gapBefore="0" mediaItemID="391" duration="7">
      <Effects />
      <Transitions />
      <BoundProperties>
        <BoundPropertyInt Name="rotateStepNinety" Value="0" />
      </BoundProperties>
    </ImageClip>
    <ImageClip extentID="396" gapBefore="0" mediaItemID="392" duration="7">
      <Effects />
      <Transitions />
      <BoundProperties>
        <BoundPropertyInt Name="rotateStepNinety" Value="0" />
      </BoundProperties>
    </ImageClip>
    <ImageClip extentID="397" gapBefore="0" mediaItemID="393" duration="7">
      <Effects />
      <Transitions />
      <BoundProperties>
        <BoundPropertyInt Name="rotateStepNinety" Value="0" />
      </BoundProperties>
    </ImageClip>
    <ImageClip extentID="398" gapBefore="0" mediaItemID="394" duration="7">
      <Effects />
      <Transitions />
      <BoundProperties>
        <BoundPropertyInt Name="rotateStepNinety" Value="0" />
      </BoundProperties>
    </ImageClip>
    <ImageClip extentID="399" gapBefore="0" mediaItemID="395" duration="7">
      <Effects />
      <Transitions />
      <BoundProperties>
        <BoundPropertyInt Name="rotateStepNinety" Value="0" />
      </BoundProperties>
    </ImageClip>
    <ImageClip extentID="400" gapBefore="0" mediaItemID="396" duration="7">
      <Effects />
      <Transitions />
      <BoundProperties>
        <BoundPropertyInt Name="rotateStepNinety" Value="0" />
      </BoundProperties>
    </ImageClip>
    <ImageClip extentID="401" gapBefore="0" mediaItemID="397" duration="7">
      <Effects />
      <Transitions />
      <BoundProperties>
        <BoundPropertyInt Name="rotateStepNinety" Value="0" />
      </BoundProperties>
    </ImageClip>
    <ImageClip extentID="402" gapBefore="0" mediaItemID="398" duration="7">
      <Effects />
      <Transitions />
      <BoundProperties>
        <BoundPropertyInt Name="rotateStepNinety" Value="0" />
      </BoundProperties>
    </ImageClip>
    <ImageClip extentID="403" gapBefore="0" mediaItemID="399" duration="7">
      <Effects />
      <Transitions />
      <BoundProperties>
        <BoundPropertyInt Name="rotateStepNinety" Value="0" />
      </BoundProperties>
    </ImageClip>
    <ImageClip extentID="404" gapBefore="0" mediaItemID="400" duration="7">
      <Effects />
      <Transitions />
      <BoundProperties>
        <BoundPropertyInt Name="rotateStepNinety" Value="0" />
      </BoundProperties>
    </ImageClip>
    <ImageClip extentID="405" gapBefore="0" mediaItemID="401" duration="7">
      <Effects />
      <Transitions />
      <BoundProperties>
        <BoundPropertyInt Name="rotateStepNinety" Value="0" />
      </BoundProperties>
    </ImageClip>
    <ImageClip extentID="406" gapBefore="0" mediaItemID="402" duration="7">
      <Effects />
      <Transitions />
      <BoundProperties>
        <BoundPropertyInt Name="rotateStepNinety" Value="0" />
      </BoundProperties>
    </ImageClip>
    <ImageClip extentID="407" gapBefore="0" mediaItemID="403" duration="7">
      <Effects />
      <Transitions />
      <BoundProperties>
        <BoundPropertyInt Name="rotateStepNinety" Value="0" />
      </BoundProperties>
    </ImageClip>
    <ImageClip extentID="408" gapBefore="0" mediaItemID="404" duration="7">
      <Effects />
      <Transitions />
      <BoundProperties>
        <BoundPropertyInt Name="rotateStepNinety" Value="0" />
      </BoundProperties>
    </ImageClip>
    <ImageClip extentID="409" gapBefore="0" mediaItemID="405" duration="7">
      <Effects />
      <Transitions />
      <BoundProperties>
        <BoundPropertyInt Name="rotateStepNinety" Value="0" />
      </BoundProperties>
    </ImageClip>
    <ImageClip extentID="410" gapBefore="0" mediaItemID="406" duration="7">
      <Effects />
      <Transitions />
      <BoundProperties>
        <BoundPropertyInt Name="rotateStepNinety" Value="0" />
      </BoundProperties>
    </ImageClip>
    <ImageClip extentID="411" gapBefore="0" mediaItemID="407" duration="7">
      <Effects />
      <Transitions />
      <BoundProperties>
        <BoundPropertyInt Name="rotateStepNinety" Value="0" />
      </BoundProperties>
    </ImageClip>
    <ImageClip extentID="412" gapBefore="0" mediaItemID="408" duration="7">
      <Effects />
      <Transitions />
      <BoundProperties>
        <BoundPropertyInt Name="rotateStepNinety" Value="0" />
      </BoundProperties>
    </ImageClip>
    <ImageClip extentID="413" gapBefore="0" mediaItemID="409" duration="7">
      <Effects />
      <Transitions />
      <BoundProperties>
        <BoundPropertyInt Name="rotateStepNinety" Value="0" />
      </BoundProperties>
    </ImageClip>
    <ImageClip extentID="414" gapBefore="0" mediaItemID="410" duration="7">
      <Effects />
      <Transitions />
      <BoundProperties>
        <BoundPropertyInt Name="rotateStepNinety" Value="0" />
      </BoundProperties>
    </ImageClip>
    <ImageClip extentID="415" gapBefore="0" mediaItemID="411" duration="7">
      <Effects />
      <Transitions />
      <BoundProperties>
        <BoundPropertyInt Name="rotateStepNinety" Value="0" />
      </BoundProperties>
    </ImageClip>
    <ImageClip extentID="416" gapBefore="0" mediaItemID="412" duration="7">
      <Effects />
      <Transitions />
      <BoundProperties>
        <BoundPropertyInt Name="rotateStepNinety" Value="0" />
      </BoundProperties>
    </ImageClip>
    <ImageClip extentID="417" gapBefore="0" mediaItemID="413" duration="7">
      <Effects />
      <Transitions />
      <BoundProperties>
        <BoundPropertyInt Name="rotateStepNinety" Value="0" />
      </BoundProperties>
    </ImageClip>
    <ImageClip extentID="418" gapBefore="0" mediaItemID="414" duration="7">
      <Effects />
      <Transitions />
      <BoundProperties>
        <BoundPropertyInt Name="rotateStepNinety" Value="0" />
      </BoundProperties>
    </ImageClip>
    <ImageClip extentID="419" gapBefore="0" mediaItemID="415" duration="7">
      <Effects />
      <Transitions />
      <BoundProperties>
        <BoundPropertyInt Name="rotateStepNinety" Value="0" />
      </BoundProperties>
    </ImageClip>
    <ImageClip extentID="420" gapBefore="0" mediaItemID="416" duration="7">
      <Effects />
      <Transitions />
      <BoundProperties>
        <BoundPropertyInt Name="rotateStepNinety" Value="0" />
      </BoundProperties>
    </ImageClip>
    <ImageClip extentID="421" gapBefore="0" mediaItemID="417" duration="7">
      <Effects />
      <Transitions />
      <BoundProperties>
        <BoundPropertyInt Name="rotateStepNinety" Value="0" />
      </BoundProperties>
    </ImageClip>
    <ImageClip extentID="422" gapBefore="0" mediaItemID="418" duration="7">
      <Effects />
      <Transitions />
      <BoundProperties>
        <BoundPropertyInt Name="rotateStepNinety" Value="0" />
      </BoundProperties>
    </ImageClip>
    <ImageClip extentID="423" gapBefore="0" mediaItemID="419" duration="7">
      <Effects />
      <Transitions />
      <BoundProperties>
        <BoundPropertyInt Name="rotateStepNinety" Value="0" />
      </BoundProperties>
    </ImageClip>
    <ImageClip extentID="424" gapBefore="0" mediaItemID="420" duration="7">
      <Effects />
      <Transitions />
      <BoundProperties>
        <BoundPropertyInt Name="rotateStepNinety" Value="0" />
      </BoundProperties>
    </ImageClip>
    <ImageClip extentID="425" gapBefore="0" mediaItemID="421" duration="7">
      <Effects />
      <Transitions />
      <BoundProperties>
        <BoundPropertyInt Name="rotateStepNinety" Value="0" />
      </BoundProperties>
    </ImageClip>
    <ImageClip extentID="426" gapBefore="0" mediaItemID="422" duration="7">
      <Effects />
      <Transitions />
      <BoundProperties>
        <BoundPropertyInt Name="rotateStepNinety" Value="0" />
      </BoundProperties>
    </ImageClip>
    <ImageClip extentID="427" gapBefore="0" mediaItemID="423" duration="7">
      <Effects />
      <Transitions />
      <BoundProperties>
        <BoundPropertyInt Name="rotateStepNinety" Value="0" />
      </BoundProperties>
    </ImageClip>
    <ImageClip extentID="428" gapBefore="0" mediaItemID="424" duration="7">
      <Effects />
      <Transitions />
      <BoundProperties>
        <BoundPropertyInt Name="rotateStepNinety" Value="0" />
      </BoundProperties>
    </ImageClip>
    <ImageClip extentID="429" gapBefore="0" mediaItemID="425" duration="7">
      <Effects />
      <Transitions />
      <BoundProperties>
        <BoundPropertyInt Name="rotateStepNinety" Value="0" />
      </BoundProperties>
    </ImageClip>
    <ImageClip extentID="430" gapBefore="0" mediaItemID="426" duration="7">
      <Effects />
      <Transitions />
      <BoundProperties>
        <BoundPropertyInt Name="rotateStepNinety" Value="0" />
      </BoundProperties>
    </ImageClip>
    <ImageClip extentID="431" gapBefore="0" mediaItemID="427" duration="7">
      <Effects />
      <Transitions />
      <BoundProperties>
        <BoundPropertyInt Name="rotateStepNinety" Value="0" />
      </BoundProperties>
    </ImageClip>
    <ImageClip extentID="432" gapBefore="0" mediaItemID="428" duration="7">
      <Effects />
      <Transitions />
      <BoundProperties>
        <BoundPropertyInt Name="rotateStepNinety" Value="0" />
      </BoundProperties>
    </ImageClip>
    <ImageClip extentID="433" gapBefore="0" mediaItemID="429" duration="7">
      <Effects />
      <Transitions />
      <BoundProperties>
        <BoundPropertyInt Name="rotateStepNinety" Value="0" />
      </BoundProperties>
    </ImageClip>
    <ImageClip extentID="434" gapBefore="0" mediaItemID="430" duration="7">
      <Effects />
      <Transitions />
      <BoundProperties>
        <BoundPropertyInt Name="rotateStepNinety" Value="0" />
      </BoundProperties>
    </ImageClip>
    <ImageClip extentID="435" gapBefore="0" mediaItemID="431" duration="7">
      <Effects />
      <Transitions />
      <BoundProperties>
        <BoundPropertyInt Name="rotateStepNinety" Value="0" />
      </BoundProperties>
    </ImageClip>
    <ImageClip extentID="436" gapBefore="0" mediaItemID="432" duration="7">
      <Effects />
      <Transitions />
      <BoundProperties>
        <BoundPropertyInt Name="rotateStepNinety" Value="0" />
      </BoundProperties>
    </ImageClip>
    <ImageClip extentID="437" gapBefore="0" mediaItemID="433" duration="7">
      <Effects />
      <Transitions />
      <BoundProperties>
        <BoundPropertyInt Name="rotateStepNinety" Value="0" />
      </BoundProperties>
    </ImageClip>
    <ImageClip extentID="438" gapBefore="0" mediaItemID="434" duration="7">
      <Effects />
      <Transitions />
      <BoundProperties>
        <BoundPropertyInt Name="rotateStepNinety" Value="0" />
      </BoundProperties>
    </ImageClip>
    <ImageClip extentID="439" gapBefore="0" mediaItemID="435" duration="7">
      <Effects />
      <Transitions />
      <BoundProperties>
        <BoundPropertyInt Name="rotateStepNinety" Value="0" />
      </BoundProperties>
    </ImageClip>
    <ImageClip extentID="440" gapBefore="0" mediaItemID="436" duration="7">
      <Effects />
      <Transitions />
      <BoundProperties>
        <BoundPropertyInt Name="rotateStepNinety" Value="0" />
      </BoundProperties>
    </ImageClip>
    <ImageClip extentID="441" gapBefore="0" mediaItemID="437" duration="7">
      <Effects />
      <Transitions />
      <BoundProperties>
        <BoundPropertyInt Name="rotateStepNinety" Value="0" />
      </BoundProperties>
    </ImageClip>
    <ImageClip extentID="442" gapBefore="0" mediaItemID="438" duration="7">
      <Effects />
      <Transitions />
      <BoundProperties>
        <BoundPropertyInt Name="rotateStepNinety" Value="0" />
      </BoundProperties>
    </ImageClip>
    <ImageClip extentID="443" gapBefore="0" mediaItemID="439" duration="7">
      <Effects />
      <Transitions />
      <BoundProperties>
        <BoundPropertyInt Name="rotateStepNinety" Value="0" />
      </BoundProperties>
    </ImageClip>
    <ImageClip extentID="444" gapBefore="0" mediaItemID="440" duration="7">
      <Effects />
      <Transitions />
      <BoundProperties>
        <BoundPropertyInt Name="rotateStepNinety" Value="0" />
      </BoundProperties>
    </ImageClip>
    <ImageClip extentID="445" gapBefore="0" mediaItemID="441" duration="7">
      <Effects />
      <Transitions />
      <BoundProperties>
        <BoundPropertyInt Name="rotateStepNinety" Value="0" />
      </BoundProperties>
    </ImageClip>
    <ImageClip extentID="446" gapBefore="0" mediaItemID="442" duration="7">
      <Effects />
      <Transitions />
      <BoundProperties>
        <BoundPropertyInt Name="rotateStepNinety" Value="0" />
      </BoundProperties>
    </ImageClip>
    <ImageClip extentID="447" gapBefore="0" mediaItemID="443" duration="7">
      <Effects />
      <Transitions />
      <BoundProperties>
        <BoundPropertyInt Name="rotateStepNinety" Value="0" />
      </BoundProperties>
    </ImageClip>
    <ImageClip extentID="448" gapBefore="0" mediaItemID="444" duration="7">
      <Effects />
      <Transitions />
      <BoundProperties>
        <BoundPropertyInt Name="rotateStepNinety" Value="0" />
      </BoundProperties>
    </ImageClip>
    <ImageClip extentID="449" gapBefore="0" mediaItemID="445" duration="7">
      <Effects />
      <Transitions />
      <BoundProperties>
        <BoundPropertyInt Name="rotateStepNinety" Value="0" />
      </BoundProperties>
    </ImageClip>
    <ImageClip extentID="450" gapBefore="0" mediaItemID="446" duration="7">
      <Effects />
      <Transitions />
      <BoundProperties>
        <BoundPropertyInt Name="rotateStepNinety" Value="0" />
      </BoundProperties>
    </ImageClip>
    <ImageClip extentID="451" gapBefore="0" mediaItemID="447" duration="7">
      <Effects />
      <Transitions />
      <BoundProperties>
        <BoundPropertyInt Name="rotateStepNinety" Value="0" />
      </BoundProperties>
    </ImageClip>
    <ImageClip extentID="452" gapBefore="0" mediaItemID="448" duration="7">
      <Effects />
      <Transitions />
      <BoundProperties>
        <BoundPropertyInt Name="rotateStepNinety" Value="0" />
      </BoundProperties>
    </ImageClip>
    <ImageClip extentID="453" gapBefore="0" mediaItemID="449" duration="7">
      <Effects />
      <Transitions />
      <BoundProperties>
        <BoundPropertyInt Name="rotateStepNinety" Value="0" />
      </BoundProperties>
    </ImageClip>
    <ImageClip extentID="454" gapBefore="0" mediaItemID="450" duration="7">
      <Effects />
      <Transitions />
      <BoundProperties>
        <BoundPropertyInt Name="rotateStepNinety" Value="0" />
      </BoundProperties>
    </ImageClip>
    <ImageClip extentID="455" gapBefore="0" mediaItemID="451" duration="7">
      <Effects />
      <Transitions />
      <BoundProperties>
        <BoundPropertyInt Name="rotateStepNinety" Value="0" />
      </BoundProperties>
    </ImageClip>
    <ImageClip extentID="456" gapBefore="0" mediaItemID="452" duration="7">
      <Effects />
      <Transitions />
      <BoundProperties>
        <BoundPropertyInt Name="rotateStepNinety" Value="0" />
      </BoundProperties>
    </ImageClip>
    <ImageClip extentID="457" gapBefore="0" mediaItemID="453" duration="7">
      <Effects />
      <Transitions />
      <BoundProperties>
        <BoundPropertyInt Name="rotateStepNinety" Value="0" />
      </BoundProperties>
    </ImageClip>
    <ImageClip extentID="458" gapBefore="0" mediaItemID="454" duration="7">
      <Effects />
      <Transitions />
      <BoundProperties>
        <BoundPropertyInt Name="rotateStepNinety" Value="0" />
      </BoundProperties>
    </ImageClip>
    <ImageClip extentID="459" gapBefore="0" mediaItemID="455" duration="7">
      <Effects />
      <Transitions />
      <BoundProperties>
        <BoundPropertyInt Name="rotateStepNinety" Value="0" />
      </BoundProperties>
    </ImageClip>
    <ImageClip extentID="460" gapBefore="0" mediaItemID="456" duration="7">
      <Effects />
      <Transitions />
      <BoundProperties>
        <BoundPropertyInt Name="rotateStepNinety" Value="0" />
      </BoundProperties>
    </ImageClip>
    <ImageClip extentID="461" gapBefore="0" mediaItemID="457" duration="7">
      <Effects />
      <Transitions />
      <BoundProperties>
        <BoundPropertyInt Name="rotateStepNinety" Value="0" />
      </BoundProperties>
    </ImageClip>
    <ImageClip extentID="462" gapBefore="0" mediaItemID="458" duration="7">
      <Effects />
      <Transitions />
      <BoundProperties>
        <BoundPropertyInt Name="rotateStepNinety" Value="0" />
      </BoundProperties>
    </ImageClip>
    <ImageClip extentID="463" gapBefore="0" mediaItemID="459" duration="7">
      <Effects />
      <Transitions />
      <BoundProperties>
        <BoundPropertyInt Name="rotateStepNinety" Value="0" />
      </BoundProperties>
    </ImageClip>
    <ImageClip extentID="464" gapBefore="0" mediaItemID="460" duration="7">
      <Effects />
      <Transitions />
      <BoundProperties>
        <BoundPropertyInt Name="rotateStepNinety" Value="0" />
      </BoundProperties>
    </ImageClip>
    <ImageClip extentID="465" gapBefore="0" mediaItemID="461" duration="7">
      <Effects />
      <Transitions />
      <BoundProperties>
        <BoundPropertyInt Name="rotateStepNinety" Value="0" />
      </BoundProperties>
    </ImageClip>
    <ImageClip extentID="466" gapBefore="0" mediaItemID="462" duration="7">
      <Effects />
      <Transitions />
      <BoundProperties>
        <BoundPropertyInt Name="rotateStepNinety" Value="0" />
      </BoundProperties>
    </ImageClip>
    <ImageClip extentID="467" gapBefore="0" mediaItemID="463" duration="7">
      <Effects />
      <Transitions />
      <BoundProperties>
        <BoundPropertyInt Name="rotateStepNinety" Value="0" />
      </BoundProperties>
    </ImageClip>
    <ImageClip extentID="468" gapBefore="0" mediaItemID="464" duration="7">
      <Effects />
      <Transitions />
      <BoundProperties>
        <BoundPropertyInt Name="rotateStepNinety" Value="0" />
      </BoundProperties>
    </ImageClip>
    <ImageClip extentID="469" gapBefore="0" mediaItemID="465" duration="7">
      <Effects />
      <Transitions />
      <BoundProperties>
        <BoundPropertyInt Name="rotateStepNinety" Value="0" />
      </BoundProperties>
    </ImageClip>
    <ImageClip extentID="470" gapBefore="0" mediaItemID="466" duration="7">
      <Effects />
      <Transitions />
      <BoundProperties>
        <BoundPropertyInt Name="rotateStepNinety" Value="0" />
      </BoundProperties>
    </ImageClip>
    <ImageClip extentID="471" gapBefore="0" mediaItemID="467" duration="7">
      <Effects />
      <Transitions />
      <BoundProperties>
        <BoundPropertyInt Name="rotateStepNinety" Value="0" />
      </BoundProperties>
    </ImageClip>
    <ImageClip extentID="472" gapBefore="0" mediaItemID="468" duration="7">
      <Effects />
      <Transitions />
      <BoundProperties>
        <BoundPropertyInt Name="rotateStepNinety" Value="0" />
      </BoundProperties>
    </ImageClip>
    <ImageClip extentID="473" gapBefore="0" mediaItemID="469" duration="7">
      <Effects />
      <Transitions />
      <BoundProperties>
        <BoundPropertyInt Name="rotateStepNinety" Value="0" />
      </BoundProperties>
    </ImageClip>
    <ImageClip extentID="474" gapBefore="0" mediaItemID="470" duration="7">
      <Effects />
      <Transitions />
      <BoundProperties>
        <BoundPropertyInt Name="rotateStepNinety" Value="0" />
      </BoundProperties>
    </ImageClip>
    <ImageClip extentID="475" gapBefore="0" mediaItemID="471" duration="7">
      <Effects />
      <Transitions />
      <BoundProperties>
        <BoundPropertyInt Name="rotateStepNinety" Value="0" />
      </BoundProperties>
    </ImageClip>
    <ImageClip extentID="476" gapBefore="0" mediaItemID="472" duration="7">
      <Effects />
      <Transitions />
      <BoundProperties>
        <BoundPropertyInt Name="rotateStepNinety" Value="0" />
      </BoundProperties>
    </ImageClip>
    <ImageClip extentID="477" gapBefore="0" mediaItemID="473" duration="7">
      <Effects />
      <Transitions />
      <BoundProperties>
        <BoundPropertyInt Name="rotateStepNinety" Value="0" />
      </BoundProperties>
    </ImageClip>
    <VideoClip extentID="478" gapBefore="0" mediaItemID="474" inTime="0" outTime="0" speed="1" stabilizationMode="0">
      <Effects />
      <Transitions />
      <BoundProperties>
        <BoundPropertyBool Name="Mute" Value="false" />
        <BoundPropertyInt Name="rotateStepNinety" Value="0" />
        <BoundPropertyFloat Name="Volume" Value="1" />
      </BoundProperties>
    </VideoClip>
    <VideoClip extentID="479" gapBefore="0" mediaItemID="475" inTime="0" outTime="0" speed="1" stabilizationMode="0">
      <Effects />
      <Transitions />
      <BoundProperties>
        <BoundPropertyBool Name="Mute" Value="false" />
        <BoundPropertyInt Name="rotateStepNinety" Value="0" />
        <BoundPropertyFloat Name="Volume" Value="1" />
      </BoundProperties>
    </VideoClip>
    <ImageClip extentID="480" gapBefore="0" mediaItemID="476" duration="7">
      <Effects />
      <Transitions />
      <BoundProperties>
        <BoundPropertyInt Name="rotateStepNinety" Value="0" />
      </BoundProperties>
    </ImageClip>
    <ImageClip extentID="481" gapBefore="0" mediaItemID="477" duration="7">
      <Effects />
      <Transitions />
      <BoundProperties>
        <BoundPropertyInt Name="rotateStepNinety" Value="0" />
      </BoundProperties>
    </ImageClip>
    <ImageClip extentID="482" gapBefore="0" mediaItemID="478" duration="7">
      <Effects />
      <Transitions />
      <BoundProperties>
        <BoundPropertyInt Name="rotateStepNinety" Value="0" />
      </BoundProperties>
    </ImageClip>
    <ImageClip extentID="483" gapBefore="0" mediaItemID="479" duration="7">
      <Effects />
      <Transitions />
      <BoundProperties>
        <BoundPropertyInt Name="rotateStepNinety" Value="0" />
      </BoundProperties>
    </ImageClip>
    <ImageClip extentID="484" gapBefore="0" mediaItemID="480" duration="7">
      <Effects />
      <Transitions />
      <BoundProperties>
        <BoundPropertyInt Name="rotateStepNinety" Value="0" />
      </BoundProperties>
    </ImageClip>
    <ExtentSelector extentID="1" gapBefore="0" primaryTrack="true">
      <Effects />
      <Transitions />
      <BoundProperties />
      <ExtentRefs>
        <ExtentRef id="5" />
        <ExtentRef id="6" />
        <ExtentRef id="7" />
        <ExtentRef id="8" />
        <ExtentRef id="9" />
        <ExtentRef id="10" />
        <ExtentRef id="11" />
        <ExtentRef id="12" />
        <ExtentRef id="13" />
        <ExtentRef id="14" />
        <ExtentRef id="15" />
        <ExtentRef id="16" />
        <ExtentRef id="17" />
        <ExtentRef id="18" />
        <ExtentRef id="19" />
        <ExtentRef id="20" />
        <ExtentRef id="21" />
        <ExtentRef id="22" />
        <ExtentRef id="23" />
        <ExtentRef id="24" />
        <ExtentRef id="25" />
        <ExtentRef id="26" />
        <ExtentRef id="27" />
        <ExtentRef id="28" />
        <ExtentRef id="29" />
        <ExtentRef id="30" />
        <ExtentRef id="31" />
        <ExtentRef id="32" />
        <ExtentRef id="33" />
        <ExtentRef id="34" />
        <ExtentRef id="35" />
        <ExtentRef id="36" />
        <ExtentRef id="37" />
        <ExtentRef id="38" />
        <ExtentRef id="39" />
        <ExtentRef id="40" />
        <ExtentRef id="41" />
        <ExtentRef id="42" />
        <ExtentRef id="43" />
        <ExtentRef id="44" />
        <ExtentRef id="45" />
        <ExtentRef id="46" />
        <ExtentRef id="47" />
        <ExtentRef id="48" />
        <ExtentRef id="49" />
        <ExtentRef id="50" />
        <ExtentRef id="51" />
        <ExtentRef id="52" />
        <ExtentRef id="53" />
        <ExtentRef id="54" />
        <ExtentRef id="55" />
        <ExtentRef id="56" />
        <ExtentRef id="57" />
        <ExtentRef id="58" />
        <ExtentRef id="59" />
        <ExtentRef id="60" />
        <ExtentRef id="61" />
        <ExtentRef id="62" />
        <ExtentRef id="63" />
        <ExtentRef id="64" />
        <ExtentRef id="65" />
        <ExtentRef id="66" />
        <ExtentRef id="67" />
        <ExtentRef id="68" />
        <ExtentRef id="69" />
        <ExtentRef id="70" />
        <ExtentRef id="71" />
        <ExtentRef id="72" />
        <ExtentRef id="73" />
        <ExtentRef id="74" />
        <ExtentRef id="75" />
        <ExtentRef id="76" />
        <ExtentRef id="77" />
        <ExtentRef id="78" />
        <ExtentRef id="79" />
        <ExtentRef id="80" />
        <ExtentRef id="81" />
        <ExtentRef id="82" />
        <ExtentRef id="83" />
        <ExtentRef id="84" />
        <ExtentRef id="85" />
        <ExtentRef id="86" />
        <ExtentRef id="87" />
        <ExtentRef id="88" />
        <ExtentRef id="89" />
        <ExtentRef id="90" />
        <ExtentRef id="91" />
        <ExtentRef id="92" />
        <ExtentRef id="93" />
        <ExtentRef id="94" />
        <ExtentRef id="95" />
        <ExtentRef id="96" />
        <ExtentRef id="97" />
        <ExtentRef id="98" />
        <ExtentRef id="99" />
        <ExtentRef id="100" />
        <ExtentRef id="101" />
        <ExtentRef id="102" />
        <ExtentRef id="103" />
        <ExtentRef id="104" />
        <ExtentRef id="105" />
        <ExtentRef id="106" />
        <ExtentRef id="107" />
        <ExtentRef id="108" />
        <ExtentRef id="109" />
        <ExtentRef id="110" />
        <ExtentRef id="111" />
        <ExtentRef id="112" />
        <ExtentRef id="113" />
        <ExtentRef id="114" />
        <ExtentRef id="115" />
        <ExtentRef id="116" />
        <ExtentRef id="117" />
        <ExtentRef id="118" />
        <ExtentRef id="119" />
        <ExtentRef id="120" />
        <ExtentRef id="121" />
        <ExtentRef id="122" />
        <ExtentRef id="123" />
        <ExtentRef id="124" />
        <ExtentRef id="125" />
        <ExtentRef id="126" />
        <ExtentRef id="127" />
        <ExtentRef id="128" />
        <ExtentRef id="129" />
        <ExtentRef id="130" />
        <ExtentRef id="131" />
        <ExtentRef id="132" />
        <ExtentRef id="133" />
        <ExtentRef id="134" />
        <ExtentRef id="135" />
        <ExtentRef id="136" />
        <ExtentRef id="137" />
        <ExtentRef id="138" />
        <ExtentRef id="139" />
        <ExtentRef id="140" />
        <ExtentRef id="141" />
        <ExtentRef id="142" />
        <ExtentRef id="143" />
        <ExtentRef id="144" />
        <ExtentRef id="145" />
        <ExtentRef id="146" />
        <ExtentRef id="147" />
        <ExtentRef id="148" />
        <ExtentRef id="149" />
        <ExtentRef id="150" />
        <ExtentRef id="151" />
        <ExtentRef id="152" />
        <ExtentRef id="153" />
        <ExtentRef id="154" />
        <ExtentRef id="155" />
        <ExtentRef id="156" />
        <ExtentRef id="157" />
        <ExtentRef id="158" />
        <ExtentRef id="159" />
        <ExtentRef id="160" />
        <ExtentRef id="161" />
        <ExtentRef id="162" />
        <ExtentRef id="163" />
        <ExtentRef id="164" />
        <ExtentRef id="165" />
        <ExtentRef id="166" />
        <ExtentRef id="167" />
        <ExtentRef id="168" />
        <ExtentRef id="169" />
        <ExtentRef id="170" />
        <ExtentRef id="171" />
        <ExtentRef id="172" />
        <ExtentRef id="173" />
        <ExtentRef id="174" />
        <ExtentRef id="175" />
        <ExtentRef id="176" />
        <ExtentRef id="177" />
        <ExtentRef id="178" />
        <ExtentRef id="179" />
        <ExtentRef id="180" />
        <ExtentRef id="181" />
        <ExtentRef id="182" />
        <ExtentRef id="183" />
        <ExtentRef id="184" />
        <ExtentRef id="185" />
        <ExtentRef id="186" />
        <ExtentRef id="187" />
        <ExtentRef id="188" />
        <ExtentRef id="189" />
        <ExtentRef id="190" />
        <ExtentRef id="191" />
        <ExtentRef id="192" />
        <ExtentRef id="193" />
        <ExtentRef id="194" />
        <ExtentRef id="195" />
        <ExtentRef id="196" />
        <ExtentRef id="197" />
        <ExtentRef id="198" />
        <ExtentRef id="199" />
        <ExtentRef id="200" />
        <ExtentRef id="201" />
        <ExtentRef id="202" />
        <ExtentRef id="203" />
        <ExtentRef id="204" />
        <ExtentRef id="205" />
        <ExtentRef id="206" />
        <ExtentRef id="207" />
        <ExtentRef id="208" />
        <ExtentRef id="209" />
        <ExtentRef id="210" />
        <ExtentRef id="211" />
        <ExtentRef id="212" />
        <ExtentRef id="213" />
        <ExtentRef id="214" />
        <ExtentRef id="215" />
        <ExtentRef id="216" />
        <ExtentRef id="217" />
        <ExtentRef id="218" />
        <ExtentRef id="219" />
        <ExtentRef id="220" />
        <ExtentRef id="221" />
        <ExtentRef id="222" />
        <ExtentRef id="223" />
        <ExtentRef id="224" />
        <ExtentRef id="225" />
        <ExtentRef id="226" />
        <ExtentRef id="227" />
        <ExtentRef id="228" />
        <ExtentRef id="229" />
        <ExtentRef id="230" />
        <ExtentRef id="231" />
        <ExtentRef id="232" />
        <ExtentRef id="233" />
        <ExtentRef id="234" />
        <ExtentRef id="235" />
        <ExtentRef id="236" />
        <ExtentRef id="237" />
        <ExtentRef id="238" />
        <ExtentRef id="239" />
        <ExtentRef id="240" />
        <ExtentRef id="241" />
        <ExtentRef id="242" />
        <ExtentRef id="243" />
        <ExtentRef id="244" />
        <ExtentRef id="245" />
        <ExtentRef id="246" />
        <ExtentRef id="247" />
        <ExtentRef id="248" />
        <ExtentRef id="249" />
        <ExtentRef id="250" />
        <ExtentRef id="251" />
        <ExtentRef id="252" />
        <ExtentRef id="253" />
        <ExtentRef id="254" />
        <ExtentRef id="255" />
        <ExtentRef id="256" />
        <ExtentRef id="257" />
        <ExtentRef id="258" />
        <ExtentRef id="259" />
        <ExtentRef id="260" />
        <ExtentRef id="261" />
        <ExtentRef id="262" />
        <ExtentRef id="263" />
        <ExtentRef id="264" />
        <ExtentRef id="265" />
        <ExtentRef id="266" />
        <ExtentRef id="267" />
        <ExtentRef id="268" />
        <ExtentRef id="269" />
        <ExtentRef id="270" />
        <ExtentRef id="271" />
        <ExtentRef id="272" />
        <ExtentRef id="273" />
        <ExtentRef id="274" />
        <ExtentRef id="275" />
        <ExtentRef id="276" />
        <ExtentRef id="277" />
        <ExtentRef id="278" />
        <ExtentRef id="279" />
        <ExtentRef id="280" />
        <ExtentRef id="281" />
        <ExtentRef id="282" />
        <ExtentRef id="283" />
        <ExtentRef id="284" />
        <ExtentRef id="285" />
        <ExtentRef id="286" />
        <ExtentRef id="287" />
        <ExtentRef id="288" />
        <ExtentRef id="289" />
        <ExtentRef id="290" />
        <ExtentRef id="291" />
        <ExtentRef id="292" />
        <ExtentRef id="293" />
        <ExtentRef id="294" />
        <ExtentRef id="295" />
        <ExtentRef id="296" />
        <ExtentRef id="297" />
        <ExtentRef id="298" />
        <ExtentRef id="299" />
        <ExtentRef id="300" />
        <ExtentRef id="301" />
        <ExtentRef id="302" />
        <ExtentRef id="303" />
        <ExtentRef id="304" />
        <ExtentRef id="305" />
        <ExtentRef id="306" />
        <ExtentRef id="307" />
        <ExtentRef id="308" />
        <ExtentRef id="309" />
        <ExtentRef id="310" />
        <ExtentRef id="311" />
        <ExtentRef id="312" />
        <ExtentRef id="313" />
        <ExtentRef id="314" />
        <ExtentRef id="315" />
        <ExtentRef id="316" />
        <ExtentRef id="317" />
        <ExtentRef id="318" />
        <ExtentRef id="319" />
        <ExtentRef id="320" />
        <ExtentRef id="321" />
        <ExtentRef id="322" />
        <ExtentRef id="323" />
        <ExtentRef id="324" />
        <ExtentRef id="325" />
        <ExtentRef id="326" />
        <ExtentRef id="327" />
        <ExtentRef id="328" />
        <ExtentRef id="329" />
        <ExtentRef id="330" />
        <ExtentRef id="331" />
        <ExtentRef id="332" />
        <ExtentRef id="333" />
        <ExtentRef id="334" />
        <ExtentRef id="335" />
        <ExtentRef id="336" />
        <ExtentRef id="337" />
        <ExtentRef id="338" />
        <ExtentRef id="339" />
        <ExtentRef id="340" />
        <ExtentRef id="341" />
        <ExtentRef id="342" />
        <ExtentRef id="343" />
        <ExtentRef id="344" />
        <ExtentRef id="345" />
        <ExtentRef id="346" />
        <ExtentRef id="347" />
        <ExtentRef id="348" />
        <ExtentRef id="349" />
        <ExtentRef id="350" />
        <ExtentRef id="351" />
        <ExtentRef id="352" />
        <ExtentRef id="353" />
        <ExtentRef id="354" />
        <ExtentRef id="355" />
        <ExtentRef id="356" />
        <ExtentRef id="357" />
        <ExtentRef id="358" />
        <ExtentRef id="359" />
        <ExtentRef id="360" />
        <ExtentRef id="361" />
        <ExtentRef id="362" />
        <ExtentRef id="363" />
        <ExtentRef id="364" />
        <ExtentRef id="365" />
        <ExtentRef id="366" />
        <ExtentRef id="367" />
        <ExtentRef id="368" />
        <ExtentRef id="369" />
        <ExtentRef id="370" />
        <ExtentRef id="371" />
        <ExtentRef id="372" />
        <ExtentRef id="373" />
        <ExtentRef id="374" />
        <ExtentRef id="375" />
        <ExtentRef id="376" />
        <ExtentRef id="377" />
        <ExtentRef id="378" />
        <ExtentRef id="379" />
        <ExtentRef id="380" />
        <ExtentRef id="381" />
        <ExtentRef id="382" />
        <ExtentRef id="383" />
        <ExtentRef id="384" />
        <ExtentRef id="385" />
        <ExtentRef id="386" />
        <ExtentRef id="387" />
        <ExtentRef id="388" />
        <ExtentRef id="389" />
        <ExtentRef id="390" />
        <ExtentRef id="391" />
        <ExtentRef id="392" />
        <ExtentRef id="393" />
        <ExtentRef id="394" />
        <ExtentRef id="395" />
        <ExtentRef id="396" />
        <ExtentRef id="397" />
        <ExtentRef id="398" />
        <ExtentRef id="399" />
        <ExtentRef id="400" />
        <ExtentRef id="401" />
        <ExtentRef id="402" />
        <ExtentRef id="403" />
        <ExtentRef id="404" />
        <ExtentRef id="405" />
        <ExtentRef id="406" />
        <ExtentRef id="407" />
        <ExtentRef id="408" />
        <ExtentRef id="409" />
        <ExtentRef id="410" />
        <ExtentRef id="411" />
        <ExtentRef id="412" />
        <ExtentRef id="413" />
        <ExtentRef id="414" />
        <ExtentRef id="415" />
        <ExtentRef id="416" />
        <ExtentRef id="417" />
        <ExtentRef id="418" />
        <ExtentRef id="419" />
        <ExtentRef id="420" />
        <ExtentRef id="421" />
        <ExtentRef id="422" />
        <ExtentRef id="423" />
        <ExtentRef id="424" />
        <ExtentRef id="425" />
        <ExtentRef id="426" />
        <ExtentRef id="427" />
        <ExtentRef id="428" />
        <ExtentRef id="429" />
        <ExtentRef id="430" />
        <ExtentRef id="431" />
        <ExtentRef id="432" />
        <ExtentRef id="433" />
        <ExtentRef id="434" />
        <ExtentRef id="435" />
        <ExtentRef id="436" />
        <ExtentRef id="437" />
        <ExtentRef id="438" />
        <ExtentRef id="439" />
        <ExtentRef id="440" />
        <ExtentRef id="441" />
        <ExtentRef id="442" />
        <ExtentRef id="443" />
        <ExtentRef id="444" />
        <ExtentRef id="445" />
        <ExtentRef id="446" />
        <ExtentRef id="447" />
        <ExtentRef id="448" />
        <ExtentRef id="449" />
        <ExtentRef id="450" />
        <ExtentRef id="451" />
        <ExtentRef id="452" />
        <ExtentRef id="453" />
        <ExtentRef id="454" />
        <ExtentRef id="455" />
        <ExtentRef id="456" />
        <ExtentRef id="457" />
        <ExtentRef id="458" />
        <ExtentRef id="459" />
        <ExtentRef id="460" />
        <ExtentRef id="461" />
        <ExtentRef id="462" />
        <ExtentRef id="463" />
        <ExtentRef id="464" />
        <ExtentRef id="465" />
        <ExtentRef id="466" />
        <ExtentRef id="467" />
        <ExtentRef id="468" />
        <ExtentRef id="469" />
        <ExtentRef id="470" />
        <ExtentRef id="471" />
        <ExtentRef id="472" />
        <ExtentRef id="473" />
        <ExtentRef id="474" />
        <ExtentRef id="475" />
        <ExtentRef id="476" />
        <ExtentRef id="477" />
        <ExtentRef id="478" />
        <ExtentRef id="479" />
        <ExtentRef id="480" />
        <ExtentRef id="481" />
        <ExtentRef id="482" />
        <ExtentRef id="483" />
        <ExtentRef id="484" />
      </ExtentRefs>
    </ExtentSelector>
    <ExtentSelector extentID="2" gapBefore="0" primaryTrack="false">
      <Effects />
      <Transitions />
      <BoundProperties />
      <ExtentRefs />
    </ExtentSelector>
    <ExtentSelector extentID="3" gapBefore="0" primaryTrack="false">
      <Effects />
      <Transitions />
      <BoundProperties />
      <ExtentRefs />
    </ExtentSelector>
    <ExtentSelector extentID="4" gapBefore="0" primaryTrack="false">
      <Effects />
      <Transitions />
      <BoundProperties />
      <ExtentRefs />
    </ExtentSelector>
  </Extents>
  <BoundPlaceholders>
    <BoundPlaceholder placeholderID="SingleExtentView" extentID="0" />
    <BoundPlaceholder placeholderID="Main" extentID="1" />
    <BoundPlaceholder placeholderID="SoundTrack" extentID="2" />
    <BoundPlaceholder placeholderID="Narration" extentID="3" />
    <BoundPlaceholder placeholderID="Text" extentID="4" />
  </BoundPlaceholders>
  <BoundProperties>
    <BoundPropertyFloatSet Name="AspectRatio">
      <BoundPropertyFloatElement Value="1.7777776718139648" />
    </BoundPropertyFloatSet>
    <BoundPropertyFloat Name="DuckedNarrationAndSoundTrackMix" Value="0.5" />
    <BoundPropertyFloat Name="DuckedVideoAndNarrationMix" Value="0" />
    <BoundPropertyFloat Name="DuckedVideoAndSoundTrackMix" Value="0" />
    <BoundPropertyFloat Name="SoundTrackMix" Value="0" />
  </BoundProperties>
  <ThemeOperationLog themeID="0">
    <MonolithicThemeOperations />
  </ThemeOperationLog>
  <AudioDuckingProperties emphasisPlaceholderID="Narration" />
</Project>